<svg width="25" height="25" viewBox="0 0 25 25" fill="none" xmlns="http://www.w3.org/2000/svg">
<path d="M22.9173 12.5002C22.9173 13.0755 22.4509 13.5418 21.8757 13.5418H13.5423V21.8752C13.5423 22.4505 13.0759 22.9168 12.5007 22.9168C11.9254 22.9168 11.459 22.4505 11.459 21.8752V13.5418H3.12565C2.55035 13.5418 2.08398 13.0755 2.08398 12.5002C2.08398 11.9249 2.55035 11.4585 3.12565 11.4585H11.459V3.12516C11.459 2.54987 11.9254 2.0835 12.5007 2.0835C13.0759 2.0835 13.5423 2.54987 13.5423 3.12516V11.4585H21.8757C22.4509 11.4585 22.9173 11.9249 22.9173 12.5002Z" fill="black" stroke="black"/>
</svg>
