<svg width="112" height="112" viewBox="0 0 112 112" fill="none" xmlns="http://www.w3.org/2000/svg">
<g clip-path="url(#clip0_71_735)">
<path d="M112 56C112 25.0721 86.9279 0 56 0C25.0721 0 0 25.0721 0 56C0 86.9279 25.0721 112 56 112C86.9279 112 112 86.9279 112 56Z" fill="#457FC0"/>
<path d="M95.2407 102.267C95.2407 102.761 88.5466 103.163 80.2906 103.163C72.0347 103.163 65.3406 102.761 65.3406 102.267C65.3406 101.772 72.0347 101.37 80.2906 101.37C88.5466 101.37 95.2407 101.772 95.2407 102.267Z" fill="#000222" fill-opacity="0.278431"/>
<path d="M83.3631 66.3067C83.5407 66.3 83.6369 66.1258 83.534 66.0046C83.0626 65.4502 82.173 65.0967 81.1688 65.1365C80.1646 65.1763 79.3098 65.6013 78.8915 66.1905C78.7985 66.32 78.9114 66.4859 79.089 66.4793L83.3631 66.3083V66.3067Z" fill="#B0B2C3"/>
<path d="M79.1388 67.6146C78.9628 67.6213 78.8649 67.7955 78.9695 67.9167C79.4392 68.4711 80.3289 68.8246 81.3331 68.7848C82.3372 68.745 83.1921 68.32 83.6103 67.7308C83.7033 67.6013 83.5904 67.4354 83.4145 67.4437L79.1388 67.6146Z" fill="#B0B2C3"/>
<path d="M82.153 59.4184C79.982 59.5761 78.2192 61.1961 77.8557 63.3157L84.3639 63.0783L84.4967 61.8467C84.6444 60.4823 83.519 59.3188 82.1513 59.4184H82.153Z" fill="#63667D"/>
<path d="M94.1834 64.1854C94.1834 64.1854 92.8904 62.8758 92.512 62.3828C92.1336 61.8899 91.609 61.5861 91.1659 61.5894C90.721 61.5928 90.0621 61.9314 90.0289 62.6799C89.994 63.4285 89.4712 71.8588 89.4712 71.8588L92.2531 74.9261L94.1834 64.1854Z" fill="#2B3B53"/>
<path d="M94.5718 64.8427C94.507 64.4875 94.2962 63.9713 93.3949 64.0062C92.4937 64.041 92.3874 64.8278 92.3675 65.2328C92.3492 65.6378 92.2546 74.9262 92.2546 74.9262C92.2546 74.9262 93.1294 74.0747 93.614 74.1361C94.0987 74.1975 95.1577 74.6672 95.1577 74.6672C95.1577 74.6672 94.6747 65.4104 94.5718 64.8411V64.8427Z" fill="#3B4E68"/>
<path d="M93.8051 59.445C93.5196 58.6848 92.8989 57.9661 92.8989 57.9661L91.4631 58.0906C91.4631 58.0906 91.1544 58.713 90.9618 59.1479C90.8689 59.357 90.8058 59.5778 90.7759 59.8051C90.7195 60.2367 90.605 61.055 90.5203 61.5297C90.4158 62.1007 91.0033 61.8584 91.3934 61.3322C91.6606 62.0426 91.9577 62.3546 91.9577 62.3546C91.9577 62.3546 92.4872 62.5356 93.0084 62.4343C93.3951 62.3596 93.9445 61.7521 94.2018 61.4434C94.3047 61.3189 94.3495 61.1529 94.3147 60.9952C94.235 60.6284 94.0192 60.0143 93.8051 59.4433V59.445Z" fill="#EE706B"/>
<path d="M92.2714 63.1231C92.2714 63.1231 92.4838 63.4136 93.0283 63.1929C93.0283 63.1929 93.176 61.3953 93.2025 61.2957C93.2291 61.1961 92.9585 60.6467 92.6349 60.65C92.3129 60.655 92.1452 60.9438 92.4324 61.3422L92.2681 63.1215L92.2714 63.1231Z" fill="#4F6078"/>
<path d="M89.0978 33.804C89.9427 34.4414 92.5403 41.1105 93.4233 46.6012C94.3064 52.0919 94.3562 58.4657 94.3562 58.4657C94.3562 58.4657 93.2773 59.4948 92.1005 59.4948C90.9236 59.4948 89.9925 58.5636 89.9925 58.5636C89.9925 58.5636 90.1867 52.975 89.9427 49.886C89.697 46.7971 88.0289 42.1894 86.804 39.8839L89.0978 33.804Z" fill="#C2E6E9"/>
<path d="M76.7403 32.5907C76.7403 32.5907 75.1369 33.4106 74.8913 34.1476C73.6049 38.0083 66.5556 69.4786 72.4978 56.7959C73.2414 55.2091 73.0057 50.9599 74.4498 49.9358L76.7403 32.5923V32.5907Z" fill="#C2E6E9"/>
<path d="M74.2373 39.9437C74.3518 39.3926 74.4862 38.7221 74.6439 38.0133C74.4497 38.6623 74.2788 39.2731 74.1327 39.7827C73.7244 41.2118 73.1003 47.5357 72.531 52.0189C72.4563 52.6032 70.8844 57.8449 70.4114 59.04C69.7989 60.5869 71.8621 56.4672 71.6828 56.6249C71.9168 56.6581 72.3285 53.8265 72.8414 51.9625C73.9319 47.9972 73.4904 43.8094 74.2389 39.942L74.2373 39.9437Z" fill="#92C2C6"/>
<path d="M79.9787 31.1416C79.9787 31.1416 78.3156 34.0546 77.6865 36.6605C77.0574 39.2665 74.7021 56.6681 73.8938 59.2308C73.8938 59.2308 79.3231 60.2799 83.2801 59.2923C83.2801 59.2923 82.0651 50.369 82.1913 46.2792C82.3174 42.1894 84.6544 31.7176 84.6544 31.7176C84.6544 31.7176 81.7315 31.286 79.9804 31.1416H79.9787Z" fill="#ECF1F6"/>
<path d="M81.0027 45.9655C81.0691 39.9304 83.2219 33.7326 83.7381 31.8687C83.1306 33.7874 80.8268 39.8441 80.5679 45.8079C80.3936 49.8296 80.8168 55.6091 81.1671 59.4151C81.4442 59.3885 81.7364 59.4168 82.0119 59.3753C81.5455 55.6008 80.9579 49.9093 81.0027 45.9672V45.9655Z" fill="#92C2C6"/>
<path d="M81.2367 98.6218C81.2367 98.6218 81.3878 99.4252 81.5073 99.7372C81.5073 99.7372 79.791 101.185 78.5378 99.7372V98.6218H81.2367Z" fill="#EE706B"/>
<path d="M85.9508 99.9331C85.9508 99.9331 85.3532 100.715 85.315 101.341C85.2769 101.966 85.3947 102.748 85.8628 102.984C85.8628 102.984 88.326 102.984 88.8737 102.984C89.4214 102.984 89.7335 102.202 89.3418 101.224C88.9501 100.247 88.3708 99.7588 88.3708 99.7588L85.9508 99.9347V99.9331Z" fill="#422B2E"/>
<path d="M85.823 98.4077C85.823 98.4077 85.979 100.202 85.979 100.38C85.979 100.557 86.2645 100.949 87.2952 100.949C88.326 100.949 88.4023 99.9314 88.4023 99.9314L88.0255 97.8981L85.8213 98.406L85.823 98.4077Z" fill="#EE706B"/>
<path d="M78.5297 99.2426C78.362 98.9604 77.9769 98.9007 77.7163 99.1032C77.2118 99.4932 76.5312 100.006 76.2308 100.169C75.7229 100.443 74.5096 100.912 73.6896 101.107C72.868 101.302 72.5161 101.888 72.5161 102.436C72.5161 102.436 76.1196 102.436 76.7619 102.436C77.4043 102.436 78.1877 102.202 78.7736 101.81C79.3612 101.419 79.6733 102.202 79.6733 102.202H82.2161C82.2161 102.202 82.3672 100.853 82.0418 99.7903C81.9472 99.4783 81.5804 99.3438 81.3049 99.5181C80.9049 99.7704 80.3405 100.074 79.9471 100.051C79.4492 100.021 78.8467 99.7704 78.5313 99.2426H78.5297Z" fill="#422B2E"/>
<path d="M72.0149 59.7089C72.0149 59.7089 72.0149 71.9534 73.0473 78.4201C74.0797 84.8867 78.1214 98.2317 78.5081 99.1264C78.5081 99.1264 80.407 99.7455 81.5074 98.8508C81.5074 98.8508 78.8932 86.8121 78.8252 83.7166C78.7554 80.621 79.3762 66.8627 79.6501 64.3182C79.9256 61.7737 80.4534 59.7089 80.4534 59.7089H72.0149Z" fill="#002B60"/>
<path d="M86.7359 60.4375C86.7359 60.4375 87.4927 73.741 87.6305 78.4184C87.7683 83.0958 88.3874 95.6839 88.1816 98.5737C88.1816 98.5737 86.5998 99.1928 85.3615 98.8492C85.3615 98.8492 83.5042 86.8105 82.6095 82.7522C81.7149 78.6939 78.9646 66.2635 77.8624 63.9149C76.762 61.5645 76.2922 59.7686 76.2922 59.7686L86.7375 60.4359L86.7359 60.4375Z" fill="#002B60"/>
<path d="M79.3512 68.8147C79.3512 68.8147 77.8856 66.71 76.7403 66.7681C75.595 66.8262 79.2914 69.4819 79.1387 73.1717L79.3512 68.8147Z" fill="#001136"/>
<path d="M86.8652 62.7547C86.7872 61.3388 86.7357 60.4375 86.7357 60.4375L81.167 60.0807C81.4292 62.68 81.6649 64.4726 81.6649 64.4726C84.1663 64.3597 85.8626 63.4883 86.8652 62.753V62.7547Z" fill="#001136"/>
<path d="M73.5402 58.7661C73.5402 58.7661 76.9428 59.8699 83.5539 59.2574L83.6187 60.1587C83.6187 60.1587 79.2334 60.9969 73.3975 59.767L73.5402 58.7644V58.7661Z" fill="#5B435C"/>
<path d="M80.4551 30.9873C80.4551 30.9873 77.7562 33.96 77.0143 42.0151C76.2707 50.0719 76.2707 51.7915 75.293 55.9759C74.3154 60.1603 72.868 63.6808 72.868 63.6808C72.868 63.6808 70.7949 62.2733 70.209 59.5363C70.209 59.5363 71.9103 55.3933 72.7635 52.6065C73.0191 51.7699 73.127 50.9085 73.1801 50.5035C73.4141 48.7441 73.766 42.2127 74.2357 39.9453C74.7055 37.678 75.5287 33.4322 76.7387 32.594C77.9687 31.7408 80.4534 30.9906 80.4534 30.9906L80.4551 30.9873Z" fill="#C2E6E9"/>
<path d="M81.9805 30.9873C82.7622 30.9873 84.8022 30.6022 89.0978 33.8023C89.0978 33.8023 87.0247 44.5182 87.1425 49.6022C87.2604 54.6862 88.9019 60.982 88.9019 60.982C88.9019 60.982 87.0628 63.6028 82.6444 63.9149C82.6444 63.9149 80.9248 53.0048 81.0028 45.9655C81.0825 38.9262 83.9955 31.6661 83.8428 31.3176C83.6884 30.969 81.9821 30.9873 81.9821 30.9873H81.9805Z" fill="#C2E6E9"/>
<path d="M80.289 34.0081L81.494 34.1028C81.6932 34.1177 81.7861 34.3567 81.65 34.5028L80.8185 35.4024C80.7703 35.4538 80.7089 35.4787 80.6475 35.4787C80.606 38.1726 80.3653 50.5682 79.4641 53.5459C79.245 54.2713 78.8499 54.8655 78.0881 54.7609C77.5702 54.6896 77.1718 53.9576 77.0872 53.038C76.7353 49.2287 79.5703 39.3694 80.5363 35.4539C80.4848 35.429 80.4417 35.3841 80.4201 35.3244L80.0467 34.3301C79.9852 34.1658 80.1147 33.9949 80.289 34.0081Z" fill="#60728B"/>
<path d="M79.6883 29.92C79.6883 29.92 79.9456 31.3973 79.6717 32.5907C79.4592 33.5169 80.2012 33.8621 80.7871 33.8621C82.1896 33.8621 83.2038 32.5608 83.6918 31.7641C83.8063 31.5765 83.8594 31.3591 83.8478 31.14C83.7997 30.3134 83.715 28.1058 84.1184 27.344C84.1184 27.344 81.4809 30.2155 79.6916 29.9217L79.6883 29.92Z" fill="#EE706B"/>
<path d="M80.7506 31.53C82.1979 31.4371 83.0992 30.2437 83.8378 28.7365C83.8777 28.1639 83.959 27.6411 84.1167 27.3423C84.1167 27.3423 81.4792 30.2138 79.6899 29.92C79.6899 29.92 79.8045 30.5756 79.7995 31.3657C80.0933 31.54 80.4435 31.5499 80.7506 31.53Z" fill="#D96361"/>
<path d="M85.1606 23.3919C85.2221 24.4426 84.9598 25.5464 84.4486 26.5705C83.3763 28.7216 82.2609 30.7997 80.2575 30.7997C79.8143 30.7997 79.2932 30.7366 78.9861 30.252C78.762 29.8984 78.7255 29.2096 78.5662 28.7067C78.3105 27.9017 78.0367 27.246 78.0234 26.3896C78.0201 26.1273 78.211 25.6526 78.1861 25.3937C78.1114 24.6451 77.8076 24.7779 77.8076 23.4085C77.8076 21.176 78.5213 20.5851 81.1605 20.5851C83.061 20.5851 85.0544 21.5329 85.1606 23.3936V23.3919Z" fill="#EE706B"/>
<path d="M77.9968 21.4101C78.2441 23.3571 81.1372 22.2915 81.9588 21.9263C82.7804 21.5611 83.051 23.5297 82.7472 24.3198C82.4435 25.1115 82.5348 26.2966 82.5348 26.2966L83.295 25.87C83.295 25.87 83.3348 24.6833 83.9324 24.592C84.5316 24.5023 84.998 25.7472 83.9324 26.8128C82.8684 27.8768 83.8726 28.456 84.1465 28.2419C84.1465 28.2419 84.2859 27.0867 84.5498 26.6601C84.8154 26.2335 85.5756 25.1995 85.6353 24.5621C85.6968 23.9231 85.7764 22.1537 85.4229 21.3686C85.0992 20.6499 83.8112 19.2689 82.5945 19.3602C79.6035 19.5843 78.7072 20.5935 77.9968 21.4084V21.4101Z" fill="black"/>
<path d="M51.2056 102.059C50.1566 101.606 48.8105 101.664 47.6353 101.659C46.173 101.653 44.7124 101.669 43.2501 101.691C38.0963 101.767 31.0736 102.074 26.1506 101.902C22.5653 101.775 22.3794 101.795 24.7181 103.527C25.2559 103.925 26.0825 103.588 26.8078 103.618C32.2886 103.84 33.97 101.975 38.7353 102.614C41.4392 102.977 44.0833 103.625 46.8519 103.691C48.1349 103.721 49.4827 103.636 50.6911 103.304C51.0662 103.201 51.4894 103.019 51.6488 102.738C51.8148 102.444 51.5442 102.205 51.2056 102.059Z" fill="#001136" fill-opacity="0.360784"/>
<path d="M47.7997 54.0007C47.0494 53.9061 46.2942 54.0107 45.5921 54.2846L45.5705 54.2995C45.5522 54.2746 45.534 54.2497 45.5157 54.2265C45.4726 54.1684 45.378 54.2281 45.4195 54.2879C45.5954 54.5302 45.783 54.7858 46.0668 54.902C46.1946 54.9535 46.3224 54.9701 46.4569 54.9502C46.656 54.9219 46.8104 54.9087 47.0079 54.9551C47.1523 54.9883 47.2619 55.0033 47.4046 54.9701C47.4959 54.9485 47.5806 54.9103 47.6718 54.8871C47.8378 54.8439 47.9275 54.8705 48.0818 54.9087C48.2959 54.9618 48.5034 54.9767 48.6395 54.7626C48.9798 54.2215 48.13 54.0439 47.798 54.004L47.7997 54.0007Z" fill="#FAA28E"/>
<path d="M46.4502 54.0572C46.4021 54.2796 46.354 54.5003 46.3058 54.7227C46.2909 54.7941 46.4004 54.824 46.4154 54.7526C46.4635 54.5302 46.5117 54.3078 46.5598 54.087C46.5747 54.0157 46.4652 53.9841 46.4502 54.0572Z" fill="#DE7552"/>
<path d="M42.3155 34.7849C42.3155 34.7849 44.3986 35.4887 45.0044 36.0182C45.6102 36.5477 47.3099 40.1047 47.3879 42.7156C47.4643 45.3265 47.5771 47.2187 45.0426 46.6494C42.508 46.0817 42.0549 46.9913 41.2217 45.1738C40.3884 43.3579 39.3029 40.9379 39.5054 40.2375C39.7079 39.537 42.3171 34.7849 42.3171 34.7849H42.3155Z" fill="#EE4E36"/>
<path d="M46.89 97.8367L47.0859 100.403L46.6626 101.463L45.5622 100.798L44.2891 97.455L46.89 97.8367Z" fill="#FFAE94"/>
<path d="M51.2785 101.853C51.2735 102.038 46.3538 103.146 46.143 103.11C45.9322 103.073 45.8642 102.78 45.7496 102.371C45.6334 101.96 45.3828 100.326 45.3828 100.326L46.8484 99.9895C46.8484 99.9895 46.8584 99.6625 47.1588 99.694C47.4609 99.7256 47.7315 99.9812 47.8261 100.048C47.8443 100.059 47.9589 100.097 48.1315 100.155C48.1464 100.159 48.1597 100.164 48.1763 100.169C48.1962 100.175 48.2195 100.182 48.241 100.19C48.2576 100.194 48.2726 100.2 48.2892 100.205C48.4402 100.252 48.6211 100.307 48.8137 100.366C48.8502 100.376 48.885 100.388 48.9249 100.399C48.9365 100.403 48.9481 100.404 48.9597 100.409C48.9962 100.421 49.0344 100.433 49.0726 100.444C49.9141 100.695 50.8934 100.98 51.0096 101.017C51.2171 101.082 51.2835 101.673 51.2802 101.857L51.2785 101.853Z" fill="#343B57"/>
<path d="M23.9348 97.9214L22.4957 100.056L21.5065 100.625L21.0566 99.4202L22.1305 96.0076L23.9348 97.9214Z" fill="#FFAE94"/>
<path d="M24.8858 103.794C24.7663 103.935 20.2184 101.756 20.0756 101.596C19.9345 101.437 20.0607 101.165 20.2267 100.771C20.391 100.378 21.206 98.9388 21.206 98.9388L22.567 99.5829C22.567 99.5829 22.7762 99.3322 22.9903 99.543C23.2094 99.7538 23.2641 100.124 23.2957 100.235C23.3023 100.255 23.3671 100.356 23.4683 100.506C23.4783 100.521 23.4882 100.537 23.4998 100.552C23.5098 100.567 23.5214 100.585 23.5314 100.602C23.5413 100.617 23.553 100.634 23.5629 100.648C23.6542 100.778 23.7588 100.931 23.8733 101.093C23.8949 101.125 23.9165 101.156 23.9397 101.19C23.9563 101.211 23.9712 101.234 23.9862 101.258C24.0077 101.289 24.031 101.322 24.0526 101.354C24.5522 102.063 25.1231 102.868 25.1912 102.967C25.314 103.145 25.0003 103.651 24.8841 103.795L24.8858 103.794Z" fill="#343B57"/>
<path d="M44.2808 27.8452C44.1795 27.5929 44.065 27.334 44.0617 27.0585C44.06 26.7647 44.2094 26.5141 44.2725 26.2335C44.3887 25.7256 43.982 25.319 43.9737 24.8111C43.9704 24.5438 44.0451 24.2799 43.9903 24.0144C43.9405 23.7886 43.811 23.5861 43.67 23.4069C43.4359 23.1131 43.167 22.8458 42.8766 22.6052C42.8483 22.5587 42.8201 22.5122 42.7869 22.4657C42.274 21.752 41.2068 21.5479 40.3868 21.4831C39.849 21.44 39.3079 21.4682 38.7702 21.5279C38.2871 21.5811 37.7826 21.6325 37.3195 21.7852C36.4647 22.0674 35.5883 22.6931 35.1534 23.4915C35.0936 23.5994 35.0422 23.7123 34.9974 23.8268C34.6272 24.2418 34.4264 24.8111 34.4015 25.3721C34.3733 25.9779 34.5144 26.5755 34.6853 27.1514C34.8613 27.7407 35.0422 28.3365 35.2779 28.9042C35.3476 29.0702 35.4223 29.2312 35.5036 29.3905C35.3476 29.3756 35.1883 29.3889 35.0356 29.437C34.7584 29.5233 34.5343 29.7789 34.6555 30.0578C34.2355 30.1789 33.877 30.5109 33.6529 30.8794C33.3956 31.3043 33.6164 31.7392 33.9069 32.0844C34.2488 32.4944 34.682 32.516 35.1766 32.423C35.5036 32.3633 35.897 32.2537 36.0248 31.9467C36.2356 31.8819 36.4398 31.7525 36.5394 31.6263C36.712 31.4072 36.7352 30.9923 36.7485 30.7217C36.7502 30.6702 36.7502 30.6188 36.7468 30.5707C36.8199 30.5275 36.8896 30.4694 36.9543 30.418C37.9651 29.6312 38.9693 28.8312 39.9254 27.978C40.4449 27.5182 40.9229 27.0485 41.3545 26.5041C41.5636 26.2402 41.7894 25.9912 42.0234 25.7539C42.1811 26.1655 42.2409 26.5838 42.3039 27.0386C42.3487 27.3606 42.3753 27.9813 42.7305 28.139C42.943 28.2336 43.2401 28.0809 43.4061 28.305C43.5023 28.4345 43.4874 28.627 43.5554 28.7714C43.6965 29.0718 43.9986 29.0021 44.2094 28.8096C44.543 28.5042 44.4285 28.232 44.2741 27.8485L44.2808 27.8452Z" fill="black"/>
<path d="M42.9496 28.8046C42.5645 31.4421 41.952 32.8994 39.9503 32.7234C39.9021 32.7185 39.8523 32.7151 39.8042 32.7118C38.0348 32.5608 36.7269 32.5077 36.2737 30.4594C36.2704 30.4428 36.2671 30.4279 36.2621 30.4113C36.2273 30.2437 36.1991 30.0644 36.1742 29.8685C35.8405 27.1697 37.2896 23.0201 37.2896 23.0201C37.2896 23.0201 41.7163 23.0633 42.4715 23.4069C42.7072 23.5147 42.8964 24.0226 43.0076 24.7712C43.162 25.7987 43.1687 27.2809 42.9462 28.8063L42.9496 28.8046Z" fill="#FAA28E"/>
<path d="M40.0732 32.4297C40.0732 32.4297 39.9554 32.5292 39.806 32.7102C39.64 32.9077 39.4358 33.2065 39.313 33.5749C39.2815 33.6712 39.2549 33.7741 39.2367 33.8803C39.1122 34.599 39.1022 36.5543 39.1022 36.5543L36.3668 37.2348L33.8323 35.419C33.8323 35.419 34.3252 34.7335 35.2315 33.3326C35.8091 32.4429 36.1129 31.2313 36.2556 30.4694C36.2589 30.4495 36.2623 30.4279 36.2656 30.4097C36.3403 30.008 36.3668 29.7424 36.3668 29.7424L36.5013 29.8387L40.0749 32.428L40.0732 32.4297Z" fill="#FAA28E"/>
<path d="M39.8059 32.7102C39.6399 32.9077 39.4357 33.2065 39.3129 33.5749C39.2714 33.55 39.2266 33.5202 39.1835 33.4903C38.3137 32.8562 37.9917 31.8155 37.9917 31.8155C37.9917 31.8155 38.2224 32.0164 38.7104 32.2604C39.2764 32.5425 39.8042 32.7102 39.8042 32.7102H39.8059Z" fill="#DE7552"/>
<path d="M41.6931 30.1457C41.406 30.2802 41.0972 30.3432 40.7802 30.32C40.4715 30.2984 40.0316 30.1955 39.8374 29.9333C39.7943 29.8752 39.6963 29.9316 39.7395 29.9914C39.9403 30.2636 40.3553 30.3847 40.6773 30.4246C41.0491 30.4711 41.4126 30.403 41.7496 30.2453C41.8159 30.2138 41.7579 30.1159 41.6931 30.1474V30.1457Z" fill="#DE7552"/>
<path d="M42.7073 23.3023C41.9505 22.9587 37.1602 22.8674 37.1602 22.8674C37.1602 22.8674 35.7128 27.1182 36.0432 29.8154C36.0664 30.0113 36.2573 30.4478 36.254 30.4694L36.2755 30.4578L36.2855 30.4445C36.3801 30.247 36.4498 30.0461 36.4996 29.8403C36.5959 29.4569 36.6374 28.6021 36.6374 28.6021C36.6374 28.6021 36.2672 27.9697 36.3834 27.4319C36.5046 26.8709 36.9345 26.5987 37.3013 26.7547C37.2913 26.9605 37.1967 27.1448 37.1486 27.3456C37.0988 27.5564 37.0971 27.9763 37.3959 28.0195C37.6698 28.0593 37.6997 27.656 37.7827 27.4933C37.947 27.1713 38.2208 26.9224 38.3603 26.5871C38.5296 26.1787 38.3769 25.7505 38.4781 25.3339C38.6209 24.738 39.2715 24.6102 39.7944 24.577C40.3106 24.5438 40.8317 24.5372 41.3496 24.5438C41.6168 24.5471 42.7306 24.4725 43.0144 24.7679C42.9015 24.0193 42.9447 23.4085 42.709 23.3006L42.7073 23.3023Z" fill="black"/>
<path d="M42.5497 30.725C42.5497 30.725 42.0617 31.9052 41.7795 32.1591C41.4525 32.4562 40.7255 32.5658 40.3521 32.4844L40.3238 32.4761C40.0815 32.4297 39.8641 32.272 39.6383 32.1176C39.2931 31.8836 39.0491 31.6479 38.9147 31.2412C38.7537 30.7516 38.4682 30.3632 38.3736 29.8519C38.2839 29.3706 38.1379 28.944 38.108 28.4627C38.0648 28.2668 38.0598 26.9157 38.0482 26.7182C38.0432 26.6518 37.9586 26.6435 37.9354 26.7016C37.8324 26.9639 37.8856 28.4179 37.8739 28.6884C37.859 28.9805 37.864 29.2727 37.9287 29.5598C37.9619 29.8138 38.025 30.0644 38.1213 30.3184C38.2723 30.7184 38.1926 31.1682 38.3669 31.5533C38.4665 31.7757 38.6341 31.935 38.7122 32.174C38.7636 32.335 38.84 32.4712 38.9644 32.5857C39.2566 32.8496 39.6483 32.8994 40.0251 32.9127C40.2027 32.9625 40.3936 32.9907 40.5678 32.9641C40.6724 32.9459 40.7454 32.9027 40.8367 32.8662C40.9695 32.8164 41.1305 32.8347 41.2567 32.7799C41.3297 32.7467 41.3695 32.6753 41.4193 32.6189C41.5305 32.4944 41.7347 32.4413 41.8675 32.3417C42.0799 32.1857 42.1928 31.9682 42.3339 31.7458C42.4003 31.6429 42.548 30.7283 42.548 30.7283L42.5497 30.725Z" fill="black"/>
<path d="M40.6658 23.5297C39.7612 22.6716 38.4731 22.318 37.2582 22.5935C37.1868 22.6085 37.2167 22.718 37.288 22.7014C38.4648 22.4359 39.7114 22.7794 40.5861 23.6094C40.6392 23.6608 40.7189 23.5795 40.6658 23.5297Z" fill="#14192B"/>
<path d="M40.2225 23.8484C39.8457 23.4732 39.3776 23.2326 38.9063 23.0002C38.8399 22.9687 38.7834 23.0666 38.8482 23.0998C39.3129 23.3255 39.7727 23.5595 40.1412 23.9297C40.1926 23.9811 40.274 23.9015 40.2225 23.8484Z" fill="#14192B"/>
<path d="M42.621 24.2799C42.4799 23.7172 42.3222 23.1512 41.9106 22.7197C41.8608 22.6666 41.7795 22.7463 41.8293 22.7994C42.226 23.216 42.3754 23.767 42.5098 24.3098C42.5281 24.3812 42.6376 24.3513 42.6194 24.2799H42.621Z" fill="#14192B"/>
<path d="M36.073 30.0711C35.9485 29.935 35.7045 29.7408 35.7626 29.5333C35.7825 29.4619 35.673 29.432 35.6547 29.5034C35.58 29.7656 35.8356 29.9798 35.9933 30.1524C36.0431 30.2072 36.1228 30.1258 36.073 30.0711Z" fill="#14192B"/>
<path d="M42.1148 43.3082C40.9131 44.0501 39.7496 54.8755 39.4757 55.4315C39.2002 55.9892 29.1184 54.6282 29.1184 54.6282C29.1184 54.6282 29.4919 41.8824 29.4919 41.2035C29.4919 40.5213 29.3425 34.9891 29.5898 34.5244C29.6745 34.365 31.0803 34.1326 31.8853 33.8986C32.2505 33.7907 32.6505 33.6845 33.0472 33.5816C34.3336 33.2496 35.4872 32.8811 35.4872 32.8811C35.4872 32.8811 36.4781 33.9069 37.5304 34.2173C38.5794 34.526 39.2151 34.0115 39.2151 34.0115C39.2151 34.0115 40.3587 34.1426 41.0907 34.3733C41.4957 34.5011 41.9306 34.6472 42.3124 34.7866C42.885 34.9957 43.3282 35.1949 43.3431 35.3095C43.3846 35.6381 43.3149 42.5679 42.1132 43.3098L42.1148 43.3082Z" fill="#EE4E36"/>
<path d="M41.68 52.2662C41.4775 52.2347 41.2717 52.2031 41.0675 52.1749C41.114 51.9757 41.1571 51.7749 41.202 51.5741C41.2202 51.4977 41.1007 51.4629 41.0824 51.5409C41.036 51.7467 40.9912 51.9525 40.9447 52.1583C40.1861 52.0587 39.4176 52.0156 38.6707 52.2048C38.1379 52.3392 37.6433 52.5749 37.0922 52.6281C36.5345 52.6779 35.9735 52.5949 35.4224 52.5218C34.3568 52.3824 33.3228 52.4554 32.2555 52.55C31.9202 52.5783 31.5816 52.6048 31.2447 52.6148C31.2081 52.6164 31.17 52.6164 31.1351 52.6181C30.428 52.6297 29.7259 52.5683 29.0487 52.321C29.0089 52.3044 28.974 52.3442 28.9707 52.3791C28.7831 54.0157 28.2171 55.2589 28.2171 56.9054C27.6379 60.2782 26.954 64.0078 26.4278 67.3856C26.154 69.1549 25.8336 70.9309 25.7457 72.7219C25.6992 73.6165 25.739 74.5145 25.734 75.4108C25.7307 76.3403 25.6328 77.2466 25.4618 78.1611C25.2859 79.1172 25.1199 80.0583 25.1182 81.031C25.1166 81.2833 25.1232 81.5372 25.1348 81.7912C24.5539 82.7174 24.0012 83.6618 23.563 84.666C22.9422 86.0885 22.7231 87.6039 22.2949 89.0844C21.8965 90.4621 21.2193 91.7269 20.5919 93.0099C20.0209 94.1784 19.3852 95.4698 19.2657 96.7844C19.2242 97.2309 19.8251 97.4533 20.3894 97.6027C20.4193 97.6093 20.4475 97.6176 20.4757 97.6276C20.7479 97.6956 21.0035 97.7537 21.1645 97.8118L24.2136 99.0285C24.2385 99.0384 24.2717 99.0218 24.2834 99.0002C25.5681 96.8026 26.8544 94.6 27.9897 92.3194C29.1184 90.0505 30.0944 87.7068 31.0521 85.3631C32.0447 82.9315 33.0472 80.5065 34.0182 78.0665C34.9693 75.678 36.2806 71.4206 36.9495 68.9375C37.635 66.383 37.3711 65.427 38.0499 62.8708C38.9761 61.6708 39.2832 60.0707 39.6118 58.6167C40.0865 56.5104 40.5613 54.4074 41.036 52.3011C41.2368 52.326 41.441 52.3558 41.6435 52.3874C41.7215 52.399 41.7547 52.2812 41.6767 52.2679L41.68 52.2662Z" fill="#002B60"/>
<path d="M47.534 98.2682C46.0783 98.806 44.5148 98.9803 42.9396 99.0268C42.5611 98.4857 42.3537 97.762 42.1744 97.186C41.8026 95.9943 41.6001 94.7577 41.3943 93.5294C41.1752 92.2265 40.9461 90.9252 40.7055 89.6255C40.2241 87.0213 38.9294 84.246 38.3601 81.6617C38.0481 80.2509 37.7244 78.845 37.3858 77.4408C36.9576 75.6565 36.5078 73.8788 36.0364 72.1028V72.1011C35.6264 70.5591 35.2015 69.0188 34.76 67.4818C34.599 67.7325 34.4197 67.9748 34.2172 68.2038C34.1641 68.2636 34.0745 68.1756 34.1276 68.1126C34.3467 67.8636 34.5392 67.5997 34.7135 67.3225C34.6122 66.9739 34.5143 66.6237 34.4114 66.2751C34.3882 66.1955 34.511 66.1639 34.5342 66.2419C34.6255 66.5523 34.7135 66.8644 34.8031 67.1748C35.243 66.4278 35.5318 65.5996 35.7276 64.7448C36.2289 62.5472 36.9675 60.4425 37.5817 58.2648C38.2141 56.0224 39.3842 53.9493 40.9677 52.243C41.0042 52.2048 43.4475 49.3184 43.4475 49.3184C43.4475 49.3184 44.0019 58.9437 44.3604 62.2019C44.6824 65.1398 45.5156 73.502 45.7795 76.4465C46.0617 79.5853 47.358 92.1286 47.534 98.2699V98.2682Z" fill="#002B60"/>
<path d="M43.4476 63.2858C43.4476 63.2858 39.8475 54.8223 38.4283 54.8506C37.4939 54.8705 33.6763 53.7883 31.1865 53.0496C31.1517 53.0397 31.1151 53.0297 31.082 53.0181C29.8504 52.6529 28.969 52.3774 28.969 52.3774C28.969 52.3774 29.1217 47.6718 29.2644 47.3896C29.3624 47.1905 30.5458 46.8535 31.306 46.5614C31.3442 46.5465 31.3807 46.5332 31.4172 46.5182C31.6878 46.4087 31.8853 46.3091 31.9318 46.2261C32.1027 45.9141 33.1235 40.0117 33.1235 39.8125C33.1235 39.615 36.0465 39.9835 37.6067 40.0399C39.167 40.0964 42.5165 39.8457 42.7987 40.0399C43.0825 40.2358 42.8269 45.3182 42.8551 46.8801C42.8833 48.4403 43.4476 63.2874 43.4476 63.2874V63.2858Z" fill="#001136"/>
<path d="M31.2628 52.4455L31.2429 52.6115C31.2246 52.7575 31.2064 52.9036 31.1881 53.048C30.9641 54.8224 30.7134 56.5934 30.3931 58.3528C30.0329 60.3529 29.4503 62.3215 29.1947 64.3365C29.0702 65.3158 29.0602 66.3034 29.0337 67.2893C29.0071 68.2752 28.9374 69.2545 28.8113 70.2322C28.3664 73.673 27.4004 77.0258 27.0203 80.4733C27.2826 80.2974 27.5282 80.0965 27.7523 79.8691C27.8037 79.8177 27.8834 79.8973 27.8336 79.9488C27.5813 80.2027 27.3025 80.4268 27.0054 80.6177C26.9639 81.0078 26.929 81.3962 26.9058 81.7895C26.846 82.7522 26.768 83.6934 26.4609 84.6146C26.1622 85.5125 25.7339 86.364 25.3372 87.2221L22.7662 92.7494C22.0126 94.3677 21.2192 95.9844 20.4806 97.6243C20.4524 97.616 20.4225 97.6077 20.3943 97.5994C20.4706 97.4334 20.5453 97.2657 20.6217 97.0998C21.4599 95.2756 22.3114 93.4598 23.1596 91.6389C24.0127 89.8032 24.8742 87.9707 25.719 86.1316C26.1373 85.2237 26.519 84.2942 26.6634 83.2983C26.7879 82.4385 26.8062 81.5655 26.8825 80.699C26.5356 80.9065 26.1638 81.0692 25.7705 81.187C25.6991 81.2069 25.6709 81.0991 25.7389 81.0791C26.1522 80.9563 26.539 80.7804 26.8975 80.5546C26.9041 80.4683 26.9141 80.3803 26.9224 80.2924C27.3539 76.4482 28.5357 72.7252 28.8461 68.8612C28.9274 67.8653 28.9241 66.8661 28.9656 65.8668C29.0038 64.9158 29.115 63.978 29.2976 63.0451C29.6793 61.0899 30.1607 59.1611 30.4844 57.1926C30.7134 55.805 30.9109 54.4107 31.0869 53.0165C31.1035 52.882 31.1184 52.7492 31.1367 52.6148C31.1948 52.1351 31.2512 51.6571 31.3043 51.1774C31.4753 49.6454 31.5815 48.0785 31.3093 46.5598C31.3475 46.5448 31.384 46.5315 31.4205 46.5166C31.4388 46.6129 31.4537 46.7075 31.4686 46.8038C31.7508 48.6777 31.4952 50.5799 31.2661 52.4455H31.2628Z" fill="#1F3E73"/>
<path d="M33.5767 40.2375C33.5767 40.2375 33.6049 38.0797 33.263 36.3219C33.0356 35.1501 32.3318 34.3219 31.887 33.8986C32.2521 33.7907 32.6521 33.6845 33.0488 33.5816C33.4522 34.0281 34.0597 34.8165 34.3153 35.7261C34.712 37.1452 34.7419 40.2391 34.7419 40.2391H33.5783L33.5767 40.2375Z" fill="#002B60"/>
<path d="M42.2309 41.1736C42.2309 41.1736 41.1537 41.2583 41.2002 41.1736C41.245 41.089 41.3512 39.6698 41.4209 37.429C41.4691 35.897 41.2417 34.8696 41.0923 34.3716C41.4973 34.4994 41.9322 34.6455 42.3139 34.7849C42.4301 35.3443 42.4367 36.5543 42.4799 37.4274C42.5297 38.4764 42.2293 41.1719 42.2293 41.1719L42.2309 41.1736Z" fill="#002B60"/>
<path d="M34.6271 40.7205C34.6271 40.4533 34.4114 40.2375 34.1441 40.2375C33.8769 40.2375 33.6611 40.4533 33.6611 40.7205C33.6611 40.9877 33.8769 41.2035 34.1441 41.2035C34.4114 41.2035 34.6271 40.9877 34.6271 40.7205Z" fill="white"/>
<path d="M42.352 40.7205C42.352 40.4533 42.1362 40.2375 41.869 40.2375C41.6018 40.2375 41.386 40.4533 41.386 40.7205C41.386 40.9877 41.6018 41.2035 41.869 41.2035C42.1362 41.2035 42.352 40.9877 42.352 40.7205Z" fill="white"/>
<path d="M31.8521 54.4174H54.0257V41.9786H31.8521V54.4174Z" fill="#F5B785"/>
<path d="M40.7437 54.4173H54.0256V41.977H40.7437V54.4173Z" fill="#FFCDA4"/>
<path d="M43.4941 54.4173H43.6087V41.977H43.4941V54.4173Z" fill="white"/>
<path d="M30.6834 50.5948L33.8786 54.0273L34.4844 55.2755H32.5839L28.2136 52.8073L30.6834 50.5948Z" fill="#FAA28E"/>
<path d="M31.7674 37.5768C31.8387 37.3079 31.8968 37.0357 31.9367 36.7618C32.0064 36.2655 32.0562 35.6912 31.7242 35.2746C31.4354 34.9111 29.8768 34.3883 29.8071 34.4131C28.9623 34.7252 28.3896 35.2265 27.817 36.0763C27.5315 36.5012 26.2003 38.6889 26.0011 39.1602C25.782 39.6798 24.0807 44.8601 23.8234 45.3597C23.4035 46.1763 22.6533 47.6021 22.8906 48.515C22.9885 48.8951 23.1778 49.2586 23.4682 49.5259C23.6126 49.6586 23.777 49.745 23.9429 49.8462C24.2633 50.0437 24.2417 50.374 24.3679 50.6894C24.7231 51.5708 25.6658 52.0521 26.4377 52.5069C27.0053 52.8405 27.5647 53.2289 28.1556 53.5177C28.2635 53.5708 28.3548 53.5941 28.4643 53.5294C28.5788 53.4613 28.6651 53.3186 28.7515 53.2206C28.8743 53.0779 28.9971 52.9368 29.1199 52.7941C29.3673 52.5102 30.5042 51.3649 30.7515 51.0811C30.8744 50.9384 31.0354 50.7973 31.0022 50.5931C30.9607 50.3375 30.7515 50.052 30.6254 49.8296C30.471 49.5557 30.1042 49.4611 29.9283 49.2022C29.5449 48.6445 29.032 48.037 28.5556 47.559C28.5921 47.4096 28.612 47.2552 28.622 47.1008C28.9822 46.817 29.1017 46.6295 29.4469 46.3257C29.759 46.0518 30.1274 45.8427 30.408 45.5307C30.6354 45.2734 30.8013 44.968 30.9325 44.651C31.2694 43.841 31.4885 42.9679 31.6827 42.1147C31.8819 41.2466 32.0628 40.352 32.0827 39.4574C32.0977 38.815 32.0097 38.1677 31.7674 37.5768Z" fill="#EE4E36"/>
<path d="M33.4387 53.8298C33.4387 53.8298 35.5434 53.521 36.209 53.5675C36.8729 53.6123 37.8273 53.6505 38.1825 53.8298C38.5361 54.0107 38.1825 54.2563 37.6265 54.2364C37.0721 54.2165 36.4961 54.4173 36.4961 54.4173H39.2763C39.2763 54.4173 39.2763 54.8788 38.7668 55.0315C38.2572 55.1825 38.6788 55.297 37.814 55.4282C36.9493 55.561 35.4106 55.863 34.1906 55.6556C32.9707 55.4464 32.5823 55.2771 32.5823 55.2771V54.6447L33.4371 53.8298H33.4387Z" fill="#FAA28E"/>
<path d="M36.3701 54.4074C36.1759 54.4389 35.9834 54.4705 35.7892 54.5003C35.7178 54.512 35.746 54.6215 35.819 54.6099C36.0116 54.5783 36.2041 54.5485 36.4 54.5169C36.4713 54.5053 36.4415 54.3958 36.3701 54.4074Z" fill="#DE7552"/>
<path d="M38.717 54.8074C38.3551 54.829 38.0066 54.9236 37.6464 54.9601C37.2796 54.9966 36.9128 54.995 36.5443 54.9651C36.4712 54.9585 36.4712 55.073 36.5443 55.078C36.9128 55.1078 37.2796 55.1095 37.6464 55.0746C38.0049 55.0381 38.3568 54.9419 38.717 54.9203C38.7884 54.917 38.7884 54.8041 38.717 54.8074Z" fill="#DE7552"/>
<path d="M38.7702 69.7292C38.1544 71.2812 38.3071 70.5243 38.3818 73.1717C38.4498 75.5602 38.1195 76.41 37.3875 77.4408C36.9593 75.6565 36.5095 73.8788 36.0381 72.1028V72.1011L38.1178 64.5456C38.1178 64.5456 39.3843 68.1773 38.7702 69.7276V69.7292Z" fill="#001136"/>
<path d="M39.8374 58.2499C39.5436 60.23 38.9992 62.1654 38.2157 64.0078C38.1875 64.0742 38.2855 64.1323 38.3137 64.0642C39.1021 62.2119 39.6515 60.2715 39.9469 58.2797C39.9569 58.2084 39.8474 58.1768 39.8374 58.2499Z" fill="#1F3E73"/>
<path d="M30.7167 39.2748C30.6105 38.7519 30.6686 38.254 30.647 37.7278C30.6121 36.8614 30.0677 36.2804 29.4619 35.7211C29.4088 35.6713 29.3274 35.751 29.3822 35.8008C29.686 36.0829 29.9963 36.3701 30.2221 36.7203C30.4744 37.1153 30.5424 37.5369 30.5341 37.9967C30.5275 38.4249 30.5142 38.8349 30.5972 39.2582C30.6802 39.6847 30.8229 40.1263 30.7482 40.5628C30.6769 40.9811 30.3217 41.2317 30.2138 41.6267C30.1109 42.0002 30.1806 42.4384 30.1939 42.8185C30.2271 43.7314 30.2105 44.7057 29.6162 45.4543C29.5714 45.5107 29.6511 45.5921 29.6959 45.534C30.2254 44.87 30.3267 44.0285 30.3167 43.2036C30.3101 42.7172 30.1922 42.133 30.3217 41.6566C30.4362 41.2334 30.8097 40.9811 30.8661 40.5246C30.9192 40.103 30.7947 39.6831 30.7134 39.2748H30.7167Z" fill="#14192B"/>
<path d="M28.1638 46.968C27.4186 46.6311 26.6036 46.5597 25.8119 46.7655C25.7405 46.7855 25.7704 46.8934 25.8417 46.8751C26.6019 46.6759 27.3904 46.7407 28.1057 47.066C28.1721 47.0959 28.2302 46.9979 28.1638 46.968Z" fill="#14192B"/>
<path d="M27.7888 47.0428C26.8361 47.0245 25.8933 47.1407 24.9737 47.3913C24.9024 47.4112 24.9322 47.5208 25.0036 47.5009C25.9132 47.2535 26.8444 47.1374 27.7888 47.1556C27.8602 47.1589 27.8602 47.0444 27.7888 47.0428Z" fill="#14192B"/>
<path d="M38.9012 34.5742C38.302 34.8082 37.6298 34.8945 37.0073 34.697C36.3202 34.4796 35.877 33.9219 35.4621 33.3658C35.4189 33.3077 35.3193 33.3642 35.3641 33.4222C35.7774 33.9766 36.2189 34.536 36.8945 34.7767C37.5551 35.0124 38.2887 34.9327 38.9311 34.6804C38.9991 34.6555 38.9693 34.5443 38.9012 34.5725V34.5742Z" fill="#14192B"/>
<path d="M45.0874 36.8332C44.7455 37.6199 44.9413 38.4747 44.7621 39.2914C44.6691 39.7146 44.4019 40.0466 44.2641 40.4499C44.1264 40.8599 44.143 41.3047 44.1596 41.7297C44.1629 41.8027 44.2758 41.8027 44.2724 41.7297C44.2542 41.2533 44.2376 40.7603 44.4384 40.3155C44.5911 39.9769 44.7903 39.6897 44.87 39.3213C45.0459 38.5179 44.8484 37.6631 45.182 36.8896C45.2102 36.8232 45.1123 36.7651 45.0841 36.8332H45.0874Z" fill="#14192B"/>
<path d="M45.5571 37.7826C45.4227 38.5328 45.2202 39.2648 44.9463 39.9752C44.9214 40.0449 45.0309 40.0732 45.0558 40.0051C45.328 39.293 45.5322 38.5627 45.6666 37.8125C45.6783 37.7411 45.5704 37.7112 45.5571 37.7826Z" fill="#14192B"/>
<path d="M47.9425 101.419C47.9458 101.492 47.8329 101.492 47.8296 101.419C47.8097 100.937 47.9425 100.517 48.1765 100.167C48.1964 100.174 48.2197 100.18 48.2412 100.189C48.2578 100.192 48.2728 100.199 48.2894 100.204C48.057 100.541 47.9225 100.947 47.9425 101.419Z" fill="#FCEADE"/>
<path d="M48.7973 101.545C48.8006 101.618 48.6877 101.616 48.6844 101.545C48.6662 101.113 48.7707 100.733 48.96 100.406C48.9965 100.418 49.0346 100.429 49.0728 100.441C48.8853 100.756 48.7807 101.125 48.799 101.543L48.7973 101.545Z" fill="#FCEADE"/>
<path d="M23.5645 100.648C23.2906 100.75 23.0317 100.917 22.8059 101.161C22.7561 101.214 22.6765 101.133 22.7246 101.08C22.957 100.833 23.2192 100.658 23.5014 100.552C23.5114 100.567 23.523 100.585 23.5329 100.602C23.5429 100.617 23.5545 100.634 23.5645 100.648Z" fill="#FCEADE"/>
<path d="M24.0558 101.354C23.7886 101.457 23.5379 101.621 23.3172 101.858C23.2674 101.912 23.1894 101.83 23.2375 101.777C23.4616 101.535 23.7172 101.365 23.9894 101.258C24.011 101.289 24.0342 101.322 24.0558 101.354Z" fill="#FCEADE"/>
</g>
<defs>
<clipPath id="clip0_71_735">
<rect width="112" height="112" fill="white"/>
</clipPath>
</defs>
</svg>
