<svg width="21" height="21" viewBox="0 0 21 21" fill="none" xmlns="http://www.w3.org/2000/svg">
<path fill-rule="evenodd" clip-rule="evenodd" d="M19.0669 15.2917H18.1661V8.58342C18.1661 4.34923 14.7336 0.916748 10.4994 0.916748C6.26522 0.916748 2.83273 4.34923 2.83273 8.58342V15.2917H1.97982C1.45054 15.2917 1.02148 15.7208 1.02148 16.2501C1.02148 16.7794 1.45054 17.2084 1.97982 17.2084H7.6244C7.6244 18.7962 8.91158 20.0834 10.4994 20.0834C12.0872 20.0834 13.3744 18.7962 13.3744 17.2084H19.0669C19.5962 17.2084 20.0252 16.7794 20.0252 16.2501C20.0252 15.7208 19.5962 15.2917 19.0669 15.2917ZM10.4994 18.1667C9.97013 18.1667 9.54107 17.7377 9.54107 17.2084H11.4577C11.4577 17.7377 11.0287 18.1667 10.4994 18.1667ZM4.7494 15.2917H12.4161H16.2494V8.58342C16.2494 5.40778 13.675 2.83341 10.4994 2.83341C7.32376 2.83341 4.7494 5.40778 4.7494 8.58342V15.2917Z" fill="#231F20"/>
<path d="M18.1661 15.2917H17.7661V15.6917H18.1661V15.2917ZM2.83273 15.2917V15.6917H3.23273V15.2917H2.83273ZM7.6244 17.2084H8.0244V16.8084H7.6244V17.2084ZM13.3744 17.2084V16.8084H12.9744V17.2084H13.3744ZM9.54107 17.2084V16.8084H9.14107V17.2084H9.54107ZM11.4577 17.2084H11.8577V16.8084H11.4577V17.2084ZM4.7494 15.2917H4.3494V15.6917H4.7494V15.2917ZM16.2494 15.2917V15.6917H16.6494V15.2917H16.2494ZM18.1661 15.6917H19.0669V14.8917H18.1661V15.6917ZM17.7661 8.58342V15.2917H18.5661V8.58342H17.7661ZM10.4994 1.31675C14.5127 1.31675 17.7661 4.57015 17.7661 8.58342H18.5661C18.5661 4.12832 14.9545 0.516748 10.4994 0.516748V1.31675ZM3.23273 8.58342C3.23273 4.57015 6.48613 1.31675 10.4994 1.31675V0.516748C6.0443 0.516748 2.43273 4.12832 2.43273 8.58342H3.23273ZM3.23273 15.2917V8.58342H2.43273V15.2917H3.23273ZM1.97982 15.6917H2.83273V14.8917H1.97982V15.6917ZM1.42148 16.2501C1.42148 15.9417 1.67146 15.6917 1.97982 15.6917V14.8917C1.22963 14.8917 0.621484 15.4999 0.621484 16.2501H1.42148ZM1.97982 16.8084C1.67146 16.8084 1.42148 16.5584 1.42148 16.2501H0.621484C0.621484 17.0003 1.22963 17.6084 1.97982 17.6084V16.8084ZM7.6244 16.8084H1.97982V17.6084H7.6244V16.8084ZM10.4994 19.6834C9.1325 19.6834 8.0244 18.5753 8.0244 17.2084H7.2244C7.2244 19.0171 8.69067 20.4834 10.4994 20.4834V19.6834ZM12.9744 17.2084C12.9744 18.5753 11.8663 19.6834 10.4994 19.6834V20.4834C12.3081 20.4834 13.7744 19.0171 13.7744 17.2084H12.9744ZM19.0669 16.8084H13.3744V17.6084H19.0669V16.8084ZM19.6252 16.2501C19.6252 16.5584 19.3753 16.8084 19.0669 16.8084V17.6084C19.8171 17.6084 20.4252 17.0003 20.4252 16.2501H19.6252ZM19.0669 15.6917C19.3753 15.6917 19.6252 15.9417 19.6252 16.2501H20.4252C20.4252 15.4999 19.8171 14.8917 19.0669 14.8917V15.6917ZM9.14107 17.2084C9.14107 17.9586 9.74922 18.5667 10.4994 18.5667V17.7667C10.191 17.7667 9.94107 17.5168 9.94107 17.2084H9.14107ZM11.4577 16.8084H9.54107V17.6084H11.4577V16.8084ZM10.4994 18.5667C11.2496 18.5667 11.8577 17.9586 11.8577 17.2084H11.0577C11.0577 17.5168 10.8078 17.7667 10.4994 17.7667V18.5667ZM12.4161 14.8917H4.7494V15.6917H12.4161V14.8917ZM16.2494 14.8917H12.4161V15.6917H16.2494V14.8917ZM15.8494 8.58342V15.2917H16.6494V8.58342H15.8494ZM10.4994 3.23341C13.4541 3.23341 15.8494 5.62869 15.8494 8.58342H16.6494C16.6494 5.18686 13.896 2.43341 10.4994 2.43341V3.23341ZM5.1494 8.58342C5.1494 5.62869 7.54468 3.23341 10.4994 3.23341V2.43341C7.10285 2.43341 4.3494 5.18686 4.3494 8.58342H5.1494ZM5.1494 15.2917V8.58342H4.3494V15.2917H5.1494Z" fill="white"/>
</svg>
