<svg width="17" height="17" viewBox="0 0 17 17" fill="none" xmlns="http://www.w3.org/2000/svg">
<g clip-path="url(#clip0_386_1654)">
<path fill-rule="evenodd" clip-rule="evenodd" d="M3.79023 0.0227581C3.23059 0.145419 2.69085 0.467249 2.15503 0.685035C1.07493 1.12405 0.460753 1.23232 0.104847 2.62587C-0.0217815 3.12152 -0.0261696 3.71981 0.0514058 4.20685C0.288677 5.69631 0.911474 7.01226 1.72594 8.29081C1.87592 8.52628 2.02401 8.73671 2.1776 8.96842C2.33494 9.20577 2.51141 9.41072 2.66718 9.64572C3.0466 10.2182 3.38025 10.4873 3.72205 10.9249C3.88002 11.1272 4.06918 11.3423 4.25176 11.5246C4.4511 11.7236 4.62522 11.9364 4.81688 12.1265L6.02048 13.2196C6.12987 13.3047 6.19287 13.4024 6.31464 13.4901C6.38986 13.5444 6.55551 13.6795 6.62604 13.7436C7.60584 14.6363 9.65774 15.9115 10.8964 16.4021C11.2006 16.5226 11.4677 16.6021 11.7642 16.7019C12.0168 16.787 12.4138 16.8824 12.6837 16.9125L13.4732 16.9907C13.603 16.986 13.5807 16.9549 13.7366 16.9499C14.6017 16.9223 15.6221 16.5592 15.9562 15.7048L16.9805 13.2639C17.1213 12.6996 16.4637 12.4835 15.8934 12.1282C15.5557 11.9178 13.1504 10.4704 12.9708 10.4189C12.649 10.3266 12.3948 10.5502 12.1303 10.6815C11.7148 10.8875 10.1431 11.8383 9.81916 11.8378C9.46122 11.8372 9.32268 11.6216 9.09372 11.393L6.21105 8.51517C5.95011 8.25467 5.18658 7.61633 5.14787 7.28167C5.10666 6.92589 5.31446 6.72438 5.46052 6.43056L6.26433 4.93828C6.74232 3.97467 6.77178 4.345 5.7503 2.61758C5.46585 2.13663 5.17577 1.66241 4.89509 1.17662C4.752 0.928793 4.59842 0.696925 4.45581 0.448943C4.30677 0.189696 4.18798 0.0302679 3.87908 0.00492212C3.72002 -0.00822016 3.86028 0.00742541 3.78991 0.0229145L3.79023 0.0227581Z" fill="white"/>
<path fill-rule="evenodd" clip-rule="evenodd" d="M7.65918 1.7379C7.73816 1.76418 8.66045 1.76324 9.34515 1.93566C9.59026 1.9973 9.83552 2.06207 10.0791 2.14343C12.6235 2.99392 14.4161 5.03833 15.0655 7.62329C15.2388 8.31326 15.2522 9.28078 15.271 9.33679C15.4302 9.38983 16.8333 9.38983 16.9925 9.33679C16.9861 8.66184 16.8245 7.49406 16.7316 7.08884C16.2655 5.05695 14.788 2.93697 13.099 1.76215C12.2747 1.18874 11.4942 0.786648 10.5503 0.469512C9.96293 0.272065 9.0593 0.0780602 8.42647 0.0317493C7.45309 -0.0395944 7.63426 -0.0252005 7.63473 0.446044C7.63489 0.719685 7.59116 1.53372 7.65949 1.7379H7.65918Z" fill="white"/>
<path fill-rule="evenodd" clip-rule="evenodd" d="M7.63281 5.03542L8.29636 5.08767C10.1997 5.41357 11.5655 6.77474 11.9064 8.66879L11.9661 9.36157H13.6994C13.6994 6.70934 11.8556 4.16333 9.23055 3.51577C8.55055 3.34804 8.31767 3.30518 7.63281 3.30518V5.03558V5.03542Z" fill="white"/>
</g>
<defs>
<clipPath id="clip0_386_1654">
<rect width="17" height="17" fill="white"/>
</clipPath>
</defs>
</svg>
