<svg width="15" height="15" viewBox="0 0 15 15" fill="none" xmlns="http://www.w3.org/2000/svg">
<g clip-path="url(#clip0_593_12185)">
<path fill-rule="evenodd" clip-rule="evenodd" d="M3.34432 0.0283814C2.85052 0.136612 2.37428 0.420579 1.9015 0.612743C0.948468 1.00011 0.406547 1.09564 0.0925117 2.32524C-0.0192189 2.76258 -0.0230908 3.29048 0.0453581 3.72023C0.254715 5.03446 0.804241 6.19559 1.52289 7.32372C1.65522 7.53149 1.78589 7.71716 1.92141 7.92161C2.06024 8.13103 2.21595 8.31188 2.3534 8.51923C2.68818 9.02435 2.98257 9.2618 3.28416 9.64792C3.42355 9.82642 3.59046 10.0162 3.75155 10.1771C3.92745 10.3527 4.08107 10.5404 4.25019 10.7081L5.31219 11.6727C5.40871 11.7478 5.46429 11.8339 5.57174 11.9114C5.63811 11.9593 5.78428 12.0784 5.8465 12.135C6.71103 12.9227 8.52154 14.0478 9.61451 14.4807C9.88291 14.587 10.1185 14.6572 10.3802 14.7452C10.6031 14.8203 10.9533 14.9046 11.1915 14.9311L11.8881 15.0001C12.0026 14.9959 11.983 14.9685 12.1206 14.9641C12.8839 14.9398 13.7842 14.6193 14.079 13.8655L14.9828 11.7118C15.107 11.2138 14.5268 11.0232 14.0236 10.7097C13.7256 10.524 11.6033 9.24689 11.4448 9.20147C11.1609 9.12002 10.9366 9.31729 10.7032 9.43311C10.3366 9.61492 8.94979 10.4538 8.66397 10.4534C8.34813 10.4529 8.22589 10.2627 8.02387 10.061L5.48034 7.52169C5.2501 7.29183 4.5764 6.72859 4.54224 6.43331C4.50587 6.11938 4.68923 5.94158 4.81811 5.68232L5.52735 4.36561C5.94911 3.51536 5.9751 3.84213 5.07379 2.31793C4.82281 1.89356 4.56685 1.47514 4.31919 1.04649C4.19294 0.827824 4.05743 0.623235 3.93159 0.404427C3.80009 0.17568 3.69527 0.0350078 3.42272 0.0126438C3.28237 0.0010477 3.40613 0.0148526 3.34404 0.0285195L3.34432 0.0283814Z" fill="#1F7BB5"/>
</g>
<defs>
<clipPath id="clip0_593_12185">
<rect width="15" height="15" fill="white"/>
</clipPath>
</defs>
</svg>
