<svg width="25" height="25" viewBox="0 0 25 25" fill="none" xmlns="http://www.w3.org/2000/svg">
<path fill-rule="evenodd" clip-rule="evenodd" d="M17.2279 6.25H19.7904C21.5163 6.25 22.9154 7.64911 22.9154 9.375V17.7083C22.9154 19.4342 21.5163 20.8333 19.7904 20.8333H5.20703C3.48114 20.8333 2.08203 19.4342 2.08203 17.7083V9.375C2.08203 7.64911 3.48114 6.25 5.20703 6.25H7.76953L8.92578 4.52083C9.50517 3.64865 10.4829 3.12461 11.5299 3.125H13.4674C14.5145 3.12461 15.4922 3.64865 16.0716 4.52083L17.2279 6.25ZM19.7904 18.75C20.3657 18.75 20.832 18.2836 20.832 17.7083V9.375C20.832 8.7997 20.3657 8.33333 19.7904 8.33333H16.6654C16.3169 8.33153 15.9924 8.15561 15.8008 7.86458L14.332 5.67708C14.1404 5.38606 13.8159 5.21014 13.4674 5.20833H11.5299C11.1815 5.21014 10.857 5.38606 10.6654 5.67708L9.19661 7.86458C9.00497 8.15561 8.68049 8.33153 8.33203 8.33333H5.20703C4.63173 8.33333 4.16536 8.7997 4.16536 9.375V17.7083C4.16536 18.2836 4.63173 18.75 5.20703 18.75H19.7904ZM12.4987 9.375C10.1975 9.375 8.33203 11.2405 8.33203 13.5417C8.33203 15.8429 10.1975 17.7083 12.4987 17.7083C14.7999 17.7083 16.6654 15.8429 16.6654 13.5417C16.6654 12.4366 16.2264 11.3768 15.445 10.5954C14.6636 9.81399 13.6038 9.375 12.4987 9.375ZM10.4154 13.5417C10.4154 14.6923 11.3481 15.625 12.4987 15.625C13.6493 15.625 14.582 14.6923 14.582 13.5417C14.582 12.3911 13.6493 11.4583 12.4987 11.4583C11.3481 11.4583 10.4154 12.3911 10.4154 13.5417Z" fill="black"/>
</svg>
