<svg width="15" height="14" viewBox="0 0 15 14" fill="none" xmlns="http://www.w3.org/2000/svg">
<path d="M13.5685 11.8358C13.6868 11.9453 13.7533 12.0944 13.7533 12.25C13.7533 12.4055 13.6868 12.5546 13.5685 12.6641C13.4511 12.7746 13.2914 12.8367 13.1247 12.8367C12.9581 12.8367 12.7983 12.7746 12.681 12.6641L7.49972 7.82248L2.31847 12.6641C2.20111 12.7746 2.04137 12.8367 1.87472 12.8367C1.70807 12.8367 1.54832 12.7746 1.43097 12.6641C1.31265 12.5546 1.24609 12.4055 1.24609 12.25C1.24609 12.0944 1.31265 11.9453 1.43097 11.8358L6.61847 6.99998L1.43097 2.16415C1.27243 2.01618 1.21052 1.80051 1.26854 1.59838C1.32657 1.39626 1.49573 1.23838 1.71229 1.18422C1.92886 1.13006 2.15993 1.18784 2.31847 1.33581L7.49972 6.17748L12.681 1.33581C12.926 1.10707 13.3234 1.10707 13.5685 1.33581C13.8135 1.56455 13.8135 1.93541 13.5685 2.16415L8.38097 6.99998L13.5685 11.8358Z" fill="#B1B1B1"/>
</svg>
