<svg width="20" height="20" viewBox="0 0 20 20" fill="none" xmlns="http://www.w3.org/2000/svg">
<path d="M15 4.16666V9.99999C15 11.3807 13.8807 12.5 12.5 12.5H8.60835L6.83335 13.8333L5.50002 14.8333C5.35577 14.9415 5.18033 15 5.00002 15C4.86921 15.0023 4.74002 14.9707 4.62502 14.9083C4.34479 14.7671 4.16764 14.4805 4.16669 14.1667V12.5C2.78598 12.5 1.66669 11.3807 1.66669 9.99999V4.16666C1.66669 2.78594 2.78598 1.66666 4.16669 1.66666H12.5C13.8807 1.66666 15 2.78594 15 4.16666Z" fill="white"/>
<path d="M18.3334 7.5V13.3333C18.3334 14.714 17.2141 15.8333 15.8334 15.8333V17.5C15.8324 17.8138 15.6553 18.1005 15.375 18.2417C15.26 18.3041 15.1308 18.3356 15 18.3333C14.8197 18.3333 14.6443 18.2749 14.5 18.1667L11.3917 15.8333H7.50003C7.00711 15.8311 6.52583 15.6833 6.1167 15.4083L8.88337 13.3333H12.5C14.341 13.3333 15.8334 11.8409 15.8334 10V5C17.2141 5 18.3334 6.11929 18.3334 7.5Z" fill="white"/>
</svg>
