<svg width="12" height="12" viewBox="0 0 12 12" fill="none" xmlns="http://www.w3.org/2000/svg">
<path d="M11.8226 10.971C11.9361 11.0836 12 11.2369 12 11.3968C12 11.5567 11.9361 11.71 11.8226 11.8226C11.71 11.9361 11.5568 12 11.3969 12C11.237 12 11.0837 11.9361 10.9711 11.8226L6 6.84508L1.02888 11.8226C0.916288 11.9361 0.763019 12 0.603129 12C0.44324 12 0.289971 11.9361 0.177376 11.8226C0.0638544 11.71 0 11.5567 0 11.3968C0 11.2369 0.0638544 11.0836 0.177376 10.971L5.15449 5.9995L0.177376 1.02796C0.0252692 0.87584 -0.0341353 0.65412 0.0215397 0.446321C0.0772147 0.238521 0.239511 0.0762114 0.447293 0.0205317C0.655075 -0.035148 0.876776 0.0242615 1.02888 0.176381L6 5.15391L10.9711 0.176381C11.2063 -0.0587755 11.5875 -0.0587755 11.8226 0.176381C12.0578 0.411538 12.0578 0.792802 11.8226 1.02796L6.84551 5.9995L11.8226 10.971Z" fill="black"/>
</svg>
