<svg width="17" height="17" viewBox="0 0 17 17" fill="none" xmlns="http://www.w3.org/2000/svg">
<path d="M16.7487 15.5423C16.9095 15.7018 17 15.919 17 16.1455C17 16.372 16.9095 16.5892 16.7487 16.7487C16.5892 16.9095 16.3721 17 16.1456 17C15.9191 17 15.7019 16.9095 15.5424 16.7487L8.5 9.69719L1.45758 16.7487C1.29807 16.9095 1.08094 17 0.854433 17C0.627923 17 0.410792 16.9095 0.251283 16.7487C0.0904604 16.5892 0 16.372 0 16.1455C0 15.919 0.0904604 15.7018 0.251283 15.5423L7.3022 8.49928L0.251283 1.45628C0.035798 1.24077 -0.0483584 0.92667 0.0305146 0.632288C0.109387 0.337905 0.339307 0.107966 0.633665 0.0290866C0.928023 -0.049793 1.2421 0.0343705 1.45758 0.249873L8.5 7.30138L15.5424 0.249873C15.8755 -0.0832653 16.4156 -0.0832653 16.7487 0.249873C17.0818 0.583012 17.0818 1.12314 16.7487 1.45628L9.69781 8.49928L16.7487 15.5423Z" fill="#1F7BB5"/>
</svg>
