<svg width="21" height="21" viewBox="0 0 21 21" fill="none" xmlns="http://www.w3.org/2000/svg">
<path fill-rule="evenodd" clip-rule="evenodd" d="M3.79102 0.916626H6.66602C8.25383 0.916626 9.54102 2.20381 9.54102 3.79163V6.66663C9.54102 8.25444 8.25383 9.54163 6.66602 9.54163H3.79102C2.2032 9.54163 0.916016 8.25444 0.916016 6.66663V3.79163C0.916016 2.20381 2.2032 0.916626 3.79102 0.916626ZM6.66602 7.62496C7.19529 7.62496 7.62435 7.1959 7.62435 6.66663V3.79163C7.62435 3.26235 7.19529 2.83329 6.66602 2.83329H3.79102C3.26174 2.83329 2.83268 3.26235 2.83268 3.79163V6.66663C2.83268 7.1959 3.26174 7.62496 3.79102 7.62496H6.66602ZM6.66602 11.4583H3.79102C2.2032 11.4583 0.916016 12.7455 0.916016 14.3333V17.2083C0.916016 18.7961 2.2032 20.0833 3.79102 20.0833H6.66602C8.25383 20.0833 9.54102 18.7961 9.54102 17.2083V14.3333C9.54102 12.7455 8.25383 11.4583 6.66602 11.4583ZM6.66602 18.1666C7.19529 18.1666 7.62435 17.7376 7.62435 17.2083V14.3333C7.62435 13.804 7.19529 13.375 6.66602 13.375H3.79102C3.26174 13.375 2.83268 13.804 2.83268 14.3333V17.2083C2.83268 17.7376 3.26174 18.1666 3.79102 18.1666H6.66602ZM17.2077 11.4583H14.3327C12.7449 11.4583 11.4577 12.7455 11.4577 14.3333V17.2083C11.4577 18.7961 12.7449 20.0833 14.3327 20.0833H17.2077C18.7955 20.0833 20.0827 18.7961 20.0827 17.2083V14.3333C20.0827 12.7455 18.7955 11.4583 17.2077 11.4583ZM17.2077 18.1666C17.737 18.1666 18.166 17.7376 18.166 17.2083V14.3333C18.166 13.804 17.737 13.375 17.2077 13.375H14.3327C13.8034 13.375 13.3743 13.804 13.3743 14.3333V17.2083C13.3743 17.7376 13.8034 18.1666 14.3327 18.1666H17.2077ZM17.2077 0.916626H14.3327C12.7449 0.916626 11.4577 2.20381 11.4577 3.79163V6.66663C11.4577 8.25444 12.7449 9.54163 14.3327 9.54163H17.2077C18.7955 9.54163 20.0827 8.25444 20.0827 6.66663V3.79163C20.0827 2.20381 18.7955 0.916626 17.2077 0.916626ZM17.2077 7.62496C17.737 7.62496 18.166 7.1959 18.166 6.66663V3.79163C18.166 3.26235 17.737 2.83329 17.2077 2.83329H14.3327C13.8034 2.83329 13.3743 3.26235 13.3743 3.79163V6.66663C13.3743 7.1959 13.8034 7.62496 14.3327 7.62496H17.2077Z" fill="black"/>
<path d="M6.66602 0.516626H3.79102V1.31663H6.66602V0.516626ZM9.94102 3.79163C9.94102 1.98289 8.47475 0.516626 6.66602 0.516626V1.31663C8.03292 1.31663 9.14102 2.42472 9.14102 3.79163H9.94102ZM9.94102 6.66663V3.79163H9.14102V6.66663H9.94102ZM6.66602 9.94163C8.47475 9.94163 9.94102 8.47536 9.94102 6.66663H9.14102C9.14102 8.03353 8.03292 9.14163 6.66602 9.14163V9.94163ZM3.79102 9.94163H6.66602V9.14163H3.79102V9.94163ZM0.516016 6.66663C0.516016 8.47536 1.98228 9.94163 3.79102 9.94163V9.14163C2.42411 9.14163 1.31602 8.03353 1.31602 6.66663H0.516016ZM0.516016 3.79163V6.66663H1.31602V3.79163H0.516016ZM3.79102 0.516626C1.98228 0.516626 0.516016 1.98289 0.516016 3.79163H1.31602C1.31602 2.42472 2.42411 1.31663 3.79102 1.31663V0.516626ZM7.22435 6.66663C7.22435 6.97499 6.97437 7.22496 6.66602 7.22496V8.02496C7.4162 8.02496 8.02435 7.41681 8.02435 6.66663H7.22435ZM7.22435 3.79163V6.66663H8.02435V3.79163H7.22435ZM6.66602 3.23329C6.97437 3.23329 7.22435 3.48327 7.22435 3.79163H8.02435C8.02435 3.04144 7.4162 2.43329 6.66602 2.43329V3.23329ZM3.79102 3.23329H6.66602V2.43329H3.79102V3.23329ZM3.23268 3.79163C3.23268 3.48327 3.48266 3.23329 3.79102 3.23329V2.43329C3.04083 2.43329 2.43268 3.04144 2.43268 3.79163H3.23268ZM3.23268 6.66663V3.79163H2.43268V6.66663H3.23268ZM3.79102 7.22496C3.48266 7.22496 3.23268 6.97499 3.23268 6.66663H2.43268C2.43268 7.41681 3.04083 8.02496 3.79102 8.02496V7.22496ZM6.66602 7.22496H3.79102V8.02496H6.66602V7.22496ZM3.79102 11.8583H6.66602V11.0583H3.79102V11.8583ZM1.31602 14.3333C1.31602 12.9664 2.42411 11.8583 3.79102 11.8583V11.0583C1.98228 11.0583 0.516016 12.5246 0.516016 14.3333H1.31602ZM1.31602 17.2083V14.3333H0.516016V17.2083H1.31602ZM3.79102 19.6833C2.42411 19.6833 1.31602 18.5752 1.31602 17.2083H0.516016C0.516016 19.017 1.98228 20.4833 3.79102 20.4833V19.6833ZM6.66602 19.6833H3.79102V20.4833H6.66602V19.6833ZM9.14102 17.2083C9.14102 18.5752 8.03292 19.6833 6.66602 19.6833V20.4833C8.47475 20.4833 9.94102 19.017 9.94102 17.2083H9.14102ZM9.14102 14.3333V17.2083H9.94102V14.3333H9.14102ZM6.66602 11.8583C8.03292 11.8583 9.14102 12.9664 9.14102 14.3333H9.94102C9.94102 12.5246 8.47475 11.0583 6.66602 11.0583V11.8583ZM7.22435 17.2083C7.22435 17.5167 6.97437 17.7666 6.66602 17.7666V18.5666C7.4162 18.5666 8.02435 17.9585 8.02435 17.2083H7.22435ZM7.22435 14.3333V17.2083H8.02435V14.3333H7.22435ZM6.66602 13.775C6.97438 13.775 7.22435 14.0249 7.22435 14.3333H8.02435C8.02435 13.5831 7.4162 12.975 6.66602 12.975V13.775ZM3.79102 13.775H6.66602V12.975H3.79102V13.775ZM3.23268 14.3333C3.23268 14.0249 3.48266 13.775 3.79102 13.775V12.975C3.04083 12.975 2.43268 13.5831 2.43268 14.3333H3.23268ZM3.23268 17.2083V14.3333H2.43268V17.2083H3.23268ZM3.79102 17.7666C3.48266 17.7666 3.23268 17.5167 3.23268 17.2083H2.43268C2.43268 17.9585 3.04083 18.5666 3.79102 18.5666V17.7666ZM6.66602 17.7666H3.79102V18.5666H6.66602V17.7666ZM14.3327 11.8583H17.2077V11.0583H14.3327V11.8583ZM11.8577 14.3333C11.8577 12.9664 12.9658 11.8583 14.3327 11.8583V11.0583C12.5239 11.0583 11.0577 12.5246 11.0577 14.3333H11.8577ZM11.8577 17.2083V14.3333H11.0577V17.2083H11.8577ZM14.3327 19.6833C12.9658 19.6833 11.8577 18.5752 11.8577 17.2083H11.0577C11.0577 19.017 12.5239 20.4833 14.3327 20.4833V19.6833ZM17.2077 19.6833H14.3327V20.4833H17.2077V19.6833ZM19.6827 17.2083C19.6827 18.5752 18.5746 19.6833 17.2077 19.6833V20.4833C19.0164 20.4833 20.4827 19.017 20.4827 17.2083H19.6827ZM19.6827 14.3333V17.2083H20.4827V14.3333H19.6827ZM17.2077 11.8583C18.5746 11.8583 19.6827 12.9664 19.6827 14.3333H20.4827C20.4827 12.5246 19.0164 11.0583 17.2077 11.0583V11.8583ZM17.766 17.2083C17.766 17.5167 17.516 17.7666 17.2077 17.7666V18.5666C17.9579 18.5666 18.566 17.9585 18.566 17.2083H17.766ZM17.766 14.3333V17.2083H18.566V14.3333H17.766ZM17.2077 13.775C17.516 13.775 17.766 14.0249 17.766 14.3333H18.566C18.566 13.5831 17.9579 12.975 17.2077 12.975V13.775ZM14.3327 13.775H17.2077V12.975H14.3327V13.775ZM13.7743 14.3333C13.7743 14.0249 14.0243 13.775 14.3327 13.775V12.975C13.5825 12.975 12.9743 13.5831 12.9743 14.3333H13.7743ZM13.7743 17.2083V14.3333H12.9743V17.2083H13.7743ZM14.3327 17.7666C14.0243 17.7666 13.7743 17.5167 13.7743 17.2083H12.9743C12.9743 17.9585 13.5825 18.5666 14.3327 18.5666V17.7666ZM17.2077 17.7666H14.3327V18.5666H17.2077V17.7666ZM14.3327 1.31663H17.2077V0.516626H14.3327V1.31663ZM11.8577 3.79163C11.8577 2.42472 12.9658 1.31663 14.3327 1.31663V0.516626C12.5239 0.516626 11.0577 1.98289 11.0577 3.79163H11.8577ZM11.8577 6.66663V3.79163H11.0577V6.66663H11.8577ZM14.3327 9.14163C12.9658 9.14163 11.8577 8.03353 11.8577 6.66663H11.0577C11.0577 8.47536 12.5239 9.94163 14.3327 9.94163V9.14163ZM17.2077 9.14163H14.3327V9.94163H17.2077V9.14163ZM19.6827 6.66663C19.6827 8.03353 18.5746 9.14163 17.2077 9.14163V9.94163C19.0164 9.94163 20.4827 8.47536 20.4827 6.66663H19.6827ZM19.6827 3.79163V6.66663H20.4827V3.79163H19.6827ZM17.2077 1.31663C18.5746 1.31663 19.6827 2.42472 19.6827 3.79163H20.4827C20.4827 1.98289 19.0164 0.516626 17.2077 0.516626V1.31663ZM17.766 6.66663C17.766 6.97499 17.516 7.22496 17.2077 7.22496V8.02496C17.9579 8.02496 18.566 7.41681 18.566 6.66663H17.766ZM17.766 3.79163V6.66663H18.566V3.79163H17.766ZM17.2077 3.23329C17.516 3.23329 17.766 3.48327 17.766 3.79163H18.566C18.566 3.04144 17.9579 2.43329 17.2077 2.43329V3.23329ZM14.3327 3.23329H17.2077V2.43329H14.3327V3.23329ZM13.7743 3.79163C13.7743 3.48327 14.0243 3.23329 14.3327 3.23329V2.43329C13.5825 2.43329 12.9743 3.04144 12.9743 3.79163H13.7743ZM13.7743 6.66663V3.79163H12.9743V6.66663H13.7743ZM14.3327 7.22496C14.0243 7.22496 13.7743 6.97499 13.7743 6.66663H12.9743C12.9743 7.41681 13.5825 8.02496 14.3327 8.02496V7.22496ZM17.2077 7.22496H14.3327V8.02496H17.2077V7.22496Z" fill="white"/>
</svg>
