<svg width="112" height="122" viewBox="0 0 112 122" fill="none" xmlns="http://www.w3.org/2000/svg">
<g clip-path="url(#clip0_71_714)">
<path d="M111.999 55.6993C111.999 24.9374 86.9277 0 56.0002 0C25.0727 0 0.000976562 24.9374 0.000976562 55.6993C0.000976562 86.4611 25.0727 111.399 56.0002 111.399C86.9277 111.399 111.999 86.4611 111.999 55.6993Z" fill="#185479"/>
<path d="M26.7466 72.1034C26.7466 74.1903 25.0473 75.8805 22.9491 75.8805C20.8509 75.8805 19.1516 74.1903 19.1516 72.1034C19.1516 70.0164 20.8509 68.3262 22.9491 68.3262C25.0473 68.3262 26.7466 70.0164 26.7466 72.1034Z" fill="#92C2C6"/>
<path d="M26.9542 69.8418L21.7327 64.2792C21.7327 64.2792 18.7888 68.5246 17.6121 68.4532C17.6121 68.4532 21.9521 74.5276 23.3522 76.063C24.7523 77.5985 27.5486 75.6226 26.9582 69.8418H26.9542Z" fill="#D96361"/>
<path d="M18.8604 56.6654C18.8604 56.6654 21.1421 56.5186 21.8043 56.6654C22.259 56.7646 22.5742 57.8597 22.7258 58.5421C22.7976 58.8595 22.7816 59.1888 22.6739 59.4983C22.4984 60.0022 22.267 60.8393 22.4625 61.2797C22.7577 61.9384 23.6512 64.7276 22.3947 65.8941C22.3947 65.8941 19.9614 60.1093 18.8564 56.6694L18.8604 56.6654Z" fill="#EE706B"/>
<path d="M16.1003 49.9442L9.91339 50.2498C8.8244 50.3053 8.09043 51.3805 8.44944 52.4081L14.3412 69.3736C14.5685 70.0283 15.1908 70.4687 15.8889 70.4687H21.621C22.726 70.4687 23.5118 69.4014 23.1847 68.354L17.7517 51.079C17.5283 50.3728 16.8542 49.9006 16.1083 49.9403L16.1003 49.9442Z" fill="#19191A"/>
<path d="M16.507 60.0339C16.507 60.0339 12.4462 60.2521 11.0899 60.0339C9.73767 59.8157 9.66188 61.7161 10.324 62.597C10.324 62.597 9.59806 64.3506 11.5008 65.525C11.5008 65.525 11.0899 67.2946 12.7533 68.4531C14.4127 69.6077 17.1532 69.2268 18.306 68.1794C19.0878 67.4692 19.4149 63.9578 19.1317 61.7796C18.9961 60.752 18.7288 60.022 18.306 60.018C17.229 60.0101 16.503 60.0339 16.503 60.0339H16.507Z" fill="#EE706B"/>
<path d="M79.9636 46.8575C82.0818 48.4485 88.5997 65.0886 90.8136 78.7927C93.0275 92.4969 93.1512 108.399 93.1512 108.399C93.1512 108.399 90.4426 110.97 87.4948 110.97C84.539 110.97 82.2054 108.645 82.2054 108.645C82.2054 108.645 82.6961 94.6989 82.0818 86.9898C81.4675 79.2808 77.283 67.7826 74.2075 62.0296L79.9596 46.8575H79.9636Z" fill="#C2E6E9"/>
<path d="M48.9574 43.8341C48.9574 43.8341 44.9325 45.8814 44.3182 47.7184C43.7039 49.5554 35.4627 73.1667 34.4774 74.2657C34.4774 74.2657 27.6243 69.9846 25.4344 68.223C25.4344 68.223 27.2174 71.3297 24.8839 74.2657C22.5464 77.2017 19.7461 74.1348 19.7461 74.1348C19.7461 74.1348 25.2908 83.0341 32.5746 86.2558C39.8545 89.4815 43.2132 87.1128 43.2132 87.1128L48.9613 43.8341H48.9574Z" fill="#C2E6E9"/>
<path d="M40.1018 87.9341C40.6882 82.8278 41.5498 67.612 42.6787 62.1804C42.9659 60.8036 43.305 59.1333 43.6999 57.3637C43.2133 58.9825 42.7824 60.51 42.4155 61.7797C40.8199 67.3224 39.4636 86.3749 37.8042 87.827C38.6818 87.95 39.4437 87.9698 40.1018 87.9341Z" fill="#92C2C6"/>
<path d="M57.0828 40.2157C57.0828 40.2157 52.9103 47.4844 51.3307 53.9873C49.751 60.4902 43.8434 103.916 41.813 110.307C41.813 110.307 55.4353 112.926 65.3599 110.458C65.3599 110.458 62.3083 88.192 62.6275 77.9873C62.9426 67.7826 68.8064 41.652 68.8064 41.652C68.8064 41.652 61.4746 40.5728 57.0788 40.2157H57.0828Z" fill="#ECF1F6"/>
<path d="M59.6518 77.2097C59.8193 62.1486 65.2204 46.6829 66.5129 42.0328C64.9891 46.8217 59.209 61.9344 58.5588 76.8169C58.1201 86.8509 59.1851 101.273 60.0627 110.772C60.7568 110.704 61.4907 110.776 62.1808 110.672C61.0121 101.253 59.5401 87.0493 59.6478 77.2136L59.6518 77.2097Z" fill="#92C2C6"/>
<path d="M58.2755 39.8308C58.2755 39.8308 51.5062 47.2463 49.6434 67.3501C47.7805 87.454 47.7805 91.747 45.3273 102.19C42.8741 112.632 39.2441 121.413 39.2441 121.413C39.2441 121.413 34.0425 117.897 32.5706 111.069C32.5706 111.069 39.4396 92.9174 40.0259 88.5253C40.6163 84.1331 41.4979 67.8382 42.6746 62.1764C43.8514 56.5186 45.9177 45.9211 48.9533 43.8302C52.0407 41.7035 58.2715 39.8308 58.2715 39.8308H58.2755Z" fill="#C2E6E9"/>
<path d="M62.1051 39.8308C64.0677 39.8308 69.1855 38.8707 79.9597 46.8574C79.9597 46.8574 74.7581 73.5952 75.0533 86.2836C75.3485 98.968 79.4651 114.68 79.4651 114.68C79.4651 114.68 74.8539 121.218 63.7645 122C63.7645 122 59.4484 94.7743 59.6439 77.2057C59.8433 59.6411 67.1511 41.525 66.7682 40.6521C66.3813 39.7792 62.0971 39.8308 62.0971 39.8308H62.1051Z" fill="#C2E6E9"/>
<path d="M58.7822 49.7459C58.7822 49.7459 58.3355 87.7754 55.7945 96.1233C55.244 97.9325 54.2508 99.4164 52.34 99.1545C51.0396 98.976 50.0424 97.1509 49.827 94.8576C48.9015 84.9227 56.7199 58.4945 58.7782 49.7459H58.7822Z" fill="#60728B"/>
<path d="M57.8646 47.3693L60.8883 47.6073C61.3869 47.647 61.6183 48.2421 61.2832 48.6072L59.197 50.8528C58.8938 51.1782 58.3473 51.075 58.1957 50.6584L57.2583 48.1787C57.1027 47.77 57.4298 47.3415 57.8686 47.3732L57.8646 47.3693Z" fill="#60728B"/>
<path d="M56.357 37.1686C56.357 37.1686 57.0032 40.8584 56.3171 43.8341C55.7826 46.1433 57.6454 47.0043 59.1134 47.0043C62.6316 47.0043 65.1766 43.7588 66.3972 41.767C66.6844 41.2988 66.8161 40.7553 66.7881 40.2077C66.6685 38.1446 66.4571 32.6336 67.4663 30.7331C67.4663 30.7331 60.8486 37.8986 56.357 37.1646V37.1686Z" fill="#EE706B"/>
<path d="M59.0174 41.1877C62.6474 40.9537 64.9091 37.9779 66.76 34.2167C66.8597 32.7843 67.0632 31.483 67.4621 30.7371C67.4621 30.7371 60.8444 37.9026 56.3528 37.1686C56.3528 37.1686 56.64 38.8072 56.628 40.7791C57.366 41.2115 58.2436 41.2354 59.0134 41.1877H59.0174Z" fill="#D96361"/>
<path d="M70.0869 20.8776C70.2424 23.5001 69.5843 26.2537 68.3038 28.8088C65.6152 34.177 62.815 39.3626 57.7889 39.3626C56.6759 39.3626 55.3675 39.2079 54.5977 37.9978C54.0352 37.117 53.9435 35.395 53.5446 34.1413C52.9024 32.1297 52.2163 30.495 52.1843 28.3565C52.1724 27.7018 52.655 26.5155 52.5912 25.8688C52.4037 24.0001 51.6418 24.3333 51.6418 20.9172C51.6418 15.3467 53.4329 13.8708 60.0506 13.8708C64.8214 13.8708 69.8196 16.2355 70.0869 20.8776Z" fill="#EE706B"/>
<path d="M52.1445 16.5172C53.6404 21.4767 59.9869 18.132 62.0492 17.2194C64.1115 16.3069 64.7896 21.2188 64.0277 23.1907C63.2658 25.1626 63.4932 28.1264 63.4932 28.1264L65.3999 27.0631C65.3999 27.0631 65.4996 24.0993 66.9995 23.8731C68.5033 23.6469 69.6721 26.7575 66.9995 29.4158C64.3309 32.0741 66.8479 33.5144 67.538 32.9827C67.538 32.9827 67.885 30.0983 68.5512 29.035C69.2173 27.9716 71.1241 25.3927 71.2757 23.7977C71.4312 22.2027 71.6307 17.7868 70.7411 15.8268C69.9274 14.0334 66.6963 10.5895 63.6447 10.8157C56.1415 11.3751 54.2148 13.2121 52.1445 16.5132V16.5172Z" fill="black"/>
</g>
<defs>
<clipPath id="clip0_71_714">
<rect width="112" height="122" fill="white"/>
</clipPath>
</defs>
</svg>
