<svg width="7" height="7" viewBox="0 0 7 7" fill="none" xmlns="http://www.w3.org/2000/svg">
<g clip-path="url(#clip0_609_7844)">
<path d="M6.125 5.25H3.5C3.01738 5.25 2.625 4.85762 2.625 4.375V0.875C2.625 0.392383 3.01738 0 3.5 0H5.41543C5.58906 0 5.75586 0.0697266 5.87891 0.192773L6.80723 1.12109C6.93027 1.24414 7 1.41094 7 1.58457V4.375C7 4.85762 6.60762 5.25 6.125 5.25ZM0.875 1.75H2.1875V2.40625H0.875C0.754687 2.40625 0.65625 2.50469 0.65625 2.625V6.125C0.65625 6.24531 0.754687 6.34375 0.875 6.34375H3.5C3.62031 6.34375 3.71875 6.24531 3.71875 6.125V5.6875H4.375V6.125C4.375 6.60762 3.98262 7 3.5 7H0.875C0.392383 7 0 6.60762 0 6.125V2.625C0 2.14238 0.392383 1.75 0.875 1.75Z" fill="#1F7BB5"/>
</g>
<defs>
<clipPath id="clip0_609_7844">
<rect width="7" height="7" fill="white"/>
</clipPath>
</defs>
</svg>
