<svg width="28" height="19" viewBox="0 0 28 19" fill="none" xmlns="http://www.w3.org/2000/svg">
<path fill-rule="evenodd" clip-rule="evenodd" d="M13.75 5.25C13.75 2.90279 11.8472 1 9.5 1C7.15279 1 5.25 2.90279 5.25 5.25C5.25 7.59721 7.15279 9.5 9.5 9.5H8.65C4.42502 9.5 1 12.925 1 17.15C1 17.6194 1.38056 18 1.85 18H17.5C17.9694 18 18 17.6194 18 17.15C18 12.925 14.575 9.5 10.35 9.5H9.5C10.6272 9.5 11.7082 9.05223 12.5052 8.2552C13.3022 7.45817 13.75 6.37717 13.75 5.25ZM8.65 11.2C5.69168 11.1992 3.18212 13.372 2.7595 16.3H16.2405C15.8179 13.372 13.3083 11.1992 10.35 11.2H8.65ZM6.95 5.25C6.95 6.65833 8.09167 7.8 9.5 7.8C10.1763 7.8 10.8249 7.53134 11.3031 7.05312C11.7813 6.5749 12.05 5.9263 12.05 5.25C12.05 3.84167 10.9083 2.7 9.5 2.7C8.09167 2.7 6.95 3.84167 6.95 5.25Z" fill="black"/>
<path fill-rule="evenodd" clip-rule="evenodd" d="M18.744 1C21.0912 1 22.994 2.90279 22.994 5.25C22.994 6.37717 22.5462 7.45817 21.7492 8.2552C20.9522 9.05223 19.8712 9.5 18.744 9.5C16.3968 9.5 14.494 7.59721 14.494 5.25C14.494 2.90279 16.3968 1 18.744 1ZM18.744 7.8C17.3357 7.8 16.194 6.65833 16.194 5.25C16.194 3.84167 17.3357 2.7 18.744 2.7C20.1523 2.7 21.294 3.84167 21.294 5.25C21.294 5.9263 21.0253 6.5749 20.5471 7.05312C20.0689 7.53134 19.4203 7.8 18.744 7.8Z" fill="black"/>
<path d="M18.0146 18H26.394C26.8634 18 27.244 17.6194 27.244 17.15C27.244 12.925 23.819 9.5 19.594 9.5H18.744H17.894C16.3828 9.5 15.5642 9.74375 14.3779 10.5C14.7414 10.6642 15.2787 11.1421 15.7676 11.7489C16.5973 11.3133 16.9014 11.1997 17.894 11.2H19.594C22.5523 11.1992 25.0619 13.372 25.4845 16.3H18C18.0638 16.8454 18.0739 17.4145 18.0146 18Z" fill="black"/>
<path d="M9.5 9.5C7.15279 9.5 5.25 7.59721 5.25 5.25C5.25 2.90279 7.15279 1 9.5 1C11.8472 1 13.75 2.90279 13.75 5.25C13.75 6.37717 13.3022 7.45817 12.5052 8.2552C11.7082 9.05223 10.6272 9.5 9.5 9.5ZM9.5 9.5H8.65C4.42502 9.5 1 12.925 1 17.15C1 17.6194 1.38056 18 1.85 18H17.5C17.9694 18 18 17.6194 18 17.15C18 12.925 14.575 9.5 10.35 9.5H9.5ZM18.744 9.5C19.8712 9.5 20.9522 9.05223 21.7492 8.2552C22.5462 7.45817 22.994 6.37717 22.994 5.25C22.994 2.90279 21.0912 1 18.744 1C16.3968 1 14.494 2.90279 14.494 5.25C14.494 7.59721 16.3968 9.5 18.744 9.5ZM18.744 9.5H19.594C23.819 9.5 27.244 12.925 27.244 17.15C27.244 17.6194 26.8634 18 26.394 18H18.0146C18.0739 17.4145 18.0638 16.8454 18 16.3H25.4845C25.0619 13.372 22.5523 11.1992 19.594 11.2H17.894C16.9014 11.1997 16.5973 11.3133 15.7676 11.7489C15.2787 11.1421 14.7414 10.6642 14.3779 10.5C15.5642 9.74375 16.3828 9.5 17.894 9.5H18.744ZM2.7595 16.3C3.18212 13.372 5.69168 11.1992 8.65 11.2H10.35C13.3083 11.1992 15.8179 13.372 16.2405 16.3H2.7595ZM9.5 7.8C8.09167 7.8 6.95 6.65833 6.95 5.25C6.95 3.84167 8.09167 2.7 9.5 2.7C10.9083 2.7 12.05 3.84167 12.05 5.25C12.05 5.9263 11.7813 6.5749 11.3031 7.05312C10.8249 7.53134 10.1763 7.8 9.5 7.8ZM16.194 5.25C16.194 6.65833 17.3357 7.8 18.744 7.8C19.4203 7.8 20.0689 7.53134 20.5471 7.05312C21.0253 6.5749 21.294 5.9263 21.294 5.25C21.294 3.84167 20.1523 2.7 18.744 2.7C17.3357 2.7 16.194 3.84167 16.194 5.25Z" stroke="white" stroke-width="0.8"/>
</svg>
