<svg width="18" height="17" viewBox="0 0 18 17" fill="none" xmlns="http://www.w3.org/2000/svg">
<path d="M12.3111 13.3231H15.3209C16.3841 13.3231 17.25 12.4632 17.25 11.4027V2.67036C17.25 1.60977 16.3833 0.75 15.3202 0.75H2.67982C1.61667 0.75 0.75 1.60977 0.75 2.67036V11.4027C0.75 12.4633 1.61667 13.3231 2.67982 13.3231H5.68894L5.35375 15.4233L5.35374 15.4234C5.32078 15.6303 5.38062 15.8409 5.51703 16C5.65383 16.1596 5.85299 16.25 6.06216 16.25H11.9378C12.147 16.25 12.3462 16.1596 12.483 16C12.6194 15.8409 12.6792 15.6303 12.6463 15.4234L12.6462 15.4233L12.3111 13.3231ZM15.8142 11.4027C15.8142 11.6718 15.5935 11.8932 15.3195 11.8932H2.67915C2.40512 11.8932 2.18442 11.6718 2.18442 11.4027V2.67036C2.18442 2.4013 2.40512 2.17982 2.67915 2.17982H15.3195C15.593 2.17982 15.8142 2.40145 15.8142 2.67036V11.4027ZM10.8577 13.3231L11.097 14.8208H6.90164L7.141 13.3231H10.8577Z" fill="white" stroke="white" stroke-width="0.5"/>
</svg>
