<svg width="17" height="17" viewBox="0 0 17 17" fill="none" xmlns="http://www.w3.org/2000/svg">
<path fill-rule="evenodd" clip-rule="evenodd" d="M6.39445 13.9624L15.6807 4.67612C16.3161 4.08404 16.5777 3.19236 16.3628 2.35087C16.1479 1.50938 15.4908 0.852297 14.6493 0.637396C13.8078 0.422494 12.9161 0.684048 12.324 1.31945L3.01403 10.6294C2.95449 10.6907 2.90386 10.76 2.86362 10.8353L0.662785 15.2765C0.542434 15.5222 0.5574 15.8125 0.702367 16.0444C0.847334 16.2764 1.10176 16.4171 1.37528 16.4165C1.50591 16.4135 1.63373 16.3781 1.74737 16.3136L6.18862 14.1128C6.26394 14.0725 6.33324 14.0219 6.39445 13.9624ZM15.6253 16.4165C16.0625 16.4165 16.417 16.0621 16.417 15.6249C16.417 15.1876 16.0625 14.8332 15.6253 14.8332H8.50028C8.06306 14.8332 7.70862 15.1876 7.70862 15.6249C7.70862 16.0621 8.06306 16.4165 8.50028 16.4165H15.6253ZM11.9203 6.19612L10.804 5.07987L4.24904 11.6665L3.14862 13.8832L5.33362 12.7511L11.9203 6.19612ZM14.0142 2.16554C14.2312 2.16554 14.4387 2.25462 14.5882 2.41195C14.7425 2.56464 14.8273 2.77399 14.8228 2.99101C14.8183 3.20803 14.7249 3.41369 14.5645 3.55987L13.0365 5.07987L11.9203 3.96362L13.4403 2.41195C13.5897 2.25462 13.7972 2.16554 14.0142 2.16554Z" fill="#1F7BB5"/>
</svg>
