<svg width="20" height="18" viewBox="0 0 20 18" fill="none" xmlns="http://www.w3.org/2000/svg">
<path d="M17.5802 2.17495C17.1105 1.74668 16.4697 1.50562 15.801 1.50562C15.1324 1.50562 14.4916 1.74668 14.0219 2.17495L12.4219 3.63745L15.9552 6.81745L17.5552 5.37745C18.0344 4.9577 18.3067 4.38269 18.3114 3.7809C18.3161 3.17912 18.0528 2.60072 17.5802 2.17495Z" fill="black"/>
<path d="M11.2403 4.70239L4.24859 10.9949C4.18592 11.0529 4.13262 11.1185 4.09026 11.1899L1.77359 15.3974C1.63691 15.6284 1.64388 15.9067 1.79197 16.1319C1.94006 16.3571 2.20786 16.4966 2.49859 16.4999C2.62557 16.5004 2.75098 16.4747 2.86526 16.4249L7.54026 14.3399C7.61955 14.3018 7.69249 14.2538 7.75693 14.1974L14.7486 7.90489L11.2403 4.70239Z" fill="black"/>
<path d="M17.4974 16.5H9.9974C9.53716 16.5 9.16406 16.1642 9.16406 15.75C9.16406 15.3358 9.53716 15 9.9974 15H17.4974C17.9576 15 18.3307 15.3358 18.3307 15.75C18.3307 16.1642 17.9576 16.5 17.4974 16.5Z" fill="black"/>
</svg>
