<svg width="49" height="29" viewBox="0 0 49 29" fill="none" xmlns="http://www.w3.org/2000/svg">
<g clip-path="url(#clip0_387_1061)">
<path fill-rule="evenodd" clip-rule="evenodd" d="M13.7222 11.5457L6.98514 19.1083L6.49874 18.9777C6.37268 18.9443 6.26027 18.9171 6.16362 18.8973C6.05647 18.8764 5.94616 18.8576 5.83166 18.8429C5.72975 18.8294 5.61735 18.8189 5.49548 18.8116C5.39358 18.8053 5.27802 18.8022 5.14881 18.8022C4.80528 18.8022 4.47016 18.8356 4.14765 18.8994C3.81568 18.9652 3.49527 19.0624 3.19062 19.1888C2.87441 19.3194 2.57605 19.4782 2.29871 19.6621C2.01612 19.8502 1.75139 20.0654 1.51081 20.3036L1.35323 20.4593C1.14943 20.6787 0.965588 20.9159 0.802755 21.1677C0.642024 21.4164 0.502303 21.6808 0.386744 21.9566C0.26068 22.2575 0.16193 22.5762 0.0957464 22.9085C0.0316639 23.2292 -0.00195312 23.5615 -0.00195312 23.9021C-0.00195312 24.2407 0.0316639 24.5708 0.0957464 24.8906H0.0936453C0.158778 25.2134 0.257528 25.531 0.386744 25.8382C0.518061 26.1496 0.677742 26.4453 0.863686 26.7201C1.05173 26.998 1.26814 27.2592 1.50661 27.4964L1.52237 27.5121C1.75979 27.7461 2.02137 27.9582 2.30292 28.1442C2.58131 28.3292 2.87966 28.488 3.19272 28.6165C3.49632 28.7419 3.81673 28.8391 4.1487 28.9049C4.47122 28.9686 4.80528 29.0021 5.14881 29.0021C5.49443 29.0021 5.83166 28.9686 6.15522 28.9049C6.49139 28.8391 6.8139 28.7419 7.11646 28.6165C7.3896 28.5047 7.65538 28.3657 7.91171 28.2038C8.15964 28.0471 8.3939 27.8694 8.60926 27.6761L8.7868 27.5016C9.02633 27.2634 9.24379 27.0032 9.43183 26.7253V26.7232C9.61988 26.4463 9.78061 26.1517 9.90982 25.8435C10.039 25.5363 10.1388 25.2176 10.204 24.8937H10.2019C10.266 24.574 10.3006 24.2427 10.3006 23.9042C10.3006 23.6399 10.2807 23.3818 10.2418 23.131C10.2019 22.8761 10.143 22.6253 10.0653 22.3819C9.98546 22.129 9.88776 21.8887 9.77536 21.663C9.6577 21.4269 9.52428 21.2033 9.3772 20.9943L9.00742 20.4698L16.2004 12.3941L16.6826 12.5174V12.5153C16.7971 12.5446 16.9022 12.5686 16.9957 12.5864C17.0902 12.6041 17.1953 12.6208 17.3119 12.6355C17.4253 12.6501 17.5304 12.6595 17.627 12.6658C17.7205 12.671 17.8308 12.6741 17.9548 12.6741C18.1733 12.6741 18.3887 12.6605 18.5977 12.6344C18.811 12.6083 19.02 12.5686 19.2238 12.5174H19.2259C19.434 12.4652 19.6367 12.4004 19.8332 12.3241C20.0359 12.2447 20.2292 12.1559 20.4109 12.0577C20.4582 12.0138 20.8553 11.8173 20.9352 11.7745L26.8076 17.3185L26.6637 17.796C26.6249 17.9256 26.5933 18.0447 26.5692 18.1512C26.545 18.2568 26.5229 18.379 26.504 18.5138C26.4862 18.6329 26.4725 18.7541 26.4641 18.8764C26.4557 18.9913 26.4515 19.1156 26.4515 19.2483C26.4515 19.5869 26.4851 19.917 26.5492 20.2368H26.5471C26.6122 20.5607 26.711 20.8773 26.8402 21.1845C26.9715 21.4958 27.1312 21.7905 27.3172 22.0653C27.5031 22.3401 27.7195 22.6002 27.9632 22.8426L27.9695 22.851C28.2091 23.0882 28.4727 23.3024 28.7543 23.4894L28.7553 23.4873C29.0379 23.6743 29.3363 23.8342 29.6462 23.9617C29.9498 24.0871 30.2702 24.1842 30.6022 24.2501C30.9247 24.3138 31.2587 24.3472 31.6023 24.3472C31.9479 24.3472 32.2851 24.3138 32.6087 24.2501C32.9449 24.1842 33.2674 24.0871 33.5699 23.9617C33.8431 23.8488 34.1088 23.7109 34.3652 23.5479C34.6205 23.386 34.86 23.2042 35.0806 23.0035L35.2403 22.8458C35.4798 22.6075 35.6962 22.3474 35.8853 22.0684C36.0712 21.7936 36.232 21.4979 36.3633 21.1855C36.4925 20.8783 36.5923 20.5596 36.6574 20.2357C36.7205 19.9233 36.7541 19.5921 36.7541 19.2463C36.7541 19.0383 36.7425 18.8377 36.7194 18.6455C36.6942 18.4365 36.6595 18.2411 36.6165 18.0603C36.5713 17.8754 36.5114 17.6842 36.4389 17.4888C36.3643 17.2892 36.2845 17.1064 36.1994 16.9413L35.9483 16.4586L41.6842 9.75898C41.7389 9.77674 42.1801 9.93347 42.2085 9.93347C42.3419 9.9784 42.4753 10.0171 42.6066 10.0494H42.6087C42.7474 10.0839 42.8829 10.1121 43.0132 10.133C43.1392 10.1539 43.2758 10.1696 43.4229 10.1821C43.5573 10.1926 43.6981 10.1989 43.8441 10.1989C44.1898 10.1989 44.527 10.1654 44.8505 10.1017C45.1867 10.0359 45.5092 9.93765 45.8118 9.81331C46.0912 9.69838 46.357 9.56046 46.607 9.40164C46.856 9.24387 47.0903 9.06624 47.3067 8.8719L47.4821 8.69741C47.7216 8.45918 47.9381 8.19901 48.1272 7.92004C48.3131 7.64524 48.4738 7.34955 48.6051 7.03818C48.7344 6.73099 48.8342 6.41231 48.8993 6.08841H48.8972C48.9613 5.76868 48.9959 5.43747 48.9959 5.09998C48.9959 4.75936 48.9623 4.42709 48.8982 4.10632C48.8321 3.77406 48.7333 3.45538 48.6073 3.15446C48.4759 2.84205 48.3163 2.54635 48.1303 2.27156C47.9423 1.99363 47.7269 1.73346 47.4874 1.49732C47.2468 1.25909 46.9831 1.0449 46.7016 0.857871C46.4232 0.672932 46.1259 0.514114 45.8128 0.385597C45.5103 0.261259 45.1878 0.164088 44.8516 0.0972172C44.528 0.0334811 44.1919 4.57764e-05 43.8452 4.57764e-05C43.5027 4.57764e-05 43.1686 0.0334811 42.8461 0.0972172H42.844C42.5121 0.163043 42.1916 0.260214 41.887 0.386642C41.5708 0.517248 41.2714 0.676066 40.9951 0.85996C40.7125 1.04803 40.4478 1.26327 40.2072 1.5015L40.0486 1.65823C39.8458 1.87765 39.6609 2.11483 39.4991 2.36664C39.3384 2.61531 39.1987 2.87966 39.0831 3.15446C38.9571 3.45538 38.8583 3.77406 38.7921 4.10632C38.728 4.42709 38.6944 4.75936 38.6944 5.09998C38.6944 5.34343 38.7102 5.57748 38.7417 5.79898C38.7732 6.02676 38.8226 6.25454 38.8877 6.48127C38.9539 6.71219 39.0348 6.93265 39.1262 7.13849V7.14058C39.2186 7.34746 39.33 7.55538 39.4592 7.76122L39.7733 8.26379L34.1813 14.7941L33.6298 14.558C33.4733 14.4901 33.3104 14.4305 33.1434 14.3783C32.9732 14.325 32.8051 14.2811 32.6402 14.2477C32.4742 14.2142 32.304 14.1881 32.1296 14.1704C31.9689 14.1547 31.7935 14.1463 31.6033 14.1463C31.347 14.1463 31.098 14.1641 30.8585 14.1996H30.8564C30.6116 14.2351 30.3689 14.2895 30.1315 14.3605C29.8857 14.4337 29.6525 14.5225 29.434 14.6238C29.206 14.7304 28.9864 14.8516 28.7795 14.9874L28.2374 15.3427L22.5362 9.95959L22.7442 9.44761C22.8041 9.29924 22.8576 9.14774 22.9039 8.99415C22.948 8.84369 22.9869 8.68801 23.0173 8.52814C23.0488 8.36619 23.073 8.20737 23.0877 8.05273C23.1014 7.9075 23.1087 7.74659 23.1087 7.57001C23.1087 7.22939 23.0751 6.89713 23.011 6.5774C22.9448 6.24514 22.8461 5.92646 22.72 5.62554C22.5887 5.31313 22.429 5.01743 22.2431 4.74368C22.055 4.46575 21.8386 4.20558 21.6002 3.9684C21.3596 3.73017 21.0969 3.51598 20.8144 3.32895C20.536 3.14401 20.2387 2.98519 19.9256 2.85668C19.622 2.73234 19.3005 2.63517 18.9644 2.5683C18.6408 2.50456 18.3036 2.47112 17.958 2.47112C17.6144 2.47112 17.2793 2.50456 16.9568 2.5683C16.6248 2.63412 16.3044 2.73129 15.9998 2.85772C15.6836 2.98833 15.3852 3.14715 15.1079 3.33104C14.8253 3.51911 14.5616 3.73435 14.32 3.97153L14.1613 4.12826C13.9586 4.34768 13.7737 4.58486 13.6109 4.83772C13.4501 5.08639 13.3104 5.35074 13.1948 5.62554C13.0688 5.92646 12.97 6.24514 12.9038 6.57636C12.8398 6.89713 12.8061 7.22939 12.8061 7.57001C12.8061 7.8469 12.8261 8.10916 12.866 8.35574C12.907 8.61382 12.97 8.86876 13.0509 9.11848C13.1329 9.3682 13.2348 9.6127 13.3556 9.84884C13.4806 10.0923 13.6203 10.3211 13.7716 10.5301L14.154 11.0567L13.7201 11.5436L13.7222 11.5457ZM42.8115 2.61322C42.9774 2.54531 43.1487 2.49307 43.3199 2.45963C43.4922 2.4262 43.6687 2.40843 43.8462 2.40843C44.0248 2.40843 44.2013 2.4262 44.3726 2.46068V2.46277C44.5522 2.49829 44.7224 2.55053 44.88 2.61531C45.0417 2.68219 45.1993 2.76682 45.3474 2.86608C45.4956 2.9643 45.6332 3.07714 45.7572 3.20043C45.8853 3.32686 45.9998 3.46374 46.0975 3.60793C46.1952 3.75212 46.2803 3.90884 46.3507 4.07393C46.4169 4.23379 46.4694 4.40201 46.5051 4.57651C46.5409 4.75309 46.5598 4.92967 46.5598 5.10102C46.5598 5.2776 46.5419 5.45314 46.5072 5.6224C46.4736 5.79376 46.4211 5.96303 46.3528 6.12602C46.2845 6.29007 46.2005 6.44679 46.1028 6.59203C46.004 6.73935 45.8906 6.87623 45.7656 6.99952L45.7403 7.01624C45.6185 7.13431 45.4851 7.24193 45.3422 7.33701L45.3401 7.3391C45.1951 7.43523 45.0407 7.51777 44.8789 7.58464C44.714 7.65255 44.5438 7.7048 44.3715 7.73928C44.2003 7.77376 44.0238 7.79152 43.8441 7.79152C43.6666 7.79152 43.4901 7.77376 43.3178 7.74032C43.1466 7.70689 42.9753 7.65464 42.8094 7.58673C42.6402 7.51672 42.4837 7.43418 42.3429 7.34119C42.1969 7.24506 42.0603 7.13326 41.9353 7.00997L41.9238 6.99848C41.7987 6.87414 41.6853 6.73726 41.5865 6.59098C41.4888 6.44575 41.4048 6.28902 41.3365 6.12498C41.2682 5.96094 41.2157 5.79167 41.1821 5.62031C41.1485 5.45 41.1296 5.27551 41.1296 5.09789C41.1296 4.92653 41.1485 4.75204 41.1842 4.57442C41.2199 4.39992 41.2724 4.23066 41.3397 4.06975L41.3376 4.06871C41.3932 3.93496 41.4657 3.80018 41.5519 3.66539C41.5939 3.59957 41.6391 3.53583 41.6863 3.47418V3.42926L41.9301 3.18894C42.0551 3.0646 42.1927 2.9528 42.3408 2.85563C42.4847 2.76055 42.6423 2.67696 42.8083 2.61009L42.8115 2.61322ZM30.5707 16.7595C30.7366 16.6916 30.9079 16.6404 31.0791 16.6059C31.2514 16.5725 31.4268 16.5547 31.6054 16.5547C31.7851 16.5547 31.9605 16.5725 32.1317 16.607C32.304 16.6414 32.4742 16.6937 32.6392 16.7616C32.8009 16.8285 32.9585 16.9131 33.1066 17.0124C33.2548 17.1106 33.3924 17.2234 33.5174 17.3467C33.6456 17.4742 33.7611 17.6111 33.8588 17.7552C33.9565 17.8994 34.0416 18.0541 34.1109 18.2192C34.1771 18.3728 34.2286 18.5431 34.2654 18.7238C34.3011 18.9004 34.32 19.0759 34.32 19.2473C34.32 19.4239 34.3021 19.5994 34.2675 19.7687C34.2339 19.94 34.1803 20.1093 34.113 20.2723C34.0448 20.4374 33.9597 20.5931 33.862 20.7393C33.7632 20.8867 33.6498 21.0235 33.5247 21.1468L33.4995 21.1636C33.3777 21.2816 33.2443 21.3892 33.1024 21.4843L33.1003 21.4864C32.9554 21.5825 32.8009 21.6651 32.6392 21.732C32.4742 21.7999 32.304 21.8521 32.1317 21.8866C31.9605 21.9211 31.784 21.9388 31.6044 21.9388C31.4268 21.9388 31.2503 21.9211 31.0781 21.8876C30.9089 21.8542 30.7398 21.803 30.5717 21.734C30.4015 21.6651 30.2439 21.5825 30.1021 21.4885C29.955 21.3913 29.8174 21.2795 29.6914 21.1552L29.6703 21.1343C29.5453 21.0089 29.435 20.8752 29.3415 20.7352V20.7331C29.2459 20.5899 29.1629 20.4353 29.0957 20.2744V20.2723C29.0274 20.1072 28.9749 19.939 28.9413 19.7708V19.7687C28.9077 19.5984 28.8898 19.4228 28.8898 19.2463C28.8898 19.0749 28.9087 18.8994 28.9444 18.7228C28.9801 18.5483 29.0327 18.379 29.0999 18.2192L29.0978 18.2181C29.1535 18.0844 29.226 17.9496 29.3132 17.8148C29.3552 17.75 29.4004 17.6863 29.4476 17.6236V17.5797L29.6914 17.3384C29.8164 17.214 29.955 17.1022 30.1021 17.005C30.246 16.91 30.4036 16.8264 30.5696 16.7595H30.5707ZM16.9232 5.08535C17.0892 5.01743 17.2604 4.96624 17.4316 4.93176C17.6039 4.89832 17.7804 4.88056 17.959 4.88056C18.1302 4.88056 18.3067 4.89936 18.4853 4.93489V4.9328C18.6576 4.96728 18.8278 5.01952 18.9927 5.08744C19.1545 5.15431 19.311 5.23894 19.4602 5.3382C19.6083 5.43642 19.746 5.54926 19.871 5.6736C19.9991 5.80003 20.1136 5.9369 20.2113 6.08109C20.309 6.22528 20.3941 6.38201 20.4645 6.5471C20.5307 6.70696 20.5832 6.87518 20.619 7.04967C20.6547 7.22625 20.6736 7.40283 20.6736 7.57419C20.6736 7.75077 20.6557 7.92631 20.6221 8.09662V8.09871C20.5885 8.26693 20.536 8.43515 20.4677 8.60024C20.3994 8.76532 20.3153 8.92101 20.2166 9.06624C20.1178 9.21357 20.0044 9.35044 19.8794 9.47373L19.8552 9.49045C19.7292 9.6127 19.5957 9.72136 19.4571 9.81331H19.455C19.31 9.90944 19.1556 9.99198 18.9927 10.0589C18.8278 10.1268 18.6587 10.179 18.4853 10.2135C18.3141 10.248 18.1376 10.2657 17.958 10.2657C17.7804 10.2657 17.6039 10.248 17.4327 10.2145C17.2604 10.1811 17.0902 10.1289 16.9242 10.0609C16.7593 9.99407 16.6038 9.91153 16.4599 9.81645C16.316 9.72136 16.1794 9.61166 16.0554 9.48941L16.0386 9.47269C15.9136 9.3494 15.8012 9.21252 15.7025 9.0652C15.6048 8.91996 15.5207 8.76323 15.4514 8.59815C15.3831 8.43411 15.3306 8.26484 15.297 8.09348C15.2633 7.92317 15.2444 7.74868 15.2444 7.5721C15.2444 7.40075 15.2633 7.22521 15.2991 7.04863C15.3348 6.86996 15.3873 6.70174 15.4524 6.54501V6.54292C15.5092 6.40918 15.5806 6.27439 15.6667 6.14065C15.7088 6.07483 15.7539 6.01109 15.8012 5.94944V5.90451C15.8201 5.88571 16.0397 5.6642 16.0449 5.6642C16.1699 5.53986 16.3076 5.42806 16.4546 5.33089C16.5986 5.23581 16.7561 5.15326 16.9221 5.0843L16.9232 5.08535ZM4.11403 21.4143C4.28002 21.3464 4.45125 21.2952 4.62249 21.2607C4.79478 21.2273 4.97127 21.2095 5.14986 21.2095C5.3211 21.2095 5.49759 21.2283 5.67618 21.2639V21.2618C5.84846 21.2963 6.01865 21.3485 6.18358 21.4164C6.34537 21.4833 6.50189 21.5679 6.65107 21.6661C6.7992 21.7644 6.93682 21.8772 7.06183 22.0015C7.18999 22.129 7.3045 22.2659 7.4022 22.409C7.502 22.5553 7.5871 22.711 7.65538 22.8729L7.65328 22.874C7.72156 23.0338 7.77409 23.2031 7.80981 23.3776C7.84553 23.5542 7.86444 23.7308 7.86444 23.9021C7.86444 24.0787 7.84658 24.2532 7.81191 24.4235C7.77829 24.5949 7.72577 24.7641 7.65748 24.9271C7.5892 25.0912 7.50515 25.2479 7.40745 25.3931C7.3087 25.5405 7.19525 25.6773 7.07023 25.8006L7.05237 25.8121C6.93156 25.9312 6.79499 26.0409 6.64582 26.1392C6.49769 26.2363 6.34221 26.3199 6.18358 26.3857C6.01865 26.4537 5.84846 26.5059 5.67618 26.5404C5.50494 26.5749 5.3295 26.5926 5.14986 26.5926C4.97232 26.5926 4.79583 26.5749 4.62354 26.5414C4.45231 26.508 4.28107 26.4557 4.11508 26.3878C3.9491 26.3199 3.79257 26.2374 3.64865 26.1423C3.50473 26.0472 3.36921 25.9375 3.24524 25.8163L3.22949 25.8017C3.10447 25.6773 2.99101 25.5405 2.89226 25.3942C2.79457 25.2489 2.71052 25.0922 2.64224 24.9282C2.57395 24.7641 2.52143 24.5949 2.48781 24.4235C2.45419 24.2532 2.43633 24.0787 2.43633 23.9011C2.43633 23.7308 2.45524 23.5552 2.49096 23.3786C2.52773 23.1968 2.57921 23.0286 2.64434 22.874C2.70317 22.7371 2.77461 22.6013 2.8597 22.4707C2.90172 22.4059 2.94689 22.3422 2.99417 22.2795V22.2356L3.23789 21.9942C3.36395 21.8699 3.50052 21.7581 3.64865 21.6609C3.79257 21.5658 3.95015 21.4833 4.11614 21.4143H4.11403Z" fill="black"/>
<path fill-rule="evenodd" clip-rule="evenodd" d="M30.5715 16.7595C30.7375 16.6916 30.9087 16.6404 31.0799 16.6059C31.2522 16.5725 31.4277 16.5547 31.6063 16.5547C31.7859 16.5547 31.9613 16.5725 32.1326 16.6069C32.3049 16.6414 32.475 16.6937 32.64 16.7616C32.8018 16.8285 32.9593 16.9131 33.1075 17.0123C33.2556 17.1106 33.3932 17.2234 33.5182 17.3467C33.6464 17.4742 33.7619 17.611 33.8596 17.7552C33.9573 17.8994 34.0424 18.0541 34.1118 18.2192C34.178 18.3727 34.2294 18.5431 34.2662 18.7238C34.3019 18.9004 34.3208 19.0759 34.3208 19.2473C34.3208 19.4239 34.303 19.5994 34.2683 19.7687C34.2347 19.94 34.1811 20.1093 34.1139 20.2723C34.0456 20.4374 33.9605 20.5931 33.8628 20.7393C33.764 20.8867 33.6506 21.0235 33.5256 21.1468L33.5004 21.1636C33.3785 21.2816 33.2451 21.3892 33.1033 21.4843L33.1012 21.4864C32.9562 21.5825 32.8018 21.6651 32.64 21.732C32.475 21.7999 32.3049 21.8521 32.1326 21.8866C31.9613 21.9211 31.7848 21.9388 31.6052 21.9388C31.4277 21.9388 31.2512 21.9211 31.0789 21.8876C30.9098 21.8542 30.7406 21.803 30.5725 21.734C30.4023 21.6651 30.2448 21.5825 30.1029 21.4885C29.9559 21.3913 29.8182 21.2795 29.6922 21.1552L29.6712 21.1343C29.5462 21.0089 29.4359 20.8752 29.3424 20.7352V20.7331C29.2468 20.5899 29.1638 20.4353 29.0965 20.2744V20.2723C29.0282 20.1072 28.9757 19.939 28.9421 19.7708V19.7687C28.9085 19.5984 28.8906 19.4228 28.8906 19.2462C28.8906 19.0749 28.9095 18.8994 28.9453 18.7228C28.981 18.5483 29.0335 18.379 29.1007 18.2192L29.0986 18.2181C29.1543 18.0844 29.2268 17.9496 29.314 17.8148C29.356 17.75 29.4012 17.6863 29.4485 17.6236V17.5797L29.6922 17.3383C29.8172 17.214 29.9559 17.1022 30.1029 17.005C30.2469 16.91 30.4044 16.8264 30.5704 16.7595H30.5715Z" fill="#A6CAE2"/>
<path fill-rule="evenodd" clip-rule="evenodd" d="M42.8128 2.61322C42.9787 2.54531 43.15 2.49307 43.3212 2.45963C43.4935 2.42619 43.67 2.40843 43.8475 2.40843C44.0261 2.40843 44.2026 2.42619 44.3739 2.46067V2.46276C44.5535 2.49829 44.7237 2.55053 44.8813 2.61531C45.043 2.68218 45.2006 2.76682 45.3487 2.86608C45.4969 2.96429 45.6345 3.07714 45.7585 3.20043C45.8866 3.32686 46.0011 3.46373 46.0988 3.60792C46.1965 3.75211 46.2816 3.90884 46.352 4.07393C46.4182 4.23379 46.4707 4.40201 46.5064 4.5765C46.5422 4.75308 46.5611 4.92966 46.5611 5.10102C46.5611 5.2776 46.5432 5.45314 46.5085 5.6224C46.4749 5.79376 46.4224 5.96302 46.3541 6.12602C46.2858 6.29006 46.2018 6.44679 46.1041 6.59203C46.0053 6.73935 45.8919 6.87623 45.7669 6.99952L45.7416 7.01624C45.6198 7.13431 45.4864 7.24193 45.3435 7.33701L45.3414 7.3391C45.1964 7.43522 45.042 7.51777 44.8802 7.58464C44.7153 7.65255 44.5451 7.7048 44.3728 7.73928C44.2016 7.77376 44.0251 7.79152 43.8454 7.79152C43.6679 7.79152 43.4914 7.77376 43.3191 7.74032C43.1479 7.70689 42.9766 7.65464 42.8107 7.58673C42.6415 7.51672 42.485 7.43418 42.3442 7.34119C42.1982 7.24506 42.0616 7.13326 41.9366 7.00997L41.9251 6.99848C41.8 6.87414 41.6866 6.73726 41.5878 6.59098C41.4901 6.44575 41.4061 6.28902 41.3378 6.12498C41.2695 5.96093 41.217 5.79167 41.1834 5.62031C41.1498 5.45 41.1309 5.27551 41.1309 5.09789C41.1309 4.92653 41.1498 4.75204 41.1855 4.57441C41.2212 4.39992 41.2737 4.23066 41.341 4.06975L41.3389 4.0687C41.3945 3.93496 41.467 3.80018 41.5532 3.66539C41.5952 3.59957 41.6404 3.53583 41.6876 3.47418V3.42925L41.9314 3.18894C42.0564 3.0646 42.194 2.9528 42.3421 2.85563C42.486 2.76055 42.6436 2.67696 42.8096 2.61009L42.8128 2.61322Z" fill="#A6CAE2"/>
</g>
<defs>
<clipPath id="clip0_387_1061">
<rect width="49" height="29" fill="white"/>
</clipPath>
</defs>
</svg>
