<svg width="13" height="8" viewBox="0 0 13 8" fill="none" xmlns="http://www.w3.org/2000/svg">
<path d="M8.83858 1.85363C8.66176 1.73856 8.10128 1.49975 7.8949 1.4261C6.78055 1.02844 5.84349 1.03555 4.7312 1.43186C4.38322 1.55584 3.80911 1.829 3.49131 2.0375C2.92781 2.40723 2.4192 2.78716 1.9222 3.25951L8.83858 1.85363ZM8.83858 1.85363L8.81131 1.89553C8.7268 1.84053 8.54615 1.75358 8.35758 1.67005C8.17008 1.58699 7.97963 1.50943 7.87809 1.47319C6.77483 1.07949 5.84963 1.08644 4.74798 1.47896C4.40307 1.60185 3.83266 1.87335 3.51874 2.07931C2.95693 2.44793 2.45087 2.82604 1.95664 3.29576L1.95664 3.29576C1.91904 3.33149 1.88977 3.36278 1.86013 3.39447C1.85425 3.40076 1.84835 3.40706 1.84238 3.41341C1.80632 3.45175 1.76822 3.49095 1.71519 3.53657L1.71519 3.53657C1.65642 3.58712 1.57454 3.67223 1.52638 3.73917C1.57658 3.8093 1.66156 3.89673 1.72713 3.95134L1.72714 3.95134C1.78149 3.99662 1.81995 4.03779 1.85565 4.07708C1.85927 4.08107 1.86285 4.08502 1.86641 4.08895C1.89804 4.12386 1.92796 4.15689 1.9675 4.19259L1.9675 4.19259C2.55908 4.72678 2.84412 4.95954 3.53219 5.4079C3.86441 5.62438 4.39727 5.87396 4.76463 6.00506C5.21004 6.16401 5.70071 6.29536 6.27742 6.29536C7.23634 6.29536 8.31811 5.92755 9.12368 5.39912C9.12378 5.39905 9.12388 5.39898 9.12398 5.39892L9.67598 5.02493C9.80926 4.92909 10.1323 4.66836 10.4442 4.39632C10.6002 4.26027 10.7527 4.12195 10.8768 4.0006C10.9831 3.89661 11.0657 3.80774 11.1125 3.74435L10.6738 3.28441C10.0832 2.75111 9.79807 2.51836 9.11054 2.07036C9.06163 2.03849 9.01492 2.01285 8.96596 1.98598L8.96557 1.98577C8.91676 1.95898 8.86583 1.93101 8.81131 1.89553L8.83858 1.85363ZM4.77218 5.13897L4.77218 5.13896C4.64683 4.98795 4.56373 4.8301 4.48113 4.65278C4.34187 4.35388 4.29365 4.03153 4.29365 3.66785C4.29365 3.14753 4.56053 2.5418 4.88315 2.19386C4.88316 2.19386 4.88316 2.19386 4.88316 2.19386L4.77218 5.13897ZM4.77218 5.13897C4.99302 5.40498 5.13286 5.53512 5.45468 5.71007C6.20171 6.1162 7.1817 5.90613 7.75864 5.28393C7.95749 5.06947 8.15501 4.7041 8.26523 4.35188C8.32045 4.17542 8.35467 3.99946 8.35518 3.84507C8.3557 3.6918 8.32294 3.55192 8.23535 3.45694C8.14941 3.36373 8.04177 3.32786 7.93894 3.33889C7.83733 3.3498 7.7435 3.40611 7.68172 3.4912L7.68172 3.4912M4.77218 5.13897L7.68172 3.4912M7.68172 3.4912C7.61473 3.58349 7.5934 3.72368 7.58921 3.85595C7.58151 4.09893 7.4964 4.317 7.40293 4.47703L7.44611 4.50225L7.68172 3.4912ZM11.9955 3.69171H11.9964L2.69649 1.74893L2.6673 1.70834C2.6673 1.70834 2.66729 1.70834 2.66729 1.70834C2.26517 1.99747 2.16009 2.08715 1.81086 2.3852C1.78487 2.40738 1.75754 2.43071 1.72863 2.45536C1.63586 2.53446 1.36867 2.78377 1.12464 3.03909C1.0026 3.16677 0.885388 3.29695 0.79838 3.40876C0.754938 3.46459 0.718188 3.5169 0.692059 3.56273C0.667209 3.60632 0.647266 3.65187 0.647266 3.69175C0.647266 3.86167 0.712966 3.98652 0.808296 4.10163C0.855377 4.15848 0.910234 4.21362 0.967851 4.27048C0.975512 4.27804 0.983226 4.28564 0.99099 4.29328C1.04209 4.34359 1.09532 4.396 1.1494 4.45432C1.60829 4.94919 2.4131 5.64465 2.99349 5.9928L2.99348 5.99281L2.99431 5.99328L3.6968 6.39663L3.69679 6.39664L3.69795 6.39727C4.00229 6.5615 4.41478 6.73276 4.83897 6.8628C5.26264 6.99267 5.70176 7.08262 6.05856 7.08172C6.11849 7.08157 6.15384 7.08753 6.18851 7.0938C6.19024 7.09411 6.19196 7.09442 6.19369 7.09474C6.22846 7.10105 6.26515 7.10771 6.32139 7.10771C6.37949 7.10771 6.41332 7.1009 6.4457 7.09438L6.44693 7.09414C6.47713 7.08806 6.50698 7.08215 6.56273 7.08155C6.8546 7.07839 7.02469 7.051 7.30407 6.993C7.82888 6.88407 8.46392 6.657 8.93018 6.40516C8.96059 6.38874 8.98958 6.37306 9.01782 6.35779C9.11093 6.30743 9.19581 6.26153 9.2962 6.20791L9.29628 6.20806L9.29975 6.20583L9.97339 5.77136L9.97342 5.77142L9.97548 5.76994C10.536 5.36689 10.9992 4.98717 11.4824 4.46615C11.5113 4.43497 11.539 4.40517 11.5656 4.37665C11.6777 4.25617 11.7688 4.15836 11.8372 4.07516C11.9212 3.97291 11.9773 3.88541 11.9946 3.79693L11.9955 3.79711V3.78739V3.69171ZM5.63378 3.71524C5.63378 3.96308 5.71773 4.1534 5.84774 4.28182C5.97723 4.40973 6.14943 4.47325 6.32089 4.47325C6.49234 4.47325 6.66455 4.40973 6.79404 4.28182C6.92404 4.1534 7.008 3.96308 7.008 3.71524C7.008 3.4847 6.92308 3.30793 6.79255 3.18917C6.66285 3.07117 6.49114 3.01312 6.32089 3.01312C6.15064 3.01312 5.97892 3.07117 5.84923 3.18917C5.7187 3.30793 5.63378 3.4847 5.63378 3.71524Z" fill="black" stroke="black" stroke-width="0.1"/>
</svg>
