<svg width="19" height="19" viewBox="0 0 19 19" fill="none" xmlns="http://www.w3.org/2000/svg">
<path d="M7.32656 2.08918C7.05064 1.87223 6.74148 1.70867 6.38638 1.59856L6.3863 1.59854C6.02585 1.487 5.61868 1.43214 5.15247 1.43214C4.65192 1.43214 4.17545 1.52945 3.74186 1.70607M7.32656 2.08918L7.23385 2.20709L7.32656 2.08917C7.32656 2.08918 7.32656 2.08918 7.32656 2.08918ZM7.32656 2.08918C7.62087 2.32056 7.88963 2.61877 8.14675 2.97801C8.4141 3.35154 8.66574 3.78632 8.91678 4.27974L9.5 5.42607L10.0832 4.27974C10.3343 3.78632 10.5859 3.35157 10.8532 2.97801C11.1104 2.61873 11.3791 2.32056 11.6734 2.08917C12.2357 1.6471 12.9275 1.43214 13.8477 1.43214C14.3482 1.43214 14.8247 1.52949 15.2583 1.70607L15.2017 1.84499L15.2583 1.70607C15.7093 1.88973 16.116 2.15973 16.4574 2.49527C16.7988 2.8308 17.0738 3.23078 17.261 3.67466C17.441 4.10146 17.5403 4.57064 17.5403 5.06364C17.5403 6.05221 17.2824 7.04581 16.837 8.03984C16.3815 9.05617 15.7318 10.0739 14.9558 11.0907L14.8366 10.9997L14.9558 11.0908C14.1955 12.0869 13.3034 13.0937 12.3442 14.1047L12.2354 14.0014L12.3442 14.1047C11.4678 15.0282 10.5402 15.9504 9.60531 16.8709L9.50008 16.9745L9.39484 16.8709C8.45991 15.9504 7.5323 15.0282 6.65594 14.1047L6.76476 14.0014L6.65594 14.1047C5.69673 13.0937 4.80458 12.0869 4.04435 11.0907C3.26837 10.0739 2.61864 9.05617 2.16319 8.03984C1.71773 7.04581 1.4599 6.05221 1.4599 5.06364C1.4599 4.57067 1.55918 4.10146 1.73914 3.67467L1.73914 3.67466C1.92632 3.23078 2.20134 2.8308 2.54276 2.49527C2.88418 2.15973 3.29089 1.88973 3.74186 1.70607M3.74186 1.70607L3.79844 1.84499L3.74185 1.70607C3.74185 1.70607 3.74186 1.70607 3.74186 1.70607ZM9.37503 2.47757L9.49999 2.66578L9.62496 2.47758C9.75163 2.28682 9.88075 2.1086 10.0135 1.9428L9.89647 1.84903L10.0135 1.9428C10.2731 1.61878 10.5515 1.33691 10.8589 1.0952L10.7662 0.977282L10.8589 1.0952C11.261 0.779097 11.699 0.542783 12.1939 0.385329L12.1484 0.24239L12.1939 0.385329C12.6848 0.229142 13.2289 0.15 13.8475 0.15C14.5238 0.15 15.1701 0.282871 15.7609 0.52347C16.374 0.773162 16.9249 1.13824 17.3852 1.59059C17.8455 2.04293 18.2167 2.58409 18.4705 3.18594C18.715 3.76586 18.85 4.40008 18.85 5.06364C18.85 6.21051 18.5639 7.35317 18.0585 8.49546C17.5622 9.61734 16.8535 10.7361 16.0001 11.8543C15.1653 12.9482 14.202 14.0316 13.1727 15.1112C12.1269 16.2081 11.0465 17.2699 9.964 18.3337L9.5 18.7897L9.036 18.3337C7.95354 17.2699 6.87308 16.2081 5.82727 15.1112C4.79803 14.0316 3.83471 12.9482 2.99995 11.8543C2.14654 10.7361 1.43782 9.61734 0.941461 8.49546L0.804287 8.55615L0.94146 8.49545C0.436081 7.3532 0.15 6.21051 0.15 5.06364C0.15 4.40008 0.284975 3.76586 0.529509 3.18594C0.783292 2.58409 1.15449 2.04293 1.61477 1.59059C2.07505 1.13824 2.62599 0.773162 3.2391 0.52347C3.82989 0.282871 4.47617 0.15 5.15247 0.15C5.77106 0.15 6.31523 0.229108 6.80609 0.385326L6.8061 0.385328C7.30093 0.542783 7.73903 0.779099 8.14107 1.0952L8.14108 1.09521C8.44854 1.3369 8.72693 1.61881 8.98645 1.9428L8.98647 1.94282C9.11929 2.1086 9.24836 2.28678 9.37503 2.47757Z" fill="black" stroke="white" stroke-width="0.3"/>
</svg>
