<svg width="26" height="26" viewBox="0 0 26 26" fill="none" xmlns="http://www.w3.org/2000/svg">
<path d="M22.6843 18.4167H21.666V10.8333C21.666 6.04687 17.7858 2.16667 12.9993 2.16667C8.21285 2.16667 4.33266 6.04687 4.33266 10.8333V18.4167H3.36849C2.77018 18.4167 2.28516 18.9017 2.28516 19.5C2.28516 20.0983 2.77018 20.5833 3.36849 20.5833H22.6843C23.2826 20.5833 23.7677 20.0983 23.7677 19.5C23.7677 18.9017 23.2826 18.4167 22.6843 18.4167Z" fill="#1F7BB5"/>
<path d="M12.9984 23.8333C14.3723 23.8295 15.5954 22.962 16.0534 21.6667H9.94336C10.4013 22.962 11.6244 23.8295 12.9984 23.8333Z" fill="#1F7BB5"/>
</svg>
