<svg width="22" height="22" viewBox="0 0 22 22" fill="none" xmlns="http://www.w3.org/2000/svg">
<path d="M17.4993 3.41667V11C17.4993 12.7949 16.0443 14.25 14.2493 14.25H9.19018L6.88268 15.9833L5.14935 17.2833C4.96183 17.424 4.73375 17.5 4.49935 17.5C4.32929 17.503 4.16135 17.462 4.01185 17.3808C3.64755 17.1973 3.41725 16.8246 3.41602 16.4167V14.25C1.62109 14.25 0.166016 12.7949 0.166016 11V3.41667C0.166016 1.62175 1.62109 0.166672 3.41602 0.166672H14.2493C16.0443 0.166672 17.4993 1.62175 17.4993 3.41667Z" fill="#1F7BB5"/>
<path d="M21.8328 7.75V15.3333C21.8328 17.1283 20.3778 18.5833 18.5828 18.5833V20.75C18.5816 21.1579 18.3513 21.5306 17.987 21.7142C17.8375 21.7953 17.6696 21.8363 17.4995 21.8333C17.2651 21.8333 17.037 21.7573 16.8495 21.6167L12.8087 18.5833H7.74951C7.1087 18.5805 6.48304 18.3883 5.95117 18.0308L9.54784 15.3333H14.2495C16.6427 15.3333 18.5828 13.3932 18.5828 11V4.5C20.3778 4.5 21.8328 5.95507 21.8328 7.75Z" fill="#1F7BB5"/>
</svg>
