<svg width="19" height="20" viewBox="0 0 19 20" fill="none" xmlns="http://www.w3.org/2000/svg">
<rect x="0.1875" width="18.4382" height="19.959" rx="4" fill="#1F7BB5" fill-opacity="0.4"/>
<path d="M12.7997 6.44448L12.8664 6.33672H12.7488M12.7997 6.44448L12.8107 6.23672L12.7488 6.33672M12.7997 6.44448C12.7613 6.50656 12.7312 6.54124 12.6979 6.57959L12.6977 6.57972C12.6757 6.60513 12.6518 6.63261 12.6253 6.66933L12.7997 6.44448ZM12.7488 6.33672H6.05041M12.7488 6.33672L12.7147 6.39186L12.7147 6.39187C12.6806 6.44693 12.6548 6.47671 12.6223 6.51411L6.05041 6.33672M6.05041 6.33672C6.2643 6.59599 6.4819 6.86634 6.70162 7.13932C7.26491 7.83916 7.84214 8.55632 8.40647 9.14865C8.40654 9.14873 8.40662 9.14881 8.4067 9.14889L8.40845 9.1507C8.45401 9.19794 8.49854 9.24411 8.54532 9.30752C8.54532 9.30753 8.54532 9.30753 8.54533 9.30754L6.05041 6.33672ZM10.3976 15.4962L10.4394 15.5871C10.4394 15.5871 10.4394 15.5871 10.4394 15.5871C10.3835 15.6128 10.3222 15.6255 10.2606 15.6235C10.1994 15.6214 10.1381 15.6045 10.0821 15.5719L10.082 15.5719C9.92928 15.4828 9.83669 15.2888 9.83669 15.0089V10.1697C9.83669 9.98995 9.86786 9.85988 9.92197 9.75401C9.97417 9.65189 10.0449 9.57888 10.1086 9.51309L10.112 9.50952C10.1635 9.45632 10.2129 9.40526 10.261 9.34262L10.2635 9.33936L10.2636 9.33942L11.9582 7.31103L11.9621 7.30639L11.9622 7.30651C12.0395 7.22462 12.0974 7.1514 12.1577 7.07509L12.1578 7.07503C12.2146 7.00313 12.2741 6.92783 12.3506 6.84675L12.3506 6.84674C12.3971 6.79753 12.424 6.76794 12.4512 6.73467C12.4774 6.70258 12.5019 6.66937 12.5442 6.61081L12.5442 6.61076C12.5735 6.57025 12.5998 6.53992 12.622 6.51448L12.6223 6.51413L10.577 12.5093H10.5775H10.6764C10.6768 12.5447 10.677 12.5777 10.677 12.6092C10.677 12.6092 10.677 12.6093 10.677 12.6093H10.5775L10.5796 15.2054C10.5738 15.3491 10.4963 15.4509 10.3976 15.4962ZM10.3976 15.4962C10.3555 15.5156 10.3096 15.5251 10.264 15.5235C10.219 15.522 10.1739 15.5096 10.1324 15.4855L10.3976 15.4962ZM7.93134 9.91313L7.9315 9.91299L4.93393 6.35236C4.85945 6.27281 4.79316 6.19999 4.75303 6.12258L4.8418 6.07655M7.93134 9.91313L13.1413 7.22688L13.1427 7.22525C13.3532 6.98305 13.5907 6.70977 13.7757 6.48968C13.8683 6.37951 13.9486 6.28169 14.006 6.20734C14.0346 6.17036 14.0586 6.13775 14.0759 6.11163C14.0844 6.09874 14.0925 6.08557 14.0989 6.07316C14.1021 6.06697 14.1057 6.0593 14.1087 6.05081C14.1112 6.04376 14.116 6.0289 14.116 6.01039C14.116 5.9083 14.1137 5.75467 14.0622 5.63818M7.93134 9.91313L7.93577 9.91775M7.93134 9.91313L7.93577 9.91775M4.8418 6.07655L4.75317 6.12286C4.71324 6.04646 4.69687 5.96139 4.69687 5.85049C4.69687 5.74259 4.74169 5.64244 4.8097 5.56926L4.88295 5.63733M4.8418 6.07655C4.81169 6.01892 4.79688 5.95122 4.79688 5.85049C4.79688 5.77027 4.83041 5.69387 4.88295 5.63733M4.8418 6.07655C4.87477 6.14014 4.93152 6.20349 5.00873 6.28593L4.88295 5.63733M4.88295 5.63733L4.80953 5.56944C4.87705 5.49641 4.97286 5.44419 5.08001 5.44419H13.7328C13.8148 5.44419 13.8853 5.46176 13.943 5.49792C14.0011 5.53435 14.0387 5.58496 14.0622 5.63818M14.0622 5.63818L13.9708 5.6786L14.0622 5.63817C14.0622 5.63818 14.0622 5.63818 14.0622 5.63818ZM7.93577 9.91775C7.96821 9.95163 7.99131 9.97428 8.01016 9.99276M7.93577 9.91775L8.01016 9.99276M8.13652 10.4291L8.13652 10.429C8.13862 10.2452 8.13777 10.1858 8.11894 10.1326L8.13652 10.4291ZM8.13652 10.4291L8.13558 10.5186L8.13558 10.5186L8.13652 10.4291ZM8.41421 13.7497L8.41418 13.7497C8.30207 13.7093 8.2085 13.6172 8.16243 13.4834L8.41421 13.7497ZM8.41421 13.7497C8.48224 13.7742 8.55555 13.7795 8.62602 13.7656L8.60724 13.6702M8.41421 13.7497L8.60724 13.6702M8.60724 13.6702L8.62603 13.7656C8.69592 13.7519 8.76277 13.7187 8.81884 13.6673L8.81888 13.6672M8.60724 13.6702L8.81888 13.6672M8.81888 13.6672C8.91802 13.5762 8.97603 13.4326 8.97603 13.2492M8.81888 13.6672L8.97603 13.2492M8.01016 9.99276L8.01228 9.99483M8.01016 9.99276L8.01228 9.99483M8.01228 9.99483C8.01228 9.99484 8.01228 9.99484 8.01229 9.99484L8.01228 9.99483ZM8.97603 13.2492V10.0497M8.97603 13.2492V10.0497M8.97603 10.0497C8.97603 9.8169 8.8583 9.68121 8.73323 9.53706M8.97603 10.0497L8.73323 9.53706M8.73323 9.53706C8.73094 9.53441 8.72863 9.53176 8.72633 9.5291L8.73323 9.53706Z" fill="black" stroke="black" stroke-width="0.2"/>
</svg>
