<svg width="21" height="20" viewBox="0 0 21 20" fill="none" xmlns="http://www.w3.org/2000/svg">
<rect x="0.3125" width="19.959" height="19.959" rx="4" fill="#1F7BB5" fill-opacity="0.4"/>
<mask id="path-2-outside-1_588_8575" maskUnits="userSpaceOnUse" x="2.63672" y="5.65308" width="15" height="9" fill="black">
<rect fill="white" x="2.63672" y="5.65308" width="15" height="9"/>
<path fill-rule="evenodd" clip-rule="evenodd" d="M7.36353 9.74326L5.53407 11.7674L5.40199 11.7324C5.36776 11.7235 5.33723 11.7162 5.31099 11.7109C5.28189 11.7053 5.25194 11.7003 5.22084 11.6964C5.19317 11.6927 5.16265 11.6899 5.12956 11.688C5.10188 11.6863 5.0705 11.6855 5.03542 11.6855C4.94213 11.6855 4.85113 11.6944 4.76355 11.7115C4.6734 11.7291 4.58639 11.7551 4.50367 11.7889C4.4178 11.8239 4.33678 11.8664 4.26147 11.9156C4.18473 11.966 4.11284 12.0236 4.04751 12.0873L4.00472 12.129C3.94938 12.1877 3.89946 12.2512 3.85524 12.3186C3.81159 12.3852 3.77365 12.4559 3.74227 12.5297C3.70804 12.6103 3.68122 12.6956 3.66325 12.7845C3.64585 12.8704 3.63672 12.9593 3.63672 13.0505C3.63672 13.1411 3.64585 13.2294 3.66325 13.315C3.68094 13.4014 3.70718 13.4864 3.74227 13.5687C3.77793 13.652 3.82129 13.7311 3.87178 13.8047C3.92285 13.8791 3.98161 13.949 4.04637 14.0125L4.05065 14.0167C4.11512 14.0793 4.18616 14.1361 4.26261 14.1859C4.33821 14.2354 4.41922 14.2779 4.50424 14.3123C4.58668 14.3458 4.67369 14.3718 4.76383 14.3895C4.85141 14.4065 4.94213 14.4155 5.03542 14.4155C5.12927 14.4155 5.22084 14.4065 5.30871 14.3895C5.4 14.3718 5.48757 14.3458 5.56973 14.3123C5.6439 14.2823 5.71608 14.2451 5.78569 14.2018C5.85301 14.1599 5.91663 14.1123 5.97511 14.0606L6.02332 14.0139C6.08836 13.9501 6.14741 13.8805 6.19848 13.8061C6.24954 13.732 6.29319 13.6526 6.32828 13.5701C6.36336 13.4878 6.39047 13.4025 6.40815 13.3159C6.42555 13.2303 6.4344 13.1416 6.4344 13.051C6.4344 12.9803 6.42898 12.9112 6.41842 12.8441C6.40758 12.7758 6.39161 12.7087 6.3705 12.6436C6.34882 12.5759 6.32228 12.5116 6.29176 12.4512C6.25981 12.388 6.22358 12.3281 6.18364 12.2722L6.08323 12.1318L8.03649 9.97034L8.16743 10.0033C8.19853 10.0112 8.22706 10.017 8.25245 10.0218C8.27812 10.0266 8.30665 10.031 8.33831 10.0349C8.36912 10.0389 8.39765 10.0414 8.4239 10.0431C8.44929 10.0445 8.47924 10.0453 8.5129 10.0453C8.57224 10.0453 8.63072 10.0417 8.68749 10.0347C8.7454 10.0277 8.80217 10.017 8.85751 10.0033C8.914 9.98936 8.96962 9.97202 9.02297 9.95161C9.07803 9.93035 9.13052 9.90658 9.17987 9.88029C9.19271 9.86855 9.30054 9.81597 9.32222 9.80451L10.9169 11.2884L10.8778 11.4162C10.8673 11.4508 10.8587 11.4827 10.8521 11.5112C10.8456 11.5395 10.8396 11.5722 10.8345 11.6083C10.8296 11.6402 10.8259 11.6726 10.8236 11.7053C10.8213 11.7361 10.8202 11.7694 10.8202 11.8049C10.8202 11.8955 10.8293 11.9839 10.8467 12.0694C10.8644 12.1561 10.8907 12.2409 10.9257 12.3231C10.9614 12.4064 11.0048 12.4853 11.0553 12.5588C11.1058 12.6324 11.1645 12.702 11.2307 12.7669L11.2324 12.7691C11.2975 12.8326 11.3691 12.8899 11.4455 12.94C11.5223 12.9901 11.6036 13.0323 11.6877 13.0664C11.7702 13.1 11.8572 13.126 11.9473 13.1436C12.0349 13.1606 12.1256 13.1696 12.2189 13.1696C12.3127 13.1696 12.4043 13.1606 12.4922 13.1436C12.5835 13.126 12.6711 13.1 12.7532 13.0664C12.8274 13.0362 12.8996 12.9993 12.9692 12.9557C13.0385 12.9123 13.1035 12.8637 13.1634 12.81L13.2068 12.7677C13.2718 12.704 13.3306 12.6343 13.382 12.5597C13.4324 12.4861 13.4761 12.407 13.5118 12.3234C13.5468 12.2411 13.5739 12.1558 13.5916 12.0692C13.6087 11.9855 13.6179 11.8969 13.6179 11.8043C13.6179 11.7487 13.6147 11.695 13.6085 11.6435C13.6016 11.5876 13.5922 11.5353 13.5805 11.4869C13.5682 11.4374 13.552 11.3862 13.5323 11.3339C13.512 11.2805 13.4904 11.2316 13.4672 11.1874L13.3991 11.0582L14.9567 9.26505C14.9715 9.26981 15.0913 9.31176 15.099 9.31176C15.1352 9.32378 15.1715 9.33413 15.2071 9.3428C15.2448 9.35203 15.2822 9.35958 15.3175 9.36517C15.3518 9.37076 15.3889 9.37496 15.4288 9.37831C15.4653 9.38111 15.5035 9.38279 15.5432 9.38279C15.637 9.38279 15.7286 9.37384 15.8165 9.35678C15.9078 9.33916 15.9953 9.31287 16.0775 9.2796C16.1534 9.24883 16.2256 9.21192 16.2935 9.16941C16.3611 9.12718 16.4247 9.07964 16.4834 9.02763L16.5311 8.98092C16.5961 8.91716 16.6549 8.84753 16.7062 8.77286C16.7567 8.69931 16.8004 8.62017 16.836 8.53683C16.8711 8.45461 16.8982 8.36932 16.9159 8.28263C16.9333 8.19705 16.9422 8.1084 16.9422 8.01807C16.9422 7.9269 16.933 7.83797 16.9156 7.75212C16.8977 7.66319 16.8709 7.5779 16.8366 7.49735C16.801 7.41374 16.7576 7.3346 16.7071 7.26105C16.656 7.18666 16.5976 7.11702 16.5325 7.05382C16.4672 6.99006 16.3956 6.93273 16.3191 6.88267C16.2435 6.83317 16.1628 6.79067 16.0778 6.75627C15.9956 6.72299 15.9081 6.69698 15.8168 6.67908C15.7289 6.66203 15.6376 6.65308 15.5435 6.65308C15.4505 6.65308 15.3598 6.66203 15.2722 6.67908C15.182 6.6967 15.0945 6.72271 15.0117 6.75655C14.9259 6.79151 14.8446 6.83401 14.7695 6.88323C14.6928 6.93357 14.6209 6.99118 14.5556 7.05494L14.5125 7.09689C14.4574 7.15562 14.4072 7.2191 14.3633 7.28649C14.3196 7.35305 14.2817 7.42381 14.2503 7.49735C14.2161 7.5779 14.1893 7.66319 14.1713 7.75212C14.1539 7.83797 14.1448 7.9269 14.1448 8.01807C14.1448 8.08323 14.1491 8.14587 14.1576 8.20516C14.1662 8.26613 14.1796 8.32709 14.1973 8.38778C14.2152 8.44958 14.2372 8.50859 14.262 8.56368C14.2871 8.61905 14.3174 8.67526 14.3525 8.73035L14.4378 8.86487L12.9192 10.6127L12.7695 10.5495C12.727 10.5313 12.6827 10.5154 12.6374 10.5014C12.5912 10.4871 12.5455 10.4754 12.5007 10.4665C12.4557 10.4575 12.4095 10.4505 12.3621 10.4458C12.3185 10.4416 12.2708 10.4393 12.2192 10.4393C12.1496 10.4393 12.082 10.4441 12.0169 10.4536C11.9504 10.4631 11.884 10.4776 11.8195 10.4967C11.7528 10.5162 11.6894 10.54 11.6301 10.5671C11.5682 10.5957 11.5086 10.6281 11.4524 10.6644L11.3052 10.7595L9.75698 9.31875L9.81346 9.18172C9.82972 9.14201 9.84427 9.10146 9.85683 9.06035C9.86881 9.02008 9.87936 8.97841 9.88763 8.93562C9.89619 8.89227 9.90275 8.84977 9.90675 8.80838C9.91046 8.7695 9.91245 8.72644 9.91245 8.67918C9.91245 8.58801 9.90333 8.49908 9.88592 8.4135C9.86795 8.32457 9.84114 8.23928 9.8069 8.15874C9.77124 8.07512 9.72788 7.99598 9.67739 7.92271C9.62632 7.84832 9.56756 7.77869 9.5028 7.71521C9.43747 7.65144 9.36615 7.59412 9.28942 7.54406C9.21382 7.49456 9.13309 7.45205 9.04807 7.41765C8.96563 7.38437 8.87834 7.35837 8.78705 7.34047C8.69918 7.32341 8.60761 7.31446 8.51376 7.31446C8.42047 7.31446 8.32947 7.32341 8.24189 7.34047C8.15174 7.35809 8.06474 7.38409 7.98201 7.41793C7.89614 7.45289 7.81512 7.4954 7.73981 7.54462C7.66307 7.59495 7.59147 7.65256 7.52585 7.71604L7.48278 7.75799C7.42772 7.81672 7.37751 7.8802 7.3333 7.94788C7.28965 8.01444 7.25171 8.08519 7.22033 8.15874C7.18609 8.23928 7.15928 8.32457 7.14131 8.41322C7.1239 8.49908 7.11478 8.58801 7.11478 8.67918C7.11478 8.75328 7.1202 8.82348 7.13104 8.88948C7.14216 8.95855 7.15928 9.02679 7.18124 9.09362C7.2035 9.16046 7.23117 9.2259 7.26397 9.2891C7.29792 9.35426 7.33586 9.41551 7.37694 9.47144L7.48078 9.61238L7.36353 9.74326ZM15.2628 7.35249C15.3078 7.33432 15.3543 7.32033 15.4008 7.31138C15.4476 7.30243 15.4955 7.29768 15.5438 7.29768C15.5923 7.29768 15.6402 7.30243 15.6867 7.31166C15.7355 7.32117 15.7817 7.33571 15.8245 7.35305C15.8684 7.37095 15.9112 7.3936 15.9514 7.42017C15.9916 7.44646 16.029 7.47666 16.0627 7.50966C16.0975 7.5435 16.1286 7.58013 16.1551 7.61872C16.1816 7.65732 16.2047 7.69927 16.2238 7.74345C16.2418 7.78624 16.2561 7.83126 16.2658 7.87796C16.2755 7.92523 16.2806 7.97249 16.2806 8.01835C16.2806 8.06561 16.2758 8.1126 16.2664 8.1579C16.2572 8.20376 16.243 8.24907 16.2244 8.29269C16.2059 8.3366 16.1831 8.37855 16.1565 8.41742C16.1297 8.45685 16.0989 8.49349 16.065 8.52648L16.0581 8.53096C16.025 8.56256 15.9888 8.59136 15.95 8.61681C15.9106 8.64254 15.8681 8.66519 15.8242 8.68309C15.7794 8.70127 15.7332 8.71525 15.6864 8.72448C15.6399 8.73371 15.592 8.73846 15.5432 8.73846C15.495 8.73846 15.447 8.73371 15.4003 8.72476C15.3538 8.71581 15.3073 8.70183 15.2622 8.68365C15.2163 8.66491 15.1738 8.64282 15.1355 8.61793C15.0959 8.5922 15.0588 8.56228 15.0248 8.52928L15.0217 8.5262C14.9878 8.49293 14.9569 8.45629 14.9301 8.41714C14.9036 8.37827 14.8808 8.33632 14.8622 8.29241C14.8437 8.24851 14.8294 8.2032 14.8203 8.15734C14.8112 8.11176 14.806 8.06505 14.806 8.01751C14.806 7.97165 14.8112 7.92495 14.8209 7.87741C14.8306 7.8307 14.8448 7.7854 14.8631 7.74233C14.8782 7.70654 14.8973 7.67018 14.9207 7.63411C14.9321 7.61649 14.9444 7.59943 14.9572 7.58293V7.5709L15.0234 7.50658C15.0574 7.4733 15.0947 7.44338 15.135 7.41737C15.174 7.39192 15.2177 7.37039 15.2628 7.35249ZM11.9388 11.1387C11.9838 11.1206 12.0303 11.1069 12.0768 11.0976C12.1236 11.0887 12.1713 11.0839 12.2197 11.0839C12.2685 11.0839 12.3162 11.0887 12.3627 11.0979C12.4095 11.1071 12.4557 11.1211 12.5005 11.1393C12.5444 11.1572 12.5872 11.1799 12.6274 11.2064C12.6676 11.2327 12.705 11.2629 12.7389 11.2959C12.7737 11.33 12.8051 11.3667 12.8317 11.4053C12.8582 11.4438 12.8813 11.4852 12.9001 11.5294C12.9181 11.5705 12.9321 11.6161 12.9421 11.6645C12.9518 11.7118 12.9569 11.7587 12.9569 11.8046C12.9569 11.8519 12.952 11.8988 12.9426 11.9441C12.9335 11.99 12.919 12.0353 12.9007 12.0789C12.8822 12.1231 12.859 12.1648 12.8325 12.2039C12.8057 12.2434 12.7749 12.28 12.7409 12.313L12.7341 12.3175C12.701 12.3491 12.6648 12.3779 12.6263 12.4033C12.5869 12.4291 12.5444 12.4517 12.5005 12.4696C12.4557 12.4878 12.4095 12.5018 12.3627 12.511C12.3162 12.5202 12.2682 12.525 12.2195 12.525C12.1713 12.525 12.1233 12.5202 12.0765 12.5113C12.0306 12.5023 11.9847 12.4886 11.939 12.4702C11.8928 12.4517 11.85 12.4296 11.8115 12.4045C11.7716 12.3785 11.7342 12.3485 11.7 12.3152L11.6943 12.3097C11.6603 12.2761 11.6304 12.2403 11.605 12.2028C11.579 12.1645 11.5565 12.1226 11.5382 12.0795C11.5197 12.0353 11.5054 11.9897 11.4963 11.9447C11.4872 11.8991 11.4823 11.8516 11.4823 11.8043C11.4823 11.7585 11.4875 11.7115 11.4971 11.6642C11.5068 11.6175 11.5211 11.5722 11.5394 11.5294C11.5545 11.4936 11.5736 11.4573 11.5973 11.4212C11.6087 11.4039 11.621 11.3868 11.6338 11.37V11.3583L11.7 11.2937C11.7339 11.2604 11.7716 11.2305 11.8115 11.2045C11.8506 11.179 11.8937 11.1566 11.9388 11.1387ZM8.23276 8.01416C8.27784 7.99598 8.32434 7.98228 8.37084 7.97305C8.41762 7.9641 8.46555 7.95934 8.51404 7.95934C8.56054 7.95934 8.60847 7.96438 8.65696 7.97389C8.70375 7.98312 8.74996 7.99654 8.79475 8.01472C8.83868 8.03261 8.88119 8.05527 8.9217 8.08183C8.96192 8.10812 8.99929 8.13832 9.03324 8.1716C9.06804 8.20544 9.09914 8.24208 9.12567 8.28067C9.1522 8.31926 9.17531 8.36121 9.19442 8.40539C9.21239 8.44818 9.22666 8.49321 9.23636 8.53991C9.24605 8.58717 9.25119 8.63443 9.25119 8.68029C9.25119 8.72756 9.24634 8.77454 9.23721 8.82012C9.22808 8.86515 9.21382 8.91073 9.19528 8.95492C9.17673 8.9991 9.15391 9.04077 9.1271 9.07964C9.10028 9.11907 9.06947 9.15571 9.03552 9.18871L9.02896 9.19318C8.99473 9.2259 8.9585 9.25499 8.92084 9.2796C8.88147 9.30532 8.83897 9.32742 8.79475 9.34531C8.74996 9.36349 8.70403 9.37747 8.65696 9.3867C8.61046 9.39593 8.56254 9.40069 8.51376 9.40069C8.46555 9.40069 8.41762 9.39593 8.37112 9.38698C8.32434 9.37803 8.27812 9.36405 8.23305 9.34587C8.18826 9.32798 8.14604 9.30588 8.10696 9.28043C8.06787 9.25499 8.03079 9.22562 7.99713 9.1929L7.99256 9.18843C7.95861 9.15543 7.92809 9.11879 7.90127 9.07936C7.87474 9.04049 7.85192 8.99854 7.83309 8.95436C7.81455 8.91045 7.80029 8.86515 7.79116 8.81928C7.78203 8.7737 7.7769 8.727 7.7769 8.67974C7.7769 8.63387 7.78203 8.58689 7.79173 8.53963C7.80143 8.49181 7.81569 8.44678 7.83338 8.40483C7.84878 8.36904 7.86818 8.3324 7.89158 8.29661C7.90299 8.27899 7.91525 8.26193 7.92809 8.24543V8.23341C7.93323 8.22837 7.99427 8.16909 7.99427 8.16909C8.02822 8.13581 8.06559 8.10588 8.10553 8.07988C8.14461 8.05443 8.18769 8.03261 8.23276 8.01416ZM4.75442 12.3846C4.79949 12.3664 4.84599 12.3527 4.89249 12.3435C4.93928 12.3345 4.9872 12.3298 5.0357 12.3298C5.0822 12.3298 5.13013 12.3348 5.17862 12.3443C5.22541 12.3536 5.27162 12.367 5.31641 12.3852C5.36034 12.4031 5.40285 12.4257 5.44336 12.452C5.48358 12.4783 5.52095 12.5085 5.5549 12.5418C5.5897 12.5759 5.6208 12.6125 5.64733 12.6508C5.67443 12.69 5.69754 12.7317 5.71608 12.775C5.73462 12.8178 5.74831 12.8634 5.75801 12.9101C5.76771 12.9573 5.77285 13.0046 5.77285 13.0505C5.77285 13.0977 5.768 13.1444 5.75858 13.19C5.74946 13.2359 5.73519 13.2812 5.71665 13.3248C5.69811 13.3687 5.67528 13.4107 5.64875 13.4495C5.62194 13.489 5.59113 13.5256 5.55718 13.5586L5.55233 13.5617C5.51952 13.5936 5.48244 13.6229 5.44193 13.6492C5.40171 13.6752 5.35949 13.6976 5.31641 13.7152C5.27162 13.7334 5.22541 13.7474 5.17862 13.7566C5.13212 13.7658 5.08448 13.7706 5.0357 13.7706C4.98749 13.7706 4.93956 13.7658 4.89278 13.7569C4.84628 13.7479 4.79978 13.7339 4.75471 13.7158C4.70963 13.6976 4.66713 13.6755 4.62804 13.65C4.58896 13.6246 4.55216 13.5952 4.5185 13.5628L4.51422 13.5589C4.48027 13.5256 4.44946 13.489 4.42265 13.4498C4.39612 13.4109 4.3733 13.369 4.35475 13.3251C4.33621 13.2812 4.32195 13.2359 4.31282 13.19C4.30369 13.1444 4.29884 13.0977 4.29884 13.0502C4.29884 13.0046 4.30397 12.9576 4.31367 12.9104C4.32366 12.8617 4.33764 12.8167 4.35532 12.7753C4.3713 12.7386 4.3907 12.7023 4.4138 12.6673C4.42522 12.65 4.43748 12.6329 4.45032 12.6162V12.6044L4.5165 12.5398C4.55074 12.5065 4.58782 12.4766 4.62804 12.4506C4.66713 12.4252 4.70935 12.4031 4.75442 12.3846Z"/>
</mask>
<path fill-rule="evenodd" clip-rule="evenodd" d="M7.36353 9.74326L5.53407 11.7674L5.40199 11.7324C5.36776 11.7235 5.33723 11.7162 5.31099 11.7109C5.28189 11.7053 5.25194 11.7003 5.22084 11.6964C5.19317 11.6927 5.16265 11.6899 5.12956 11.688C5.10188 11.6863 5.0705 11.6855 5.03542 11.6855C4.94213 11.6855 4.85113 11.6944 4.76355 11.7115C4.6734 11.7291 4.58639 11.7551 4.50367 11.7889C4.4178 11.8239 4.33678 11.8664 4.26147 11.9156C4.18473 11.966 4.11284 12.0236 4.04751 12.0873L4.00472 12.129C3.94938 12.1877 3.89946 12.2512 3.85524 12.3186C3.81159 12.3852 3.77365 12.4559 3.74227 12.5297C3.70804 12.6103 3.68122 12.6956 3.66325 12.7845C3.64585 12.8704 3.63672 12.9593 3.63672 13.0505C3.63672 13.1411 3.64585 13.2294 3.66325 13.315C3.68094 13.4014 3.70718 13.4864 3.74227 13.5687C3.77793 13.652 3.82129 13.7311 3.87178 13.8047C3.92285 13.8791 3.98161 13.949 4.04637 14.0125L4.05065 14.0167C4.11512 14.0793 4.18616 14.1361 4.26261 14.1859C4.33821 14.2354 4.41922 14.2779 4.50424 14.3123C4.58668 14.3458 4.67369 14.3718 4.76383 14.3895C4.85141 14.4065 4.94213 14.4155 5.03542 14.4155C5.12927 14.4155 5.22084 14.4065 5.30871 14.3895C5.4 14.3718 5.48757 14.3458 5.56973 14.3123C5.6439 14.2823 5.71608 14.2451 5.78569 14.2018C5.85301 14.1599 5.91663 14.1123 5.97511 14.0606L6.02332 14.0139C6.08836 13.9501 6.14741 13.8805 6.19848 13.8061C6.24954 13.732 6.29319 13.6526 6.32828 13.5701C6.36336 13.4878 6.39047 13.4025 6.40815 13.3159C6.42555 13.2303 6.4344 13.1416 6.4344 13.051C6.4344 12.9803 6.42898 12.9112 6.41842 12.8441C6.40758 12.7758 6.39161 12.7087 6.3705 12.6436C6.34882 12.5759 6.32228 12.5116 6.29176 12.4512C6.25981 12.388 6.22358 12.3281 6.18364 12.2722L6.08323 12.1318L8.03649 9.97034L8.16743 10.0033C8.19853 10.0112 8.22706 10.017 8.25245 10.0218C8.27812 10.0266 8.30665 10.031 8.33831 10.0349C8.36912 10.0389 8.39765 10.0414 8.4239 10.0431C8.44929 10.0445 8.47924 10.0453 8.5129 10.0453C8.57224 10.0453 8.63072 10.0417 8.68749 10.0347C8.7454 10.0277 8.80217 10.017 8.85751 10.0033C8.914 9.98936 8.96962 9.97202 9.02297 9.95161C9.07803 9.93035 9.13052 9.90658 9.17987 9.88029C9.19271 9.86855 9.30054 9.81597 9.32222 9.80451L10.9169 11.2884L10.8778 11.4162C10.8673 11.4508 10.8587 11.4827 10.8521 11.5112C10.8456 11.5395 10.8396 11.5722 10.8345 11.6083C10.8296 11.6402 10.8259 11.6726 10.8236 11.7053C10.8213 11.7361 10.8202 11.7694 10.8202 11.8049C10.8202 11.8955 10.8293 11.9839 10.8467 12.0694C10.8644 12.1561 10.8907 12.2409 10.9257 12.3231C10.9614 12.4064 11.0048 12.4853 11.0553 12.5588C11.1058 12.6324 11.1645 12.702 11.2307 12.7669L11.2324 12.7691C11.2975 12.8326 11.3691 12.8899 11.4455 12.94C11.5223 12.9901 11.6036 13.0323 11.6877 13.0664C11.7702 13.1 11.8572 13.126 11.9473 13.1436C12.0349 13.1606 12.1256 13.1696 12.2189 13.1696C12.3127 13.1696 12.4043 13.1606 12.4922 13.1436C12.5835 13.126 12.6711 13.1 12.7532 13.0664C12.8274 13.0362 12.8996 12.9993 12.9692 12.9557C13.0385 12.9123 13.1035 12.8637 13.1634 12.81L13.2068 12.7677C13.2718 12.704 13.3306 12.6343 13.382 12.5597C13.4324 12.4861 13.4761 12.407 13.5118 12.3234C13.5468 12.2411 13.5739 12.1558 13.5916 12.0692C13.6087 11.9855 13.6179 11.8969 13.6179 11.8043C13.6179 11.7487 13.6147 11.695 13.6085 11.6435C13.6016 11.5876 13.5922 11.5353 13.5805 11.4869C13.5682 11.4374 13.552 11.3862 13.5323 11.3339C13.512 11.2805 13.4904 11.2316 13.4672 11.1874L13.3991 11.0582L14.9567 9.26505C14.9715 9.26981 15.0913 9.31176 15.099 9.31176C15.1352 9.32378 15.1715 9.33413 15.2071 9.3428C15.2448 9.35203 15.2822 9.35958 15.3175 9.36517C15.3518 9.37076 15.3889 9.37496 15.4288 9.37831C15.4653 9.38111 15.5035 9.38279 15.5432 9.38279C15.637 9.38279 15.7286 9.37384 15.8165 9.35678C15.9078 9.33916 15.9953 9.31287 16.0775 9.2796C16.1534 9.24883 16.2256 9.21192 16.2935 9.16941C16.3611 9.12718 16.4247 9.07964 16.4834 9.02763L16.5311 8.98092C16.5961 8.91716 16.6549 8.84753 16.7062 8.77286C16.7567 8.69931 16.8004 8.62017 16.836 8.53683C16.8711 8.45461 16.8982 8.36932 16.9159 8.28263C16.9333 8.19705 16.9422 8.1084 16.9422 8.01807C16.9422 7.9269 16.933 7.83797 16.9156 7.75212C16.8977 7.66319 16.8709 7.5779 16.8366 7.49735C16.801 7.41374 16.7576 7.3346 16.7071 7.26105C16.656 7.18666 16.5976 7.11702 16.5325 7.05382C16.4672 6.99006 16.3956 6.93273 16.3191 6.88267C16.2435 6.83317 16.1628 6.79067 16.0778 6.75627C15.9956 6.72299 15.9081 6.69698 15.8168 6.67908C15.7289 6.66203 15.6376 6.65308 15.5435 6.65308C15.4505 6.65308 15.3598 6.66203 15.2722 6.67908C15.182 6.6967 15.0945 6.72271 15.0117 6.75655C14.9259 6.79151 14.8446 6.83401 14.7695 6.88323C14.6928 6.93357 14.6209 6.99118 14.5556 7.05494L14.5125 7.09689C14.4574 7.15562 14.4072 7.2191 14.3633 7.28649C14.3196 7.35305 14.2817 7.42381 14.2503 7.49735C14.2161 7.5779 14.1893 7.66319 14.1713 7.75212C14.1539 7.83797 14.1448 7.9269 14.1448 8.01807C14.1448 8.08323 14.1491 8.14587 14.1576 8.20516C14.1662 8.26613 14.1796 8.32709 14.1973 8.38778C14.2152 8.44958 14.2372 8.50859 14.262 8.56368C14.2871 8.61905 14.3174 8.67526 14.3525 8.73035L14.4378 8.86487L12.9192 10.6127L12.7695 10.5495C12.727 10.5313 12.6827 10.5154 12.6374 10.5014C12.5912 10.4871 12.5455 10.4754 12.5007 10.4665C12.4557 10.4575 12.4095 10.4505 12.3621 10.4458C12.3185 10.4416 12.2708 10.4393 12.2192 10.4393C12.1496 10.4393 12.082 10.4441 12.0169 10.4536C11.9504 10.4631 11.884 10.4776 11.8195 10.4967C11.7528 10.5162 11.6894 10.54 11.6301 10.5671C11.5682 10.5957 11.5086 10.6281 11.4524 10.6644L11.3052 10.7595L9.75698 9.31875L9.81346 9.18172C9.82972 9.14201 9.84427 9.10146 9.85683 9.06035C9.86881 9.02008 9.87936 8.97841 9.88763 8.93562C9.89619 8.89227 9.90275 8.84977 9.90675 8.80838C9.91046 8.7695 9.91245 8.72644 9.91245 8.67918C9.91245 8.58801 9.90333 8.49908 9.88592 8.4135C9.86795 8.32457 9.84114 8.23928 9.8069 8.15874C9.77124 8.07512 9.72788 7.99598 9.67739 7.92271C9.62632 7.84832 9.56756 7.77869 9.5028 7.71521C9.43747 7.65144 9.36615 7.59412 9.28942 7.54406C9.21382 7.49456 9.13309 7.45205 9.04807 7.41765C8.96563 7.38437 8.87834 7.35837 8.78705 7.34047C8.69918 7.32341 8.60761 7.31446 8.51376 7.31446C8.42047 7.31446 8.32947 7.32341 8.24189 7.34047C8.15174 7.35809 8.06474 7.38409 7.98201 7.41793C7.89614 7.45289 7.81512 7.4954 7.73981 7.54462C7.66307 7.59495 7.59147 7.65256 7.52585 7.71604L7.48278 7.75799C7.42772 7.81672 7.37751 7.8802 7.3333 7.94788C7.28965 8.01444 7.25171 8.08519 7.22033 8.15874C7.18609 8.23928 7.15928 8.32457 7.14131 8.41322C7.1239 8.49908 7.11478 8.58801 7.11478 8.67918C7.11478 8.75328 7.1202 8.82348 7.13104 8.88948C7.14216 8.95855 7.15928 9.02679 7.18124 9.09362C7.2035 9.16046 7.23117 9.2259 7.26397 9.2891C7.29792 9.35426 7.33586 9.41551 7.37694 9.47144L7.48078 9.61238L7.36353 9.74326ZM15.2628 7.35249C15.3078 7.33432 15.3543 7.32033 15.4008 7.31138C15.4476 7.30243 15.4955 7.29768 15.5438 7.29768C15.5923 7.29768 15.6402 7.30243 15.6867 7.31166C15.7355 7.32117 15.7817 7.33571 15.8245 7.35305C15.8684 7.37095 15.9112 7.3936 15.9514 7.42017C15.9916 7.44646 16.029 7.47666 16.0627 7.50966C16.0975 7.5435 16.1286 7.58013 16.1551 7.61872C16.1816 7.65732 16.2047 7.69927 16.2238 7.74345C16.2418 7.78624 16.2561 7.83126 16.2658 7.87796C16.2755 7.92523 16.2806 7.97249 16.2806 8.01835C16.2806 8.06561 16.2758 8.1126 16.2664 8.1579C16.2572 8.20376 16.243 8.24907 16.2244 8.29269C16.2059 8.3366 16.1831 8.37855 16.1565 8.41742C16.1297 8.45685 16.0989 8.49349 16.065 8.52648L16.0581 8.53096C16.025 8.56256 15.9888 8.59136 15.95 8.61681C15.9106 8.64254 15.8681 8.66519 15.8242 8.68309C15.7794 8.70127 15.7332 8.71525 15.6864 8.72448C15.6399 8.73371 15.592 8.73846 15.5432 8.73846C15.495 8.73846 15.447 8.73371 15.4003 8.72476C15.3538 8.71581 15.3073 8.70183 15.2622 8.68365C15.2163 8.66491 15.1738 8.64282 15.1355 8.61793C15.0959 8.5922 15.0588 8.56228 15.0248 8.52928L15.0217 8.5262C14.9878 8.49293 14.9569 8.45629 14.9301 8.41714C14.9036 8.37827 14.8808 8.33632 14.8622 8.29241C14.8437 8.24851 14.8294 8.2032 14.8203 8.15734C14.8112 8.11176 14.806 8.06505 14.806 8.01751C14.806 7.97165 14.8112 7.92495 14.8209 7.87741C14.8306 7.8307 14.8448 7.7854 14.8631 7.74233C14.8782 7.70654 14.8973 7.67018 14.9207 7.63411C14.9321 7.61649 14.9444 7.59943 14.9572 7.58293V7.5709L15.0234 7.50658C15.0574 7.4733 15.0947 7.44338 15.135 7.41737C15.174 7.39192 15.2177 7.37039 15.2628 7.35249ZM11.9388 11.1387C11.9838 11.1206 12.0303 11.1069 12.0768 11.0976C12.1236 11.0887 12.1713 11.0839 12.2197 11.0839C12.2685 11.0839 12.3162 11.0887 12.3627 11.0979C12.4095 11.1071 12.4557 11.1211 12.5005 11.1393C12.5444 11.1572 12.5872 11.1799 12.6274 11.2064C12.6676 11.2327 12.705 11.2629 12.7389 11.2959C12.7737 11.33 12.8051 11.3667 12.8317 11.4053C12.8582 11.4438 12.8813 11.4852 12.9001 11.5294C12.9181 11.5705 12.9321 11.6161 12.9421 11.6645C12.9518 11.7118 12.9569 11.7587 12.9569 11.8046C12.9569 11.8519 12.952 11.8988 12.9426 11.9441C12.9335 11.99 12.919 12.0353 12.9007 12.0789C12.8822 12.1231 12.859 12.1648 12.8325 12.2039C12.8057 12.2434 12.7749 12.28 12.7409 12.313L12.7341 12.3175C12.701 12.3491 12.6648 12.3779 12.6263 12.4033C12.5869 12.4291 12.5444 12.4517 12.5005 12.4696C12.4557 12.4878 12.4095 12.5018 12.3627 12.511C12.3162 12.5202 12.2682 12.525 12.2195 12.525C12.1713 12.525 12.1233 12.5202 12.0765 12.5113C12.0306 12.5023 11.9847 12.4886 11.939 12.4702C11.8928 12.4517 11.85 12.4296 11.8115 12.4045C11.7716 12.3785 11.7342 12.3485 11.7 12.3152L11.6943 12.3097C11.6603 12.2761 11.6304 12.2403 11.605 12.2028C11.579 12.1645 11.5565 12.1226 11.5382 12.0795C11.5197 12.0353 11.5054 11.9897 11.4963 11.9447C11.4872 11.8991 11.4823 11.8516 11.4823 11.8043C11.4823 11.7585 11.4875 11.7115 11.4971 11.6642C11.5068 11.6175 11.5211 11.5722 11.5394 11.5294C11.5545 11.4936 11.5736 11.4573 11.5973 11.4212C11.6087 11.4039 11.621 11.3868 11.6338 11.37V11.3583L11.7 11.2937C11.7339 11.2604 11.7716 11.2305 11.8115 11.2045C11.8506 11.179 11.8937 11.1566 11.9388 11.1387ZM8.23276 8.01416C8.27784 7.99598 8.32434 7.98228 8.37084 7.97305C8.41762 7.9641 8.46555 7.95934 8.51404 7.95934C8.56054 7.95934 8.60847 7.96438 8.65696 7.97389C8.70375 7.98312 8.74996 7.99654 8.79475 8.01472C8.83868 8.03261 8.88119 8.05527 8.9217 8.08183C8.96192 8.10812 8.99929 8.13832 9.03324 8.1716C9.06804 8.20544 9.09914 8.24208 9.12567 8.28067C9.1522 8.31926 9.17531 8.36121 9.19442 8.40539C9.21239 8.44818 9.22666 8.49321 9.23636 8.53991C9.24605 8.58717 9.25119 8.63443 9.25119 8.68029C9.25119 8.72756 9.24634 8.77454 9.23721 8.82012C9.22808 8.86515 9.21382 8.91073 9.19528 8.95492C9.17673 8.9991 9.15391 9.04077 9.1271 9.07964C9.10028 9.11907 9.06947 9.15571 9.03552 9.18871L9.02896 9.19318C8.99473 9.2259 8.9585 9.25499 8.92084 9.2796C8.88147 9.30532 8.83897 9.32742 8.79475 9.34531C8.74996 9.36349 8.70403 9.37747 8.65696 9.3867C8.61046 9.39593 8.56254 9.40069 8.51376 9.40069C8.46555 9.40069 8.41762 9.39593 8.37112 9.38698C8.32434 9.37803 8.27812 9.36405 8.23305 9.34587C8.18826 9.32798 8.14604 9.30588 8.10696 9.28043C8.06787 9.25499 8.03079 9.22562 7.99713 9.1929L7.99256 9.18843C7.95861 9.15543 7.92809 9.11879 7.90127 9.07936C7.87474 9.04049 7.85192 8.99854 7.83309 8.95436C7.81455 8.91045 7.80029 8.86515 7.79116 8.81928C7.78203 8.7737 7.7769 8.727 7.7769 8.67974C7.7769 8.63387 7.78203 8.58689 7.79173 8.53963C7.80143 8.49181 7.81569 8.44678 7.83338 8.40483C7.84878 8.36904 7.86818 8.3324 7.89158 8.29661C7.90299 8.27899 7.91525 8.26193 7.92809 8.24543V8.23341C7.93323 8.22837 7.99427 8.16909 7.99427 8.16909C8.02822 8.13581 8.06559 8.10588 8.10553 8.07988C8.14461 8.05443 8.18769 8.03261 8.23276 8.01416ZM4.75442 12.3846C4.79949 12.3664 4.84599 12.3527 4.89249 12.3435C4.93928 12.3345 4.9872 12.3298 5.0357 12.3298C5.0822 12.3298 5.13013 12.3348 5.17862 12.3443C5.22541 12.3536 5.27162 12.367 5.31641 12.3852C5.36034 12.4031 5.40285 12.4257 5.44336 12.452C5.48358 12.4783 5.52095 12.5085 5.5549 12.5418C5.5897 12.5759 5.6208 12.6125 5.64733 12.6508C5.67443 12.69 5.69754 12.7317 5.71608 12.775C5.73462 12.8178 5.74831 12.8634 5.75801 12.9101C5.76771 12.9573 5.77285 13.0046 5.77285 13.0505C5.77285 13.0977 5.768 13.1444 5.75858 13.19C5.74946 13.2359 5.73519 13.2812 5.71665 13.3248C5.69811 13.3687 5.67528 13.4107 5.64875 13.4495C5.62194 13.489 5.59113 13.5256 5.55718 13.5586L5.55233 13.5617C5.51952 13.5936 5.48244 13.6229 5.44193 13.6492C5.40171 13.6752 5.35949 13.6976 5.31641 13.7152C5.27162 13.7334 5.22541 13.7474 5.17862 13.7566C5.13212 13.7658 5.08448 13.7706 5.0357 13.7706C4.98749 13.7706 4.93956 13.7658 4.89278 13.7569C4.84628 13.7479 4.79978 13.7339 4.75471 13.7158C4.70963 13.6976 4.66713 13.6755 4.62804 13.65C4.58896 13.6246 4.55216 13.5952 4.5185 13.5628L4.51422 13.5589C4.48027 13.5256 4.44946 13.489 4.42265 13.4498C4.39612 13.4109 4.3733 13.369 4.35475 13.3251C4.33621 13.2812 4.32195 13.2359 4.31282 13.19C4.30369 13.1444 4.29884 13.0977 4.29884 13.0502C4.29884 13.0046 4.30397 12.9576 4.31367 12.9104C4.32366 12.8617 4.33764 12.8167 4.35532 12.7753C4.3713 12.7386 4.3907 12.7023 4.4138 12.6673C4.42522 12.65 4.43748 12.6329 4.45032 12.6162V12.6044L4.5165 12.5398C4.55074 12.5065 4.58782 12.4766 4.62804 12.4506C4.66713 12.4252 4.70935 12.4031 4.75442 12.3846Z" fill="black"/>
<path fill-rule="evenodd" clip-rule="evenodd" d="M7.36353 9.74326L5.53407 11.7674L5.40199 11.7324C5.36776 11.7235 5.33723 11.7162 5.31099 11.7109C5.28189 11.7053 5.25194 11.7003 5.22084 11.6964C5.19317 11.6927 5.16265 11.6899 5.12956 11.688C5.10188 11.6863 5.0705 11.6855 5.03542 11.6855C4.94213 11.6855 4.85113 11.6944 4.76355 11.7115C4.6734 11.7291 4.58639 11.7551 4.50367 11.7889C4.4178 11.8239 4.33678 11.8664 4.26147 11.9156C4.18473 11.966 4.11284 12.0236 4.04751 12.0873L4.00472 12.129C3.94938 12.1877 3.89946 12.2512 3.85524 12.3186C3.81159 12.3852 3.77365 12.4559 3.74227 12.5297C3.70804 12.6103 3.68122 12.6956 3.66325 12.7845C3.64585 12.8704 3.63672 12.9593 3.63672 13.0505C3.63672 13.1411 3.64585 13.2294 3.66325 13.315C3.68094 13.4014 3.70718 13.4864 3.74227 13.5687C3.77793 13.652 3.82129 13.7311 3.87178 13.8047C3.92285 13.8791 3.98161 13.949 4.04637 14.0125L4.05065 14.0167C4.11512 14.0793 4.18616 14.1361 4.26261 14.1859C4.33821 14.2354 4.41922 14.2779 4.50424 14.3123C4.58668 14.3458 4.67369 14.3718 4.76383 14.3895C4.85141 14.4065 4.94213 14.4155 5.03542 14.4155C5.12927 14.4155 5.22084 14.4065 5.30871 14.3895C5.4 14.3718 5.48757 14.3458 5.56973 14.3123C5.6439 14.2823 5.71608 14.2451 5.78569 14.2018C5.85301 14.1599 5.91663 14.1123 5.97511 14.0606L6.02332 14.0139C6.08836 13.9501 6.14741 13.8805 6.19848 13.8061C6.24954 13.732 6.29319 13.6526 6.32828 13.5701C6.36336 13.4878 6.39047 13.4025 6.40815 13.3159C6.42555 13.2303 6.4344 13.1416 6.4344 13.051C6.4344 12.9803 6.42898 12.9112 6.41842 12.8441C6.40758 12.7758 6.39161 12.7087 6.3705 12.6436C6.34882 12.5759 6.32228 12.5116 6.29176 12.4512C6.25981 12.388 6.22358 12.3281 6.18364 12.2722L6.08323 12.1318L8.03649 9.97034L8.16743 10.0033C8.19853 10.0112 8.22706 10.017 8.25245 10.0218C8.27812 10.0266 8.30665 10.031 8.33831 10.0349C8.36912 10.0389 8.39765 10.0414 8.4239 10.0431C8.44929 10.0445 8.47924 10.0453 8.5129 10.0453C8.57224 10.0453 8.63072 10.0417 8.68749 10.0347C8.7454 10.0277 8.80217 10.017 8.85751 10.0033C8.914 9.98936 8.96962 9.97202 9.02297 9.95161C9.07803 9.93035 9.13052 9.90658 9.17987 9.88029C9.19271 9.86855 9.30054 9.81597 9.32222 9.80451L10.9169 11.2884L10.8778 11.4162C10.8673 11.4508 10.8587 11.4827 10.8521 11.5112C10.8456 11.5395 10.8396 11.5722 10.8345 11.6083C10.8296 11.6402 10.8259 11.6726 10.8236 11.7053C10.8213 11.7361 10.8202 11.7694 10.8202 11.8049C10.8202 11.8955 10.8293 11.9839 10.8467 12.0694C10.8644 12.1561 10.8907 12.2409 10.9257 12.3231C10.9614 12.4064 11.0048 12.4853 11.0553 12.5588C11.1058 12.6324 11.1645 12.702 11.2307 12.7669L11.2324 12.7691C11.2975 12.8326 11.3691 12.8899 11.4455 12.94C11.5223 12.9901 11.6036 13.0323 11.6877 13.0664C11.7702 13.1 11.8572 13.126 11.9473 13.1436C12.0349 13.1606 12.1256 13.1696 12.2189 13.1696C12.3127 13.1696 12.4043 13.1606 12.4922 13.1436C12.5835 13.126 12.6711 13.1 12.7532 13.0664C12.8274 13.0362 12.8996 12.9993 12.9692 12.9557C13.0385 12.9123 13.1035 12.8637 13.1634 12.81L13.2068 12.7677C13.2718 12.704 13.3306 12.6343 13.382 12.5597C13.4324 12.4861 13.4761 12.407 13.5118 12.3234C13.5468 12.2411 13.5739 12.1558 13.5916 12.0692C13.6087 11.9855 13.6179 11.8969 13.6179 11.8043C13.6179 11.7487 13.6147 11.695 13.6085 11.6435C13.6016 11.5876 13.5922 11.5353 13.5805 11.4869C13.5682 11.4374 13.552 11.3862 13.5323 11.3339C13.512 11.2805 13.4904 11.2316 13.4672 11.1874L13.3991 11.0582L14.9567 9.26505C14.9715 9.26981 15.0913 9.31176 15.099 9.31176C15.1352 9.32378 15.1715 9.33413 15.2071 9.3428C15.2448 9.35203 15.2822 9.35958 15.3175 9.36517C15.3518 9.37076 15.3889 9.37496 15.4288 9.37831C15.4653 9.38111 15.5035 9.38279 15.5432 9.38279C15.637 9.38279 15.7286 9.37384 15.8165 9.35678C15.9078 9.33916 15.9953 9.31287 16.0775 9.2796C16.1534 9.24883 16.2256 9.21192 16.2935 9.16941C16.3611 9.12718 16.4247 9.07964 16.4834 9.02763L16.5311 8.98092C16.5961 8.91716 16.6549 8.84753 16.7062 8.77286C16.7567 8.69931 16.8004 8.62017 16.836 8.53683C16.8711 8.45461 16.8982 8.36932 16.9159 8.28263C16.9333 8.19705 16.9422 8.1084 16.9422 8.01807C16.9422 7.9269 16.933 7.83797 16.9156 7.75212C16.8977 7.66319 16.8709 7.5779 16.8366 7.49735C16.801 7.41374 16.7576 7.3346 16.7071 7.26105C16.656 7.18666 16.5976 7.11702 16.5325 7.05382C16.4672 6.99006 16.3956 6.93273 16.3191 6.88267C16.2435 6.83317 16.1628 6.79067 16.0778 6.75627C15.9956 6.72299 15.9081 6.69698 15.8168 6.67908C15.7289 6.66203 15.6376 6.65308 15.5435 6.65308C15.4505 6.65308 15.3598 6.66203 15.2722 6.67908C15.182 6.6967 15.0945 6.72271 15.0117 6.75655C14.9259 6.79151 14.8446 6.83401 14.7695 6.88323C14.6928 6.93357 14.6209 6.99118 14.5556 7.05494L14.5125 7.09689C14.4574 7.15562 14.4072 7.2191 14.3633 7.28649C14.3196 7.35305 14.2817 7.42381 14.2503 7.49735C14.2161 7.5779 14.1893 7.66319 14.1713 7.75212C14.1539 7.83797 14.1448 7.9269 14.1448 8.01807C14.1448 8.08323 14.1491 8.14587 14.1576 8.20516C14.1662 8.26613 14.1796 8.32709 14.1973 8.38778C14.2152 8.44958 14.2372 8.50859 14.262 8.56368C14.2871 8.61905 14.3174 8.67526 14.3525 8.73035L14.4378 8.86487L12.9192 10.6127L12.7695 10.5495C12.727 10.5313 12.6827 10.5154 12.6374 10.5014C12.5912 10.4871 12.5455 10.4754 12.5007 10.4665C12.4557 10.4575 12.4095 10.4505 12.3621 10.4458C12.3185 10.4416 12.2708 10.4393 12.2192 10.4393C12.1496 10.4393 12.082 10.4441 12.0169 10.4536C11.9504 10.4631 11.884 10.4776 11.8195 10.4967C11.7528 10.5162 11.6894 10.54 11.6301 10.5671C11.5682 10.5957 11.5086 10.6281 11.4524 10.6644L11.3052 10.7595L9.75698 9.31875L9.81346 9.18172C9.82972 9.14201 9.84427 9.10146 9.85683 9.06035C9.86881 9.02008 9.87936 8.97841 9.88763 8.93562C9.89619 8.89227 9.90275 8.84977 9.90675 8.80838C9.91046 8.7695 9.91245 8.72644 9.91245 8.67918C9.91245 8.58801 9.90333 8.49908 9.88592 8.4135C9.86795 8.32457 9.84114 8.23928 9.8069 8.15874C9.77124 8.07512 9.72788 7.99598 9.67739 7.92271C9.62632 7.84832 9.56756 7.77869 9.5028 7.71521C9.43747 7.65144 9.36615 7.59412 9.28942 7.54406C9.21382 7.49456 9.13309 7.45205 9.04807 7.41765C8.96563 7.38437 8.87834 7.35837 8.78705 7.34047C8.69918 7.32341 8.60761 7.31446 8.51376 7.31446C8.42047 7.31446 8.32947 7.32341 8.24189 7.34047C8.15174 7.35809 8.06474 7.38409 7.98201 7.41793C7.89614 7.45289 7.81512 7.4954 7.73981 7.54462C7.66307 7.59495 7.59147 7.65256 7.52585 7.71604L7.48278 7.75799C7.42772 7.81672 7.37751 7.8802 7.3333 7.94788C7.28965 8.01444 7.25171 8.08519 7.22033 8.15874C7.18609 8.23928 7.15928 8.32457 7.14131 8.41322C7.1239 8.49908 7.11478 8.58801 7.11478 8.67918C7.11478 8.75328 7.1202 8.82348 7.13104 8.88948C7.14216 8.95855 7.15928 9.02679 7.18124 9.09362C7.2035 9.16046 7.23117 9.2259 7.26397 9.2891C7.29792 9.35426 7.33586 9.41551 7.37694 9.47144L7.48078 9.61238L7.36353 9.74326ZM15.2628 7.35249C15.3078 7.33432 15.3543 7.32033 15.4008 7.31138C15.4476 7.30243 15.4955 7.29768 15.5438 7.29768C15.5923 7.29768 15.6402 7.30243 15.6867 7.31166C15.7355 7.32117 15.7817 7.33571 15.8245 7.35305C15.8684 7.37095 15.9112 7.3936 15.9514 7.42017C15.9916 7.44646 16.029 7.47666 16.0627 7.50966C16.0975 7.5435 16.1286 7.58013 16.1551 7.61872C16.1816 7.65732 16.2047 7.69927 16.2238 7.74345C16.2418 7.78624 16.2561 7.83126 16.2658 7.87796C16.2755 7.92523 16.2806 7.97249 16.2806 8.01835C16.2806 8.06561 16.2758 8.1126 16.2664 8.1579C16.2572 8.20376 16.243 8.24907 16.2244 8.29269C16.2059 8.3366 16.1831 8.37855 16.1565 8.41742C16.1297 8.45685 16.0989 8.49349 16.065 8.52648L16.0581 8.53096C16.025 8.56256 15.9888 8.59136 15.95 8.61681C15.9106 8.64254 15.8681 8.66519 15.8242 8.68309C15.7794 8.70127 15.7332 8.71525 15.6864 8.72448C15.6399 8.73371 15.592 8.73846 15.5432 8.73846C15.495 8.73846 15.447 8.73371 15.4003 8.72476C15.3538 8.71581 15.3073 8.70183 15.2622 8.68365C15.2163 8.66491 15.1738 8.64282 15.1355 8.61793C15.0959 8.5922 15.0588 8.56228 15.0248 8.52928L15.0217 8.5262C14.9878 8.49293 14.9569 8.45629 14.9301 8.41714C14.9036 8.37827 14.8808 8.33632 14.8622 8.29241C14.8437 8.24851 14.8294 8.2032 14.8203 8.15734C14.8112 8.11176 14.806 8.06505 14.806 8.01751C14.806 7.97165 14.8112 7.92495 14.8209 7.87741C14.8306 7.8307 14.8448 7.7854 14.8631 7.74233C14.8782 7.70654 14.8973 7.67018 14.9207 7.63411C14.9321 7.61649 14.9444 7.59943 14.9572 7.58293V7.5709L15.0234 7.50658C15.0574 7.4733 15.0947 7.44338 15.135 7.41737C15.174 7.39192 15.2177 7.37039 15.2628 7.35249ZM11.9388 11.1387C11.9838 11.1206 12.0303 11.1069 12.0768 11.0976C12.1236 11.0887 12.1713 11.0839 12.2197 11.0839C12.2685 11.0839 12.3162 11.0887 12.3627 11.0979C12.4095 11.1071 12.4557 11.1211 12.5005 11.1393C12.5444 11.1572 12.5872 11.1799 12.6274 11.2064C12.6676 11.2327 12.705 11.2629 12.7389 11.2959C12.7737 11.33 12.8051 11.3667 12.8317 11.4053C12.8582 11.4438 12.8813 11.4852 12.9001 11.5294C12.9181 11.5705 12.9321 11.6161 12.9421 11.6645C12.9518 11.7118 12.9569 11.7587 12.9569 11.8046C12.9569 11.8519 12.952 11.8988 12.9426 11.9441C12.9335 11.99 12.919 12.0353 12.9007 12.0789C12.8822 12.1231 12.859 12.1648 12.8325 12.2039C12.8057 12.2434 12.7749 12.28 12.7409 12.313L12.7341 12.3175C12.701 12.3491 12.6648 12.3779 12.6263 12.4033C12.5869 12.4291 12.5444 12.4517 12.5005 12.4696C12.4557 12.4878 12.4095 12.5018 12.3627 12.511C12.3162 12.5202 12.2682 12.525 12.2195 12.525C12.1713 12.525 12.1233 12.5202 12.0765 12.5113C12.0306 12.5023 11.9847 12.4886 11.939 12.4702C11.8928 12.4517 11.85 12.4296 11.8115 12.4045C11.7716 12.3785 11.7342 12.3485 11.7 12.3152L11.6943 12.3097C11.6603 12.2761 11.6304 12.2403 11.605 12.2028C11.579 12.1645 11.5565 12.1226 11.5382 12.0795C11.5197 12.0353 11.5054 11.9897 11.4963 11.9447C11.4872 11.8991 11.4823 11.8516 11.4823 11.8043C11.4823 11.7585 11.4875 11.7115 11.4971 11.6642C11.5068 11.6175 11.5211 11.5722 11.5394 11.5294C11.5545 11.4936 11.5736 11.4573 11.5973 11.4212C11.6087 11.4039 11.621 11.3868 11.6338 11.37V11.3583L11.7 11.2937C11.7339 11.2604 11.7716 11.2305 11.8115 11.2045C11.8506 11.179 11.8937 11.1566 11.9388 11.1387ZM8.23276 8.01416C8.27784 7.99598 8.32434 7.98228 8.37084 7.97305C8.41762 7.9641 8.46555 7.95934 8.51404 7.95934C8.56054 7.95934 8.60847 7.96438 8.65696 7.97389C8.70375 7.98312 8.74996 7.99654 8.79475 8.01472C8.83868 8.03261 8.88119 8.05527 8.9217 8.08183C8.96192 8.10812 8.99929 8.13832 9.03324 8.1716C9.06804 8.20544 9.09914 8.24208 9.12567 8.28067C9.1522 8.31926 9.17531 8.36121 9.19442 8.40539C9.21239 8.44818 9.22666 8.49321 9.23636 8.53991C9.24605 8.58717 9.25119 8.63443 9.25119 8.68029C9.25119 8.72756 9.24634 8.77454 9.23721 8.82012C9.22808 8.86515 9.21382 8.91073 9.19528 8.95492C9.17673 8.9991 9.15391 9.04077 9.1271 9.07964C9.10028 9.11907 9.06947 9.15571 9.03552 9.18871L9.02896 9.19318C8.99473 9.2259 8.9585 9.25499 8.92084 9.2796C8.88147 9.30532 8.83897 9.32742 8.79475 9.34531C8.74996 9.36349 8.70403 9.37747 8.65696 9.3867C8.61046 9.39593 8.56254 9.40069 8.51376 9.40069C8.46555 9.40069 8.41762 9.39593 8.37112 9.38698C8.32434 9.37803 8.27812 9.36405 8.23305 9.34587C8.18826 9.32798 8.14604 9.30588 8.10696 9.28043C8.06787 9.25499 8.03079 9.22562 7.99713 9.1929L7.99256 9.18843C7.95861 9.15543 7.92809 9.11879 7.90127 9.07936C7.87474 9.04049 7.85192 8.99854 7.83309 8.95436C7.81455 8.91045 7.80029 8.86515 7.79116 8.81928C7.78203 8.7737 7.7769 8.727 7.7769 8.67974C7.7769 8.63387 7.78203 8.58689 7.79173 8.53963C7.80143 8.49181 7.81569 8.44678 7.83338 8.40483C7.84878 8.36904 7.86818 8.3324 7.89158 8.29661C7.90299 8.27899 7.91525 8.26193 7.92809 8.24543V8.23341C7.93323 8.22837 7.99427 8.16909 7.99427 8.16909C8.02822 8.13581 8.06559 8.10588 8.10553 8.07988C8.14461 8.05443 8.18769 8.03261 8.23276 8.01416ZM4.75442 12.3846C4.79949 12.3664 4.84599 12.3527 4.89249 12.3435C4.93928 12.3345 4.9872 12.3298 5.0357 12.3298C5.0822 12.3298 5.13013 12.3348 5.17862 12.3443C5.22541 12.3536 5.27162 12.367 5.31641 12.3852C5.36034 12.4031 5.40285 12.4257 5.44336 12.452C5.48358 12.4783 5.52095 12.5085 5.5549 12.5418C5.5897 12.5759 5.6208 12.6125 5.64733 12.6508C5.67443 12.69 5.69754 12.7317 5.71608 12.775C5.73462 12.8178 5.74831 12.8634 5.75801 12.9101C5.76771 12.9573 5.77285 13.0046 5.77285 13.0505C5.77285 13.0977 5.768 13.1444 5.75858 13.19C5.74946 13.2359 5.73519 13.2812 5.71665 13.3248C5.69811 13.3687 5.67528 13.4107 5.64875 13.4495C5.62194 13.489 5.59113 13.5256 5.55718 13.5586L5.55233 13.5617C5.51952 13.5936 5.48244 13.6229 5.44193 13.6492C5.40171 13.6752 5.35949 13.6976 5.31641 13.7152C5.27162 13.7334 5.22541 13.7474 5.17862 13.7566C5.13212 13.7658 5.08448 13.7706 5.0357 13.7706C4.98749 13.7706 4.93956 13.7658 4.89278 13.7569C4.84628 13.7479 4.79978 13.7339 4.75471 13.7158C4.70963 13.6976 4.66713 13.6755 4.62804 13.65C4.58896 13.6246 4.55216 13.5952 4.5185 13.5628L4.51422 13.5589C4.48027 13.5256 4.44946 13.489 4.42265 13.4498C4.39612 13.4109 4.3733 13.369 4.35475 13.3251C4.33621 13.2812 4.32195 13.2359 4.31282 13.19C4.30369 13.1444 4.29884 13.0977 4.29884 13.0502C4.29884 13.0046 4.30397 12.9576 4.31367 12.9104C4.32366 12.8617 4.33764 12.8167 4.35532 12.7753C4.3713 12.7386 4.3907 12.7023 4.4138 12.6673C4.42522 12.65 4.43748 12.6329 4.45032 12.6162V12.6044L4.5165 12.5398C4.55074 12.5065 4.58782 12.4766 4.62804 12.4506C4.66713 12.4252 4.70935 12.4031 4.75442 12.3846Z" stroke="black" stroke-width="0.4" mask="url(#path-2-outside-1_588_8575)"/>
</svg>
