<svg width="20" height="20" viewBox="0 0 20 20" fill="none" xmlns="http://www.w3.org/2000/svg">
<rect width="19.959" height="19.959" rx="4" fill="#1F7BB5" fill-opacity="0.4"/>
<path d="M16.3338 9.47008H16.3329V9.57433V9.58406L16.3319 9.58388C16.3134 9.67911 16.2529 9.7737 16.1614 9.88503C16.087 9.97556 15.9879 10.082 15.8657 10.2133C15.8367 10.2443 15.8065 10.2768 15.775 10.3108L15.7425 10.2807L15.775 10.3108C15.2489 10.8782 14.7444 11.2918 14.1338 11.7308L14.1318 11.7323L14.1317 11.7322L13.3978 12.2056L13.3943 12.2078L13.3942 12.2077C13.2848 12.2661 13.1923 12.3161 13.0908 12.371C13.0601 12.3876 13.0285 12.4047 12.9954 12.4226L12.9716 12.3786L12.9954 12.4226C12.4878 12.6968 11.7963 12.944 11.2249 13.0626C10.9207 13.1258 10.7356 13.1556 10.418 13.159C10.3569 13.1597 10.3241 13.1662 10.291 13.1728L10.2897 13.1731C10.2545 13.1802 10.218 13.1875 10.1551 13.1875C10.0942 13.1875 10.0546 13.1803 10.0168 13.1734C10.0149 13.1731 10.013 13.1728 10.0111 13.1724C9.97323 13.1656 9.93442 13.159 9.86874 13.1592C9.48064 13.1602 9.00267 13.0623 8.54126 12.9209C8.07932 12.7793 7.63017 12.5928 7.29888 12.414L7.29772 12.4134L7.29773 12.4134L6.53232 11.9739L6.5315 11.9734L6.5315 11.9734C5.89959 11.5944 5.02303 10.8369 4.52325 10.2979C4.46426 10.2343 4.40618 10.1771 4.35051 10.1223C4.34205 10.114 4.33365 10.1057 4.32531 10.0975C4.26252 10.0355 4.2029 9.9756 4.15177 9.91386C4.04832 9.78895 3.97734 9.6539 3.97734 9.47013C3.97734 9.42794 3.99852 9.3792 4.02556 9.33177C4.05388 9.2821 4.09378 9.22529 4.14105 9.16455C4.23571 9.0429 4.3633 8.90118 4.49622 8.76212C4.76203 8.48401 5.05304 8.21248 5.15397 8.12642C5.18547 8.09956 5.21526 8.07414 5.24358 8.04997C5.62403 7.72527 5.73842 7.62765 6.17641 7.31273C6.75772 6.8947 7.49489 6.48812 8.15453 6.25116M16.3338 9.47008L8.15453 6.25116M16.3338 9.47008L16.332 9.4606C16.3138 9.36641 16.2545 9.27289 16.165 9.16325C16.0901 9.07152 15.9896 8.96353 15.8653 8.82986C15.8401 8.80285 15.814 8.77479 15.787 8.7456C15.2872 8.20663 14.4106 7.44919 13.7787 7.07014L13.753 7.11302M16.3338 9.47008L8.15453 6.25116M8.15453 6.25116C8.75068 6.03699 8.99032 5.99015 9.6067 5.89465L9.61084 5.89401L9.61085 5.89418L10.1516 5.85613L10.1551 5.85588V5.85601C10.216 5.85601 10.2556 5.8632 10.2935 5.87007C10.2953 5.87041 10.2972 5.87075 10.2991 5.87109C10.337 5.87794 10.3758 5.88448 10.4415 5.88432C11.5871 5.88145 12.8159 6.4926 13.7787 7.07014L13.753 7.11302M13.753 7.11302C12.7905 6.53567 11.5722 5.93149 10.4416 5.93432C10.3685 5.9345 10.3258 5.92675 10.2848 5.91932C10.2474 5.91253 10.2114 5.90601 10.1551 5.90601L15.829 8.86431L15.829 8.8643L15.7503 8.7796C15.2528 8.2431 14.3799 7.48903 13.753 7.11302ZM5.13351 9.29766L5.13351 9.29766C5.19111 9.2481 5.2325 9.20552 5.27174 9.16379C5.27824 9.15689 5.28465 9.15003 5.29105 9.14319C5.32336 9.10865 5.35535 9.07446 5.39642 9.03543L5.39642 9.03543C5.93515 8.52341 6.48675 8.11128 7.09903 7.70954C7.44141 7.48492 8.06323 7.18895 8.43931 7.05496C9.64057 6.62695 10.6497 6.61936 11.8527 7.04868C11.9635 7.08821 12.1711 7.17277 12.3755 7.26328C12.5809 7.35428 12.778 7.44915 12.8705 7.5093L12.8975 7.46781L12.8705 7.5093C12.9297 7.54785 12.9851 7.57825 13.0382 7.60744L13.0387 7.6077C13.092 7.63696 13.1431 7.66497 13.1965 7.69978C13.9459 8.1881 14.2567 8.44184 14.9005 9.0231L15.3811 9.52707C15.3303 9.59671 15.2391 9.69494 15.1216 9.80984C14.9863 9.94214 14.8201 10.0929 14.6501 10.2412C14.3102 10.5376 13.9581 10.8218 13.8127 10.9263L13.2111 11.3339C13.211 11.334 13.2109 11.3341 13.2108 11.3341C12.3325 11.9103 11.153 12.3114 10.1072 12.3114C9.47815 12.3114 8.943 12.1681 8.45745 11.9948C8.05693 11.8519 7.47603 11.5798 7.1137 11.3437C6.36378 10.855 6.05302 10.6013 5.40833 10.0191L5.37728 10.0535L5.40833 10.0191C5.36508 9.98009 5.33233 9.94394 5.29788 9.90591C5.294 9.90163 5.29009 9.89732 5.28615 9.89298C5.2473 9.85021 5.20556 9.80554 5.14657 9.75641L5.14657 9.75641C5.07415 9.69609 4.97997 9.59908 4.92521 9.52179C4.97772 9.44804 5.06858 9.3535 5.13351 9.29766ZM8.47062 11.0441L8.47062 11.0441L8.59137 7.84114C8.24054 8.2195 7.95027 8.87841 7.95027 9.44409C7.95027 9.83994 8.00275 10.1905 8.15412 10.5153C8.24406 10.7084 8.33442 10.88 8.47062 11.0441ZM9.41041 9.49572C9.41041 9.76469 9.50149 9.97087 9.6422 10.1099C9.78238 10.2483 9.96885 10.3171 10.1546 10.3171C10.3403 10.3171 10.5268 10.2483 10.6669 10.1099C10.8077 9.97087 10.8987 9.76469 10.8987 9.49572C10.8987 9.24572 10.8067 9.05434 10.6655 8.92585C10.5251 8.79811 10.3391 8.7352 10.1546 8.7352C9.97006 8.7352 9.78408 8.79811 9.64369 8.92585C9.50246 9.05434 9.41041 9.24572 9.41041 9.49572Z" fill="black" stroke="black" stroke-width="0.1"/>
</svg>
