<svg width="17" height="17" viewBox="0 0 17 17" fill="none" xmlns="http://www.w3.org/2000/svg">
<g clip-path="url(#clip0_386_1674)">
<path fill-rule="evenodd" clip-rule="evenodd" d="M9.2286 9.71429C9.2286 9.5409 9.25949 9.42329 9.34141 9.34141C9.42332 9.25949 9.54094 9.2286 9.71429 9.2286H15.4214V15.4214H9.2286V9.71429ZM1.70002 1.57861H7.7714V15.4214H1.57861V1.57861H1.70002ZM9.2286 7.28571V1.57861H15.4214V7.7714H9.71429C9.54094 7.7714 9.42329 7.7405 9.34141 7.65859C9.25949 7.57667 9.2286 7.45906 9.2286 7.28571ZM0 2.0643V14.9357C0 15.2937 0.0380227 15.5902 0.124663 15.8395C0.209457 16.0835 0.342057 16.2852 0.532798 16.4592C0.734872 16.6434 0.933661 16.7789 1.17084 16.8673C1.41005 16.9565 1.69349 17 2.06427 17H14.9357C15.6057 17 16.1233 16.8178 16.4706 16.4706C16.8176 16.1236 17 15.6061 17 14.9357V2.0643C17 0.712723 16.2873 0 14.9357 0H2.06427C1.69349 0 1.41005 0.0435231 1.17084 0.13271C0.933661 0.221159 0.734872 0.356638 0.532798 0.540883C0.342057 0.714754 0.209457 0.916569 0.124663 1.16047C0.0380227 1.40979 0 1.70633 0 2.0643Z" fill="#010101"/>
</g>
<defs>
<clipPath id="clip0_386_1674">
<rect width="17" height="17" fill="white"/>
</clipPath>
</defs>
</svg>
