<svg width="18" height="18" viewBox="0 0 18 18" fill="none" xmlns="http://www.w3.org/2000/svg">
<mask id="path-1-inside-1_438_11879" fill="white">
<path fill-rule="evenodd" clip-rule="evenodd" d="M17.2577 17.2583C17.7158 16.8002 18 16.166 18 15.4653V2.53471C18 1.8346 17.7164 1.20035 17.2577 0.742274C16.7991 0.283624 16.1655 0 15.4654 0H2.53463C1.83454 0 1.20089 0.283624 0.74225 0.742274C0.283615 1.20092 0 1.8346 0 2.53471V15.4653C0 16.166 0.283615 16.7997 0.741673 17.2583C1.20089 17.7164 1.83454 18 2.53463 18H15.4654C16.1655 18 16.7985 17.717 17.2577 17.2583ZM13.6175 3.69404H8.0758C7.88576 3.69404 7.71363 3.77087 7.58944 3.89564C7.46525 4.01983 7.38784 4.19197 7.38784 4.38202C7.38784 4.57206 7.46467 4.7442 7.58944 4.86839C7.71363 4.99259 7.88576 5.06999 8.0758 5.06999H13.6175C13.8076 5.06999 13.9803 4.99317 14.1045 4.86897C14.2287 4.7442 14.3055 4.57206 14.3055 4.38202C14.3055 4.19197 14.2287 4.01983 14.1039 3.89564C13.9803 3.77087 13.8082 3.69404 13.6175 3.69404ZM5.06983 4.38086C5.06925 4.33869 5.06405 4.29479 5.05481 4.25089C5.04557 4.20757 5.03228 4.16482 5.01438 4.12323L5.01322 4.1215C4.99532 4.07875 4.97336 4.03716 4.94795 3.99673C4.92542 3.96033 4.89827 3.92452 4.86766 3.88986C4.83762 3.86387 4.80354 3.83845 4.766 3.81477C4.72845 3.78993 4.68686 3.76856 4.64181 3.75007L4.64065 3.74892C4.513 3.6952 4.37494 3.68249 4.24325 3.7079C4.11559 3.73274 3.99429 3.7934 3.89667 3.88697C3.86663 3.92048 3.83891 3.95687 3.81407 3.99615C3.78808 4.03658 3.76613 4.07875 3.7488 4.1215L3.74764 4.12323C3.72973 4.16482 3.71645 4.20757 3.70721 4.25089C3.69797 4.29537 3.69277 4.33985 3.69219 4.38317V4.3849C3.69219 4.47617 3.70952 4.56571 3.74302 4.64831C3.77594 4.7286 3.82447 4.8037 3.88685 4.86782C3.95443 4.93251 4.03241 4.98277 4.11559 5.01685C4.20166 5.05093 4.29234 5.06999 4.38361 5.07115H4.3865C4.42809 5.0723 4.47083 5.06826 4.513 5.05959C4.55343 5.05093 4.59329 5.03764 4.63141 5.01974L4.64123 5.01512C4.68628 4.99605 4.72845 4.97468 4.766 4.95042C4.80412 4.92558 4.83993 4.89843 4.87228 4.86955C4.93351 4.8037 4.98145 4.7286 5.01438 4.64831C5.04846 4.56282 5.06752 4.47271 5.06867 4.38202L5.06983 4.38086ZM4.64123 8.36661C4.51415 8.31289 4.37552 8.30076 4.24382 8.32618C4.11328 8.35102 3.99024 8.41398 3.89147 8.51102C3.86028 8.5428 3.83371 8.5763 3.81118 8.61211C3.78692 8.65139 3.7667 8.69125 3.75226 8.73111L3.7488 8.74093C3.73089 8.78252 3.7176 8.82526 3.70836 8.86859C3.69912 8.91306 3.69392 8.95754 3.69334 9.00087V9.0026C3.69334 9.09387 3.71067 9.1834 3.74418 9.26601C3.7771 9.3463 3.82562 9.42139 3.888 9.48551C3.95443 9.54905 4.03241 9.59931 4.11732 9.63339C4.20223 9.66805 4.29234 9.68711 4.38245 9.68884C4.4252 9.68827 4.4691 9.68307 4.513 9.67382C4.55632 9.66458 4.59906 9.6513 4.64065 9.63339L4.64239 9.63223C4.68744 9.61375 4.72903 9.5918 4.76657 9.56811C4.80297 9.54443 4.83589 9.51959 4.86535 9.49475L4.95546 9.38211C4.96643 9.36594 4.97625 9.34919 4.98434 9.33186C4.99416 9.31222 5.00225 9.29316 5.00802 9.27583L5.03402 9.22326C5.04441 9.20709 5.05308 9.19091 5.06001 9.17647L5.07156 9.1447C5.07387 9.10253 5.07329 9.05979 5.06983 9.01762V9.00318C5.06867 8.91191 5.04961 8.82122 5.01438 8.73573C4.98203 8.6537 4.93235 8.57688 4.86939 8.50987C4.83936 8.4833 4.8047 8.45788 4.76657 8.43362C4.72903 8.40878 4.68686 8.38683 4.64239 8.36835L4.64123 8.36661ZM13.6175 8.31231H8.0758C7.88576 8.31231 7.71363 8.38914 7.58944 8.51391C7.46525 8.63811 7.38784 8.81024 7.38784 9.00029C7.38784 9.19034 7.46467 9.36247 7.58944 9.48667C7.71363 9.61086 7.88576 9.68826 8.0758 9.68826H13.6175C13.8082 9.68826 13.9803 9.61144 14.1039 9.48782C14.2281 9.36247 14.3055 9.19034 14.3055 9.00029C14.3055 8.81024 14.2287 8.63811 14.1039 8.51391C13.9797 8.38914 13.8076 8.31231 13.6175 8.31231ZM4.87517 13.1333C4.84224 13.1039 4.80585 13.0762 4.76657 13.0513C4.72903 13.0265 4.68686 13.0045 4.64181 12.986L4.64065 12.9849C4.51357 12.9312 4.37494 12.919 4.24325 12.9439C4.11443 12.9687 3.99256 13.0305 3.89436 13.1258C3.86259 13.1593 3.83429 13.1951 3.81118 13.2315C3.7875 13.2691 3.7667 13.3095 3.75053 13.3517L3.74706 13.3615C3.71125 13.4424 3.69334 13.5302 3.69334 13.618C3.69334 13.7058 3.71125 13.793 3.74706 13.8739L3.75053 13.8837C3.76613 13.9236 3.78692 13.9646 3.81234 14.0044C3.83602 14.042 3.86259 14.0766 3.89205 14.1073C3.9579 14.1691 4.03414 14.2176 4.11674 14.2511C4.20166 14.2857 4.29177 14.3048 4.38188 14.3065C4.42404 14.306 4.46794 14.3008 4.51184 14.2915C4.55632 14.2817 4.59906 14.2684 4.64007 14.2511L4.64181 14.2499C4.68686 14.2314 4.72845 14.2095 4.766 14.1858C4.80412 14.1604 4.83936 14.135 4.86997 14.1078C4.89885 14.0772 4.926 14.0426 4.94968 14.0044C4.9751 13.9646 4.99589 13.9241 5.01149 13.8837L5.01611 13.8739C5.05134 13.7942 5.06925 13.7069 5.06925 13.618C5.06925 13.5302 5.05134 13.443 5.01553 13.3615L5.01207 13.3517C4.99532 13.3089 4.9751 13.2685 4.95142 13.231C4.92947 13.1969 4.90347 13.164 4.87517 13.1333ZM13.6175 12.9306H8.0758C7.88576 12.9306 7.71363 13.0074 7.58944 13.1322C7.46525 13.2564 7.38784 13.4285 7.38784 13.6186C7.38784 13.8086 7.46467 13.9807 7.58944 14.1049C7.71363 14.2291 7.88576 14.3065 8.0758 14.3065H13.6175C13.8076 14.3065 13.9803 14.2297 14.1045 14.1055C14.2287 13.9807 14.3055 13.8086 14.3055 13.6186C14.3055 13.4285 14.2287 13.2564 14.1039 13.1322C13.9797 13.0074 13.8076 12.9306 13.6175 12.9306ZM15.4648 1.37537C15.7836 1.37537 16.0736 1.50534 16.2839 1.71503L16.285 1.71618C16.4947 1.92645 16.6247 2.21585 16.6247 2.53528C16.5083 7.58499 16.4119 10.4162 16.6247 15.4659C16.6247 15.7847 16.4947 16.0747 16.285 16.285L16.2839 16.2861C16.0736 16.4958 15.7836 16.6258 15.4648 16.6258H2.53405C2.2152 16.6258 1.92523 16.4958 1.71497 16.2861L1.71382 16.285C1.50414 16.0747 1.37417 15.7853 1.37417 15.4659V2.53528C1.37417 2.21642 1.50414 1.92645 1.71382 1.71618L1.71497 1.71503C1.92523 1.50534 2.2152 1.37537 2.53405 1.37537H15.4648Z"/>
</mask>
<path fill-rule="evenodd" clip-rule="evenodd" d="M17.2577 17.2583C17.7158 16.8002 18 16.166 18 15.4653V2.53471C18 1.8346 17.7164 1.20035 17.2577 0.742274C16.7991 0.283624 16.1655 0 15.4654 0H2.53463C1.83454 0 1.20089 0.283624 0.74225 0.742274C0.283615 1.20092 0 1.8346 0 2.53471V15.4653C0 16.166 0.283615 16.7997 0.741673 17.2583C1.20089 17.7164 1.83454 18 2.53463 18H15.4654C16.1655 18 16.7985 17.717 17.2577 17.2583ZM13.6175 3.69404H8.0758C7.88576 3.69404 7.71363 3.77087 7.58944 3.89564C7.46525 4.01983 7.38784 4.19197 7.38784 4.38202C7.38784 4.57206 7.46467 4.7442 7.58944 4.86839C7.71363 4.99259 7.88576 5.06999 8.0758 5.06999H13.6175C13.8076 5.06999 13.9803 4.99317 14.1045 4.86897C14.2287 4.7442 14.3055 4.57206 14.3055 4.38202C14.3055 4.19197 14.2287 4.01983 14.1039 3.89564C13.9803 3.77087 13.8082 3.69404 13.6175 3.69404ZM5.06983 4.38086C5.06925 4.33869 5.06405 4.29479 5.05481 4.25089C5.04557 4.20757 5.03228 4.16482 5.01438 4.12323L5.01322 4.1215C4.99532 4.07875 4.97336 4.03716 4.94795 3.99673C4.92542 3.96033 4.89827 3.92452 4.86766 3.88986C4.83762 3.86387 4.80354 3.83845 4.766 3.81477C4.72845 3.78993 4.68686 3.76856 4.64181 3.75007L4.64065 3.74892C4.513 3.6952 4.37494 3.68249 4.24325 3.7079C4.11559 3.73274 3.99429 3.7934 3.89667 3.88697C3.86663 3.92048 3.83891 3.95687 3.81407 3.99615C3.78808 4.03658 3.76613 4.07875 3.7488 4.1215L3.74764 4.12323C3.72973 4.16482 3.71645 4.20757 3.70721 4.25089C3.69797 4.29537 3.69277 4.33985 3.69219 4.38317V4.3849C3.69219 4.47617 3.70952 4.56571 3.74302 4.64831C3.77594 4.7286 3.82447 4.8037 3.88685 4.86782C3.95443 4.93251 4.03241 4.98277 4.11559 5.01685C4.20166 5.05093 4.29234 5.06999 4.38361 5.07115H4.3865C4.42809 5.0723 4.47083 5.06826 4.513 5.05959C4.55343 5.05093 4.59329 5.03764 4.63141 5.01974L4.64123 5.01512C4.68628 4.99605 4.72845 4.97468 4.766 4.95042C4.80412 4.92558 4.83993 4.89843 4.87228 4.86955C4.93351 4.8037 4.98145 4.7286 5.01438 4.64831C5.04846 4.56282 5.06752 4.47271 5.06867 4.38202L5.06983 4.38086ZM4.64123 8.36661C4.51415 8.31289 4.37552 8.30076 4.24382 8.32618C4.11328 8.35102 3.99024 8.41398 3.89147 8.51102C3.86028 8.5428 3.83371 8.5763 3.81118 8.61211C3.78692 8.65139 3.7667 8.69125 3.75226 8.73111L3.7488 8.74093C3.73089 8.78252 3.7176 8.82526 3.70836 8.86859C3.69912 8.91306 3.69392 8.95754 3.69334 9.00087V9.0026C3.69334 9.09387 3.71067 9.1834 3.74418 9.26601C3.7771 9.3463 3.82562 9.42139 3.888 9.48551C3.95443 9.54905 4.03241 9.59931 4.11732 9.63339C4.20223 9.66805 4.29234 9.68711 4.38245 9.68884C4.4252 9.68827 4.4691 9.68307 4.513 9.67382C4.55632 9.66458 4.59906 9.6513 4.64065 9.63339L4.64239 9.63223C4.68744 9.61375 4.72903 9.5918 4.76657 9.56811C4.80297 9.54443 4.83589 9.51959 4.86535 9.49475L4.95546 9.38211C4.96643 9.36594 4.97625 9.34919 4.98434 9.33186C4.99416 9.31222 5.00225 9.29316 5.00802 9.27583L5.03402 9.22326C5.04441 9.20709 5.05308 9.19091 5.06001 9.17647L5.07156 9.1447C5.07387 9.10253 5.07329 9.05979 5.06983 9.01762V9.00318C5.06867 8.91191 5.04961 8.82122 5.01438 8.73573C4.98203 8.6537 4.93235 8.57688 4.86939 8.50987C4.83936 8.4833 4.8047 8.45788 4.76657 8.43362C4.72903 8.40878 4.68686 8.38683 4.64239 8.36835L4.64123 8.36661ZM13.6175 8.31231H8.0758C7.88576 8.31231 7.71363 8.38914 7.58944 8.51391C7.46525 8.63811 7.38784 8.81024 7.38784 9.00029C7.38784 9.19034 7.46467 9.36247 7.58944 9.48667C7.71363 9.61086 7.88576 9.68826 8.0758 9.68826H13.6175C13.8082 9.68826 13.9803 9.61144 14.1039 9.48782C14.2281 9.36247 14.3055 9.19034 14.3055 9.00029C14.3055 8.81024 14.2287 8.63811 14.1039 8.51391C13.9797 8.38914 13.8076 8.31231 13.6175 8.31231ZM4.87517 13.1333C4.84224 13.1039 4.80585 13.0762 4.76657 13.0513C4.72903 13.0265 4.68686 13.0045 4.64181 12.986L4.64065 12.9849C4.51357 12.9312 4.37494 12.919 4.24325 12.9439C4.11443 12.9687 3.99256 13.0305 3.89436 13.1258C3.86259 13.1593 3.83429 13.1951 3.81118 13.2315C3.7875 13.2691 3.7667 13.3095 3.75053 13.3517L3.74706 13.3615C3.71125 13.4424 3.69334 13.5302 3.69334 13.618C3.69334 13.7058 3.71125 13.793 3.74706 13.8739L3.75053 13.8837C3.76613 13.9236 3.78692 13.9646 3.81234 14.0044C3.83602 14.042 3.86259 14.0766 3.89205 14.1073C3.9579 14.1691 4.03414 14.2176 4.11674 14.2511C4.20166 14.2857 4.29177 14.3048 4.38188 14.3065C4.42404 14.306 4.46794 14.3008 4.51184 14.2915C4.55632 14.2817 4.59906 14.2684 4.64007 14.2511L4.64181 14.2499C4.68686 14.2314 4.72845 14.2095 4.766 14.1858C4.80412 14.1604 4.83936 14.135 4.86997 14.1078C4.89885 14.0772 4.926 14.0426 4.94968 14.0044C4.9751 13.9646 4.99589 13.9241 5.01149 13.8837L5.01611 13.8739C5.05134 13.7942 5.06925 13.7069 5.06925 13.618C5.06925 13.5302 5.05134 13.443 5.01553 13.3615L5.01207 13.3517C4.99532 13.3089 4.9751 13.2685 4.95142 13.231C4.92947 13.1969 4.90347 13.164 4.87517 13.1333ZM13.6175 12.9306H8.0758C7.88576 12.9306 7.71363 13.0074 7.58944 13.1322C7.46525 13.2564 7.38784 13.4285 7.38784 13.6186C7.38784 13.8086 7.46467 13.9807 7.58944 14.1049C7.71363 14.2291 7.88576 14.3065 8.0758 14.3065H13.6175C13.8076 14.3065 13.9803 14.2297 14.1045 14.1055C14.2287 13.9807 14.3055 13.8086 14.3055 13.6186C14.3055 13.4285 14.2287 13.2564 14.1039 13.1322C13.9797 13.0074 13.8076 12.9306 13.6175 12.9306ZM15.4648 1.37537C15.7836 1.37537 16.0736 1.50534 16.2839 1.71503L16.285 1.71618C16.4947 1.92645 16.6247 2.21585 16.6247 2.53528C16.5083 7.58499 16.4119 10.4162 16.6247 15.4659C16.6247 15.7847 16.4947 16.0747 16.285 16.285L16.2839 16.2861C16.0736 16.4958 15.7836 16.6258 15.4648 16.6258H2.53405C2.2152 16.6258 1.92523 16.4958 1.71497 16.2861L1.71382 16.285C1.50414 16.0747 1.37417 15.7853 1.37417 15.4659V2.53528C1.37417 2.21642 1.50414 1.92645 1.71382 1.71618L1.71497 1.71503C1.92523 1.50534 2.2152 1.37537 2.53405 1.37537H15.4648Z" fill="white" stroke="#1F7BB5" stroke-width="0.2" mask="url(#path-1-inside-1_438_11879)"/>
</svg>
