<svg width="21" height="21" viewBox="0 0 21 21" fill="none" xmlns="http://www.w3.org/2000/svg">
<path fill-rule="evenodd" clip-rule="evenodd" d="M17.2077 4.75008H16.2493V3.79175C16.2493 2.20393 14.9622 0.916748 13.3743 0.916748H3.79102C2.2032 0.916748 0.916016 2.20393 0.916016 3.79175V10.5001C0.916016 12.0879 2.2032 13.3751 3.79102 13.3751V15.2917C3.79211 15.6526 3.99583 15.9823 4.3181 16.1447C4.45035 16.2164 4.59891 16.2527 4.74935 16.2501C4.9567 16.2501 5.15847 16.1828 5.32435 16.0584C5.86731 16.7824 6.71942 17.2084 7.62435 17.2084H12.0998L15.6743 19.8917C15.8402 20.0162 16.042 20.0834 16.2493 20.0834C16.3998 20.0861 16.5484 20.0498 16.6806 19.978C17.0029 19.8156 17.2066 19.486 17.2077 19.1251V17.2084C18.7955 17.2084 20.0827 15.9212 20.0827 14.3334V7.62508C20.0827 6.03726 18.7955 4.75008 17.2077 4.75008ZM5.70768 13.3751V12.4167C5.70768 11.8875 5.27862 11.4584 4.74935 11.4584H3.79102C3.26174 11.4584 2.83268 11.0294 2.83268 10.5001V3.79175C2.83268 3.26248 3.26174 2.83341 3.79102 2.83341H13.3743C13.9036 2.83341 14.3327 3.26248 14.3327 3.79175V10.5001C14.3327 11.0294 13.9036 11.4584 13.3743 11.4584H8.58268C8.37533 11.4584 8.17357 11.5257 8.00768 11.6501L5.70768 13.3751ZM17.2077 15.2917C17.737 15.2917 18.166 14.8627 18.166 14.3334V7.62508C18.166 7.09581 17.737 6.66675 17.2077 6.66675H16.2493V10.5001C16.2493 12.0879 14.9622 13.3751 13.3743 13.3751H8.89893L6.87685 14.8988C7.05177 15.1384 7.3278 15.2835 7.62435 15.2917H12.416C12.6234 15.2917 12.8251 15.359 12.991 15.4834L15.291 17.2084V16.2501C15.291 15.7208 15.7201 15.2917 16.2493 15.2917H17.2077Z" fill="black"/>
<path d="M16.2493 4.75008H15.7493V5.25008H16.2493V4.75008ZM3.79102 13.3751H4.29102V12.8751H3.79102V13.3751ZM3.79102 15.2917L3.29101 15.2917L3.29102 15.2933L3.79102 15.2917ZM4.3181 16.1447L4.55654 15.7052L4.54987 15.7016L4.5431 15.6982L4.3181 16.1447ZM4.74935 16.2501L4.74935 15.75L4.74054 15.7502L4.74935 16.2501ZM5.32435 16.0584L5.72435 15.7584L5.42435 15.3584L5.02435 15.6584L5.32435 16.0584ZM12.0998 17.2084L12.3999 16.8085L12.2666 16.7084H12.0998V17.2084ZM15.6743 19.8917L15.3742 20.2916L15.3743 20.2917L15.6743 19.8917ZM16.2493 20.0834L16.2582 19.5834H16.2493V20.0834ZM16.6806 19.978L16.4556 19.5315L16.4488 19.5349L16.4422 19.5385L16.6806 19.978ZM17.2077 19.1251L17.7077 19.1266V19.1251H17.2077ZM17.2077 17.2084V16.7084H16.7077V17.2084H17.2077ZM5.70768 13.3751H5.20768V14.3751L6.00768 13.7751L5.70768 13.3751ZM8.00768 11.6501L7.70768 11.2501L7.70768 11.2501L8.00768 11.6501ZM16.2493 6.66675V6.16675H15.7493V6.66675H16.2493ZM8.89893 13.3751V12.8751H8.73163L8.59802 12.9758L8.89893 13.3751ZM6.87685 14.8988L6.57594 14.4995L6.18264 14.7959L6.47301 15.1936L6.87685 14.8988ZM7.62435 15.2917L7.6105 15.7917H7.62435V15.2917ZM12.991 15.4834L12.691 15.8834L12.691 15.8834L12.991 15.4834ZM15.291 17.2084L14.991 17.6084L15.791 18.2084V17.2084H15.291ZM16.2493 5.25008H17.2077V4.25008H16.2493V5.25008ZM15.7493 3.79175V4.75008H16.7493V3.79175H15.7493ZM13.3743 1.41675C14.686 1.41675 15.7493 2.48007 15.7493 3.79175H16.7493C16.7493 1.92779 15.2383 0.416748 13.3743 0.416748V1.41675ZM3.79102 1.41675H13.3743V0.416748H3.79102V1.41675ZM1.41602 3.79175C1.41602 2.48007 2.47934 1.41675 3.79102 1.41675V0.416748C1.92705 0.416748 0.416016 1.92779 0.416016 3.79175H1.41602ZM1.41602 10.5001V3.79175H0.416016V10.5001H1.41602ZM3.79102 12.8751C2.47934 12.8751 1.41602 11.8118 1.41602 10.5001H0.416016C0.416016 12.364 1.92705 13.8751 3.79102 13.8751V12.8751ZM4.29102 15.2917V13.3751H3.29102V15.2917H4.29102ZM4.5431 15.6982C4.38897 15.6205 4.29154 15.4628 4.29101 15.2902L3.29102 15.2933C3.29268 15.8424 3.60269 16.3441 4.0931 16.5912L4.5431 15.6982ZM4.74054 15.7502C4.67635 15.7513 4.61297 15.7358 4.55654 15.7052L4.07966 16.5841C4.28773 16.697 4.52147 16.7542 4.75816 16.75L4.74054 15.7502ZM5.02435 15.6584C4.94501 15.7179 4.84852 15.7501 4.74935 15.7501V16.7501C5.06489 16.7501 5.37192 16.6477 5.62435 16.4584L5.02435 15.6584ZM7.62435 16.7084C6.8768 16.7084 6.17288 16.3565 5.72435 15.7584L4.92435 16.3584C5.56173 17.2083 6.56204 17.7084 7.62435 17.7084V16.7084ZM12.0998 16.7084H7.62435V17.7084H12.0998V16.7084ZM15.9745 19.4919L12.3999 16.8085L11.7996 17.6083L15.3742 20.2916L15.9745 19.4919ZM16.2493 19.5834C16.1502 19.5834 16.0537 19.5513 15.9744 19.4918L15.3743 20.2917C15.6268 20.4811 15.9338 20.5834 16.2493 20.5834V19.5834ZM16.4422 19.5385C16.3857 19.5691 16.3223 19.5846 16.2582 19.5835L16.2405 20.5833C16.4772 20.5875 16.711 20.5304 16.919 20.4175L16.4422 19.5385ZM16.7077 19.1236C16.7072 19.2962 16.6097 19.4538 16.4556 19.5315L16.9056 20.4245C17.396 20.1774 17.706 19.6757 17.7077 19.1266L16.7077 19.1236ZM16.7077 17.2084V19.1251H17.7077V17.2084H16.7077ZM19.5827 14.3334C19.5827 15.6451 18.5194 16.7084 17.2077 16.7084V17.7084C19.0716 17.7084 20.5827 16.1974 20.5827 14.3334H19.5827ZM19.5827 7.62508V14.3334H20.5827V7.62508H19.5827ZM17.2077 5.25008C18.5194 5.25008 19.5827 6.31341 19.5827 7.62508H20.5827C20.5827 5.76112 19.0716 4.25008 17.2077 4.25008V5.25008ZM5.20768 12.4167V13.3751H6.20768V12.4167H5.20768ZM4.74935 11.9584C5.00248 11.9584 5.20768 12.1636 5.20768 12.4167H6.20768C6.20768 11.6113 5.55476 10.9584 4.74935 10.9584V11.9584ZM3.79102 11.9584H4.74935V10.9584H3.79102V11.9584ZM2.33268 10.5001C2.33268 11.3055 2.9856 11.9584 3.79102 11.9584V10.9584C3.53788 10.9584 3.33268 10.7532 3.33268 10.5001H2.33268ZM2.33268 3.79175V10.5001H3.33268V3.79175H2.33268ZM3.79102 2.33341C2.9856 2.33341 2.33268 2.98633 2.33268 3.79175H3.33268C3.33268 3.53862 3.53789 3.33341 3.79102 3.33341V2.33341ZM13.3743 2.33341H3.79102V3.33341H13.3743V2.33341ZM14.8327 3.79175C14.8327 2.98633 14.1798 2.33341 13.3743 2.33341V3.33341C13.6275 3.33341 13.8327 3.53862 13.8327 3.79175H14.8327ZM14.8327 10.5001V3.79175H13.8327V10.5001H14.8327ZM13.3743 11.9584C14.1798 11.9584 14.8327 11.3055 14.8327 10.5001H13.8327C13.8327 10.7532 13.6275 10.9584 13.3743 10.9584V11.9584ZM8.58268 11.9584H13.3743V10.9584H8.58268V11.9584ZM8.30768 12.0501C8.38702 11.9906 8.48351 11.9584 8.58268 11.9584V10.9584C8.26714 10.9584 7.96011 11.0608 7.70768 11.2501L8.30768 12.0501ZM6.00768 13.7751L8.30768 12.0501L7.70768 11.2501L5.40768 12.9751L6.00768 13.7751ZM17.666 14.3334C17.666 14.5865 17.4608 14.7917 17.2077 14.7917V15.7917C18.0131 15.7917 18.666 15.1388 18.666 14.3334H17.666ZM17.666 7.62508V14.3334H18.666V7.62508H17.666ZM17.2077 7.16675C17.4608 7.16675 17.666 7.37195 17.666 7.62508H18.666C18.666 6.81967 18.0131 6.16675 17.2077 6.16675V7.16675ZM16.2493 7.16675H17.2077V6.16675H16.2493V7.16675ZM16.7493 10.5001V6.66675H15.7493V10.5001H16.7493ZM13.3743 13.8751C15.2383 13.8751 16.7493 12.364 16.7493 10.5001H15.7493C15.7493 11.8118 14.686 12.8751 13.3743 12.8751V13.8751ZM8.89893 13.8751H13.3743V12.8751H8.89893V13.8751ZM7.17776 15.2981L9.19984 13.7744L8.59802 12.9758L6.57594 14.4995L7.17776 15.2981ZM7.63819 14.7919C7.49636 14.788 7.36435 14.7186 7.28069 14.604L6.47301 15.1936C6.73919 15.5583 7.15923 15.7791 7.61051 15.7916L7.63819 14.7919ZM12.416 14.7917H7.62435V15.7917H12.416V14.7917ZM13.291 15.0834C13.0386 14.8941 12.7316 14.7917 12.416 14.7917V15.7917C12.5152 15.7917 12.6117 15.8239 12.691 15.8834L13.291 15.0834ZM15.591 16.8084L13.291 15.0834L12.691 15.8834L14.991 17.6084L15.591 16.8084ZM14.791 16.2501V17.2084H15.791V16.2501H14.791ZM16.2493 14.7917C15.4439 14.7917 14.791 15.4447 14.791 16.2501H15.791C15.791 15.997 15.9962 15.7917 16.2493 15.7917V14.7917ZM17.2077 14.7917H16.2493V15.7917H17.2077V14.7917Z" fill="white"/>
</svg>
