<svg width="21" height="21" viewBox="0 0 21 21" fill="none" xmlns="http://www.w3.org/2000/svg">
<path fill-rule="evenodd" clip-rule="evenodd" d="M17.2077 4.75001H16.2493V3.79167C16.2493 2.20385 14.9622 0.916672 13.3743 0.916672H3.79102C2.2032 0.916672 0.916016 2.20385 0.916016 3.79167V10.5C0.916016 12.0878 2.2032 13.375 3.79102 13.375V15.2917C3.79211 15.6525 3.99583 15.9822 4.3181 16.1446C4.45035 16.2163 4.59891 16.2527 4.74935 16.25C4.9567 16.25 5.15847 16.1828 5.32435 16.0583C5.86731 16.7823 6.71942 17.2083 7.62435 17.2083H12.0998L15.6743 19.8917C15.8402 20.0161 16.042 20.0833 16.2493 20.0833C16.3998 20.086 16.5484 20.0497 16.6806 19.9779C17.0029 19.8155 17.2066 19.4859 17.2077 19.125V17.2083C18.7955 17.2083 20.0827 15.9212 20.0827 14.3333V7.62501C20.0827 6.03719 18.7955 4.75001 17.2077 4.75001ZM5.70768 13.375V12.4167C5.70768 11.8874 5.27862 11.4583 4.74935 11.4583H3.79102C3.26174 11.4583 2.83268 11.0293 2.83268 10.5V3.79167C2.83268 3.2624 3.26174 2.83334 3.79102 2.83334H13.3743C13.9036 2.83334 14.3327 3.2624 14.3327 3.79167V10.5C14.3327 11.0293 13.9036 11.4583 13.3743 11.4583H8.58268C8.37533 11.4583 8.17357 11.5256 8.00768 11.65L5.70768 13.375ZM17.2077 15.2917C17.737 15.2917 18.166 14.8626 18.166 14.3333V7.62501C18.166 7.09573 17.737 6.66667 17.2077 6.66667H16.2493V10.5C16.2493 12.0878 14.9622 13.375 13.3743 13.375H8.89893L6.87685 14.8988C7.05177 15.1384 7.3278 15.2835 7.62435 15.2917H12.416C12.6234 15.2917 12.8251 15.3589 12.991 15.4833L15.291 17.2083V16.25C15.291 15.7207 15.7201 15.2917 16.2493 15.2917H17.2077Z" fill="black"/>
<path d="M16.2493 4.75001H15.7493V5.25001H16.2493V4.75001ZM3.79102 13.375H4.29102V12.875H3.79102V13.375ZM3.79102 15.2917L3.29101 15.2917L3.29102 15.2932L3.79102 15.2917ZM4.3181 16.1446L4.55654 15.7051L4.54987 15.7015L4.5431 15.6981L4.3181 16.1446ZM4.74935 16.25L4.74935 15.7499L4.74054 15.7501L4.74935 16.25ZM5.32435 16.0583L5.72435 15.7583L5.42435 15.3583L5.02435 15.6583L5.32435 16.0583ZM12.0998 17.2083L12.3999 16.8085L12.2666 16.7083H12.0998V17.2083ZM15.6743 19.8917L15.3742 20.2915L15.3743 20.2917L15.6743 19.8917ZM16.2493 20.0833L16.2582 19.5833H16.2493V20.0833ZM16.6806 19.9779L16.4556 19.5314L16.4488 19.5348L16.4422 19.5384L16.6806 19.9779ZM17.2077 19.125L17.7077 19.1265V19.125H17.2077ZM17.2077 17.2083V16.7083H16.7077V17.2083H17.2077ZM5.70768 13.375H5.20768V14.375L6.00768 13.775L5.70768 13.375ZM8.00768 11.65L7.70768 11.25L7.70768 11.25L8.00768 11.65ZM16.2493 6.66667V6.16667H15.7493V6.66667H16.2493ZM8.89893 13.375V12.875H8.73163L8.59802 12.9757L8.89893 13.375ZM6.87685 14.8988L6.57594 14.4994L6.18264 14.7958L6.47301 15.1936L6.87685 14.8988ZM7.62435 15.2917L7.6105 15.7917H7.62435V15.2917ZM12.991 15.4833L12.691 15.8833L12.691 15.8833L12.991 15.4833ZM15.291 17.2083L14.991 17.6083L15.791 18.2083V17.2083H15.291ZM16.2493 5.25001H17.2077V4.25001H16.2493V5.25001ZM15.7493 3.79167V4.75001H16.7493V3.79167H15.7493ZM13.3743 1.41667C14.686 1.41667 15.7493 2.48 15.7493 3.79167H16.7493C16.7493 1.92771 15.2383 0.416672 13.3743 0.416672V1.41667ZM3.79102 1.41667H13.3743V0.416672H3.79102V1.41667ZM1.41602 3.79167C1.41602 2.48 2.47934 1.41667 3.79102 1.41667V0.416672C1.92705 0.416672 0.416016 1.92771 0.416016 3.79167H1.41602ZM1.41602 10.5V3.79167H0.416016V10.5H1.41602ZM3.79102 12.875C2.47934 12.875 1.41602 11.8117 1.41602 10.5H0.416016C0.416016 12.364 1.92705 13.875 3.79102 13.875V12.875ZM4.29102 15.2917V13.375H3.29102V15.2917H4.29102ZM4.5431 15.6981C4.38897 15.6204 4.29154 15.4627 4.29101 15.2902L3.29102 15.2932C3.29268 15.8423 3.60269 16.344 4.0931 16.5911L4.5431 15.6981ZM4.74054 15.7501C4.67635 15.7512 4.61297 15.7357 4.55654 15.7051L4.07966 16.5841C4.28773 16.697 4.52147 16.7541 4.75816 16.7499L4.74054 15.7501ZM5.02435 15.6583C4.94501 15.7178 4.84852 15.75 4.74935 15.75V16.75C5.06489 16.75 5.37192 16.6477 5.62435 16.4583L5.02435 15.6583ZM7.62435 16.7083C6.8768 16.7083 6.17288 16.3564 5.72435 15.7583L4.92435 16.3583C5.56173 17.2082 6.56204 17.7083 7.62435 17.7083V16.7083ZM12.0998 16.7083H7.62435V17.7083H12.0998V16.7083ZM15.9745 19.4918L12.3999 16.8085L11.7996 17.6082L15.3742 20.2915L15.9745 19.4918ZM16.2493 19.5833C16.1502 19.5833 16.0537 19.5512 15.9744 19.4917L15.3743 20.2917C15.6268 20.481 15.9338 20.5833 16.2493 20.5833V19.5833ZM16.4422 19.5384C16.3857 19.5691 16.3223 19.5845 16.2582 19.5834L16.2405 20.5833C16.4772 20.5874 16.711 20.5303 16.919 20.4174L16.4422 19.5384ZM16.7077 19.1235C16.7072 19.2961 16.6097 19.4537 16.4556 19.5314L16.9056 20.4244C17.396 20.1773 17.706 19.6757 17.7077 19.1265L16.7077 19.1235ZM16.7077 17.2083V19.125H17.7077V17.2083H16.7077ZM19.5827 14.3333C19.5827 15.645 18.5194 16.7083 17.2077 16.7083V17.7083C19.0716 17.7083 20.5827 16.1973 20.5827 14.3333H19.5827ZM19.5827 7.62501V14.3333H20.5827V7.62501H19.5827ZM17.2077 5.25001C18.5194 5.25001 19.5827 6.31333 19.5827 7.62501H20.5827C20.5827 5.76104 19.0716 4.25001 17.2077 4.25001V5.25001ZM5.20768 12.4167V13.375H6.20768V12.4167H5.20768ZM4.74935 11.9583C5.00248 11.9583 5.20768 12.1635 5.20768 12.4167H6.20768C6.20768 11.6113 5.55476 10.9583 4.74935 10.9583V11.9583ZM3.79102 11.9583H4.74935V10.9583H3.79102V11.9583ZM2.33268 10.5C2.33268 11.3054 2.9856 11.9583 3.79102 11.9583V10.9583C3.53788 10.9583 3.33268 10.7531 3.33268 10.5H2.33268ZM2.33268 3.79167V10.5H3.33268V3.79167H2.33268ZM3.79102 2.33334C2.9856 2.33334 2.33268 2.98626 2.33268 3.79167H3.33268C3.33268 3.53854 3.53789 3.33334 3.79102 3.33334V2.33334ZM13.3743 2.33334H3.79102V3.33334H13.3743V2.33334ZM14.8327 3.79167C14.8327 2.98626 14.1798 2.33334 13.3743 2.33334V3.33334C13.6275 3.33334 13.8327 3.53854 13.8327 3.79167H14.8327ZM14.8327 10.5V3.79167H13.8327V10.5H14.8327ZM13.3743 11.9583C14.1798 11.9583 14.8327 11.3054 14.8327 10.5H13.8327C13.8327 10.7531 13.6275 10.9583 13.3743 10.9583V11.9583ZM8.58268 11.9583H13.3743V10.9583H8.58268V11.9583ZM8.30768 12.05C8.38702 11.9905 8.48351 11.9583 8.58268 11.9583V10.9583C8.26714 10.9583 7.96011 11.0607 7.70768 11.25L8.30768 12.05ZM6.00768 13.775L8.30768 12.05L7.70768 11.25L5.40768 12.975L6.00768 13.775ZM17.666 14.3333C17.666 14.5865 17.4608 14.7917 17.2077 14.7917V15.7917C18.0131 15.7917 18.666 15.1388 18.666 14.3333H17.666ZM17.666 7.62501V14.3333H18.666V7.62501H17.666ZM17.2077 7.16667C17.4608 7.16667 17.666 7.37188 17.666 7.62501H18.666C18.666 6.81959 18.0131 6.16667 17.2077 6.16667V7.16667ZM16.2493 7.16667H17.2077V6.16667H16.2493V7.16667ZM16.7493 10.5V6.66667H15.7493V10.5H16.7493ZM13.3743 13.875C15.2383 13.875 16.7493 12.364 16.7493 10.5H15.7493C15.7493 11.8117 14.686 12.875 13.3743 12.875V13.875ZM8.89893 13.875H13.3743V12.875H8.89893V13.875ZM7.17776 15.2981L9.19984 13.7743L8.59802 12.9757L6.57594 14.4994L7.17776 15.2981ZM7.63819 14.7919C7.49636 14.7879 7.36435 14.7185 7.28069 14.6039L6.47301 15.1936C6.73919 15.5582 7.15923 15.779 7.61051 15.7915L7.63819 14.7919ZM12.416 14.7917H7.62435V15.7917H12.416V14.7917ZM13.291 15.0833C13.0386 14.894 12.7316 14.7917 12.416 14.7917V15.7917C12.5152 15.7917 12.6117 15.8238 12.691 15.8833L13.291 15.0833ZM15.591 16.8083L13.291 15.0833L12.691 15.8833L14.991 17.6083L15.591 16.8083ZM14.791 16.25V17.2083H15.791V16.25H14.791ZM16.2493 14.7917C15.4439 14.7917 14.791 15.4446 14.791 16.25H15.791C15.791 15.9969 15.9962 15.7917 16.2493 15.7917V14.7917ZM17.2077 14.7917H16.2493V15.7917H17.2077V14.7917Z" fill="white"/>
</svg>
