<svg width="13" height="18" viewBox="0 0 13 18" fill="none" xmlns="http://www.w3.org/2000/svg">
<path d="M10.8013 14.3406C10.8013 15.1386 10.1696 15.7775 9.40635 15.7775H3.59365C2.83043 15.7775 2.19873 15.1386 2.19873 14.3406V3.65996C2.19873 2.86164 2.8304 2.22301 3.59365 2.22301H9.40635C10.1696 2.22301 10.8013 2.86164 10.8013 3.65996V14.3406ZM9.40635 0.750366H3.59365C2.01965 0.750366 0.75 2.06165 0.75 3.66029V14.3409C0.75 15.9396 2.01969 17.2505 3.59365 17.2505H9.40635C10.9803 17.2505 12.25 15.9396 12.25 14.3409V3.66029C12.25 2.06165 10.9803 0.750366 9.40635 0.750366ZM6.40703 13.8112C6.47379 13.8112 6.51708 13.8648 6.51708 13.9177C6.51708 13.9706 6.47379 14.0242 6.40703 14.0242C6.34026 14.0242 6.29697 13.9706 6.29697 13.9177C6.29697 13.8648 6.34026 13.8112 6.40703 13.8112ZM6.40703 12.8386C5.81709 12.8386 5.34856 13.3287 5.34856 13.9177C5.34856 14.5071 5.81715 14.9968 6.40703 14.9968C6.9969 14.9968 7.46549 14.5071 7.46549 13.9177C7.46549 13.3283 6.9969 12.8386 6.40703 12.8386ZM7.81355 3.35396H5.27846C4.87282 3.35396 4.55393 3.68941 4.55393 4.09029C4.55393 4.49105 4.87239 4.82661 5.27846 4.82661H7.81355C8.21941 4.82661 8.53776 4.49094 8.53776 4.09029C8.53776 3.68963 8.21941 3.35396 7.81355 3.35396Z" fill="#AFAFAF" stroke="#AFAFAF" stroke-width="0.5"/>
</svg>
