<svg width="4" height="15" viewBox="0 0 4 15" fill="none" xmlns="http://www.w3.org/2000/svg">
<path d="M2 10.5469C1.53587 10.5469 1.09075 10.7197 0.762563 11.0274C0.434374 11.3351 0.25 11.7524 0.25 12.1875C0.25 12.6226 0.434374 13.0399 0.762563 13.3476C1.09075 13.6553 1.53587 13.8281 2 13.8281C2.46413 13.8281 2.90925 13.6553 3.23744 13.3476C3.56563 13.0399 3.75 12.6226 3.75 12.1875C3.75 11.7524 3.56563 11.3351 3.23744 11.0274C2.90925 10.7197 2.46413 10.5469 2 10.5469ZM2 5.85938C1.53587 5.85938 1.09075 6.03223 0.762563 6.3399C0.434374 6.64758 0.25 7.06488 0.25 7.5C0.25 7.93512 0.434374 8.35242 0.762563 8.6601C1.09075 8.96777 1.53587 9.14062 2 9.14062C2.46413 9.14062 2.90925 8.96777 3.23744 8.6601C3.56563 8.35242 3.75 7.93512 3.75 7.5C3.75 7.06488 3.56563 6.64758 3.23744 6.3399C2.90925 6.03223 2.46413 5.85938 2 5.85938ZM3.75 2.8125C3.75 2.37738 3.56563 1.96008 3.23744 1.6524C2.90925 1.34473 2.46413 1.17188 2 1.17188C1.53587 1.17188 1.09075 1.34473 0.762563 1.6524C0.434374 1.96008 0.25 2.37738 0.25 2.8125C0.25 3.24762 0.434374 3.66492 0.762563 3.9726C1.09075 4.28027 1.53587 4.45312 2 4.45312C2.46413 4.45312 2.90925 4.28027 3.23744 3.9726C3.56563 3.66492 3.75 3.24762 3.75 2.8125Z" fill="black"/>
</svg>
