<svg width="21" height="21" viewBox="0 0 21 21" fill="none" xmlns="http://www.w3.org/2000/svg">
<path fill-rule="evenodd" clip-rule="evenodd" d="M19.0669 15.2917H18.1661V8.58332C18.1661 4.34914 14.7336 0.916656 10.4994 0.916656C6.26522 0.916656 2.83273 4.34914 2.83273 8.58332V15.2917H1.97982C1.45054 15.2917 1.02148 15.7207 1.02148 16.25C1.02148 16.7793 1.45054 17.2083 1.97982 17.2083H7.6244C7.6244 18.7961 8.91158 20.0833 10.4994 20.0833C12.0872 20.0833 13.3744 18.7961 13.3744 17.2083H19.0669C19.5962 17.2083 20.0252 16.7793 20.0252 16.25C20.0252 15.7207 19.5962 15.2917 19.0669 15.2917ZM10.4994 18.1667C9.97013 18.1667 9.54107 17.7376 9.54107 17.2083H11.4577C11.4577 17.7376 11.0287 18.1667 10.4994 18.1667ZM4.7494 15.2917H12.4161H16.2494V8.58332C16.2494 5.40769 13.675 2.83332 10.4994 2.83332C7.32376 2.83332 4.7494 5.40769 4.7494 8.58332V15.2917Z" fill="#231F20"/>
<path d="M18.1661 15.2917H17.7661V15.6917H18.1661V15.2917ZM2.83273 15.2917V15.6917H3.23273V15.2917H2.83273ZM7.6244 17.2083H8.0244V16.8083H7.6244V17.2083ZM13.3744 17.2083V16.8083H12.9744V17.2083H13.3744ZM9.54107 17.2083V16.8083H9.14107V17.2083H9.54107ZM11.4577 17.2083H11.8577V16.8083H11.4577V17.2083ZM4.7494 15.2917H4.3494V15.6917H4.7494V15.2917ZM16.2494 15.2917V15.6917H16.6494V15.2917H16.2494ZM18.1661 15.6917H19.0669V14.8917H18.1661V15.6917ZM17.7661 8.58332V15.2917H18.5661V8.58332H17.7661ZM10.4994 1.31666C14.5127 1.31666 17.7661 4.57005 17.7661 8.58332H18.5661C18.5661 4.12823 14.9545 0.516656 10.4994 0.516656V1.31666ZM3.23273 8.58332C3.23273 4.57005 6.48613 1.31666 10.4994 1.31666V0.516656C6.0443 0.516656 2.43273 4.12823 2.43273 8.58332H3.23273ZM3.23273 15.2917V8.58332H2.43273V15.2917H3.23273ZM1.97982 15.6917H2.83273V14.8917H1.97982V15.6917ZM1.42148 16.25C1.42148 15.9416 1.67146 15.6917 1.97982 15.6917V14.8917C1.22963 14.8917 0.621484 15.4998 0.621484 16.25H1.42148ZM1.97982 16.8083C1.67146 16.8083 1.42148 16.5583 1.42148 16.25H0.621484C0.621484 17.0002 1.22963 17.6083 1.97982 17.6083V16.8083ZM7.6244 16.8083H1.97982V17.6083H7.6244V16.8083ZM10.4994 19.6833C9.1325 19.6833 8.0244 18.5752 8.0244 17.2083H7.2244C7.2244 19.0171 8.69067 20.4833 10.4994 20.4833V19.6833ZM12.9744 17.2083C12.9744 18.5752 11.8663 19.6833 10.4994 19.6833V20.4833C12.3081 20.4833 13.7744 19.0171 13.7744 17.2083H12.9744ZM19.0669 16.8083H13.3744V17.6083H19.0669V16.8083ZM19.6252 16.25C19.6252 16.5583 19.3753 16.8083 19.0669 16.8083V17.6083C19.8171 17.6083 20.4252 17.0002 20.4252 16.25H19.6252ZM19.0669 15.6917C19.3753 15.6917 19.6252 15.9416 19.6252 16.25H20.4252C20.4252 15.4998 19.8171 14.8917 19.0669 14.8917V15.6917ZM9.14107 17.2083C9.14107 17.9585 9.74922 18.5667 10.4994 18.5667V17.7667C10.191 17.7667 9.94107 17.5167 9.94107 17.2083H9.14107ZM11.4577 16.8083H9.54107V17.6083H11.4577V16.8083ZM10.4994 18.5667C11.2496 18.5667 11.8577 17.9585 11.8577 17.2083H11.0577C11.0577 17.5167 10.8078 17.7667 10.4994 17.7667V18.5667ZM12.4161 14.8917H4.7494V15.6917H12.4161V14.8917ZM16.2494 14.8917H12.4161V15.6917H16.2494V14.8917ZM15.8494 8.58332V15.2917H16.6494V8.58332H15.8494ZM10.4994 3.23332C13.4541 3.23332 15.8494 5.6286 15.8494 8.58332H16.6494C16.6494 5.18677 13.896 2.43332 10.4994 2.43332V3.23332ZM5.1494 8.58332C5.1494 5.6286 7.54468 3.23332 10.4994 3.23332V2.43332C7.10285 2.43332 4.3494 5.18677 4.3494 8.58332H5.1494ZM5.1494 15.2917V8.58332H4.3494V15.2917H5.1494Z" fill="white"/>
</svg>
