<svg width="33" height="31" viewBox="0 0 33 31" fill="none" xmlns="http://www.w3.org/2000/svg">
<path d="M30.2508 6.45817V11.6248C30.2508 12.3382 29.6352 12.9165 28.8758 12.9165C28.1164 12.9165 27.5008 12.3382 27.5008 11.6248V9.71317L18.907 18.9357C18.6464 19.2144 18.2707 19.3744 17.8758 19.3748C17.4941 19.384 17.1255 19.2436 16.8583 18.9873L13.7783 16.0682L5.1158 25.394C4.79868 25.7639 4.29108 25.9404 3.79403 25.8537C3.29697 25.7671 2.89063 25.4312 2.73592 24.979C2.58121 24.5269 2.70309 24.0315 3.0533 23.689L12.6783 13.3557C12.9286 13.0863 13.2867 12.9264 13.6671 12.9141C14.0476 12.9019 14.4164 13.0384 14.6858 13.2911L17.8758 16.1844L25.672 7.74984H23.3758C22.6164 7.74984 22.0008 7.17154 22.0008 6.45817C22.0008 5.7448 22.6164 5.1665 23.3758 5.1665H28.8758C29.6352 5.1665 30.2508 5.7448 30.2508 6.45817Z" fill="black" stroke="white" stroke-width="0.8"/>
</svg>
