<svg width="23" height="22" viewBox="0 0 23 22" fill="none" xmlns="http://www.w3.org/2000/svg">
<path d="M21.0824 4.45172V8.01309C21.0824 8.50482 20.6533 8.90344 20.1241 8.90344C19.5948 8.90344 19.1657 8.50482 19.1657 8.01309V6.69538L13.1762 13.0524C12.9945 13.2446 12.7327 13.3548 12.4574 13.3552C12.1914 13.3615 11.9345 13.2647 11.7482 13.0881L9.60158 11.0759L3.56408 17.5042C3.34305 17.7591 2.98928 17.8808 2.64284 17.8211C2.29641 17.7613 2.0132 17.5298 1.90537 17.2181C1.79755 16.9065 1.88249 16.565 2.12658 16.3289L8.83491 9.20615C9.00939 9.02044 9.25892 8.91025 9.5241 8.90181C9.78927 8.89337 10.0463 8.98745 10.2341 9.16164L12.4574 11.156L17.8912 5.34206H16.2907C15.7615 5.34206 15.3324 4.94344 15.3324 4.45172C15.3324 3.96 15.7615 3.56137 16.2907 3.56137H20.1241C20.6533 3.56137 21.0824 3.96 21.0824 4.45172Z" fill="white" stroke="#1F7BB5" stroke-width="0.8"/>
</svg>
