<svg width="19" height="21" viewBox="0 0 19 21" fill="none" xmlns="http://www.w3.org/2000/svg">
<g clip-path="url(#clip0_386_1679)">
<path fill-rule="evenodd" clip-rule="evenodd" d="M14.9622 18.784C14.9622 19.9544 15.5493 20.7026 16.7238 20.965C17.6935 21.1817 18.6343 20.3571 18.9 19.6093C19.32 18.4273 18.3206 16.7478 17.6671 15.7395C17.4302 15.3735 17.1854 14.8882 16.8939 14.6673C16.7913 15.0645 16.5843 15.2703 16.3619 15.6146C15.8892 16.3464 14.9622 17.9411 14.9622 18.784ZM13.8383 12.4179H1.82148C1.8195 12.3851 1.8189 12.3523 1.8195 12.3195C1.82505 12.0041 1.94669 11.6906 2.18302 11.455L7.95032 5.71013L13.5087 11.6681L13.5194 11.6828L13.5208 11.6814C13.7097 11.8899 13.8153 12.1507 13.8381 12.4179H13.8383ZM6.7042 4.33762L3.89227 1.30513L5.20488 0.000488281L13.5081 8.95503L13.5077 8.95544L14.8092 10.3503L14.8108 10.3487L14.8215 10.3634C15.3969 10.9804 15.6761 11.7839 15.662 12.5815C15.6479 13.3764 15.3443 14.1656 14.7546 14.7598L14.7562 14.7614L14.7419 14.7725L9.83678 19.6587C9.23971 20.2535 8.46207 20.5418 7.69019 20.5273C6.91552 20.5127 6.14622 20.1945 5.56959 19.5765L0.841049 14.508C0.265409 13.8911 -0.0135805 13.0875 0.000507876 12.2899C0.0147947 11.4893 0.322556 10.6946 0.920618 10.0987L6.7044 4.33741L6.7042 4.33762Z" fill="black"/>
</g>
<defs>
<clipPath id="clip0_386_1679">
<rect width="19" height="21" fill="white"/>
</clipPath>
</defs>
</svg>
