<svg width="111" height="111" viewBox="0 0 111 111" fill="none" xmlns="http://www.w3.org/2000/svg">
<g clip-path="url(#clip0_71_815)">
<path d="M55.5001 0H55.4999C24.8481 0 0 24.8481 0 55.4999V55.5001C0 86.1519 24.8481 111 55.4999 111H55.5001C86.1519 111 111 86.1519 111 55.5001V55.4999C111 24.8481 86.1519 0 55.5001 0Z" fill="#457FC0"/>
<path fill-rule="evenodd" clip-rule="evenodd" d="M11.6899 35.7328H107.339C109.702 41.8809 111 48.5457 111 55.4999C111 65.9549 108.07 75.7584 102.991 84.1308H102.99C102.937 84.2192 102.882 84.3064 102.827 84.3943C102.713 84.5814 102.597 84.7681 102.48 84.9538C102.392 85.0936 102.303 85.2325 102.213 85.3713C102.113 85.5273 102.012 85.6826 101.91 85.8376C101.82 85.9743 101.731 86.1108 101.64 86.2465C101.522 86.4228 101.402 86.5981 101.281 86.7729C101.166 86.942 101.049 87.1103 100.931 87.2779C100.791 87.4773 100.65 87.6766 100.507 87.8744C100.416 88.0011 100.323 88.1272 100.23 88.2532C100.114 88.4105 99.9977 88.5672 99.8806 88.7232C99.7867 88.848 99.6927 88.9729 99.5978 89.0972C99.4672 89.2682 99.3348 89.4377 99.2023 89.607C99.081 89.7618 98.9593 89.9161 98.8364 90.0697C98.678 90.2677 98.5186 90.465 98.3575 90.6611C98.2634 90.7756 98.1677 90.8893 98.0726 91.0031C97.9424 91.1588 97.8115 91.3139 97.6797 91.4682C97.5826 91.5819 97.4853 91.6957 97.3872 91.8087C97.2341 91.9847 97.0796 92.1593 96.9246 92.3337C96.8231 92.4474 96.7217 92.5614 96.6196 92.6744C96.4285 92.8852 96.2361 93.0951 96.0419 93.303C95.9465 93.4052 95.8502 93.5063 95.7541 93.6078C95.606 93.764 95.457 93.9198 95.3071 94.0743C95.21 94.1745 95.1129 94.2745 95.0151 94.374C94.8359 94.5561 94.655 94.7367 94.4734 94.9164C94.4085 94.9806 94.3445 95.0456 94.2793 95.1096C94.0419 95.3421 93.8019 95.572 93.5601 95.8002C93.4693 95.886 93.3778 95.9707 93.2865 96.056C93.117 96.2142 92.9463 96.3716 92.7748 96.5276C92.6801 96.6136 92.5855 96.6998 92.4903 96.7853C92.2868 96.9681 92.0817 97.1492 91.8753 97.3291C91.8185 97.3784 91.7627 97.4286 91.7057 97.4779C91.449 97.6998 91.1897 97.9186 90.9291 98.1359C90.8417 98.2089 90.7533 98.2811 90.6652 98.3533C90.477 98.5081 90.288 98.6616 90.0979 98.814C90.0047 98.8886 89.9117 98.9633 89.818 99.0374C89.5862 99.2209 89.3527 99.4023 89.118 99.5822C89.0752 99.6148 89.0332 99.6484 88.9904 99.6807C88.7139 99.8913 88.4348 100.098 88.1542 100.304C88.0721 100.364 87.9895 100.423 87.9069 100.483C87.6985 100.634 87.4889 100.783 87.2783 100.931C87.1877 100.995 87.0974 101.059 87.0066 101.122C86.7497 101.3 86.4913 101.476 86.2314 101.651L86.137 101.715C85.8417 101.911 85.5442 102.105 85.245 102.296C85.1703 102.344 85.095 102.391 85.0201 102.438C84.7852 102.587 84.5492 102.734 84.3121 102.879C84.2326 102.927 84.1534 102.976 84.0735 103.024C83.7861 103.198 83.4975 103.37 83.207 103.538L83.1558 103.569C82.8414 103.751 82.5248 103.929 82.2065 104.105C82.1394 104.142 82.072 104.179 82.0049 104.216C81.7511 104.355 81.4961 104.492 81.2399 104.627C81.1614 104.668 81.0831 104.71 81.0047 104.751C80.6931 104.914 80.3802 105.074 80.0653 105.231L80.0537 105.236C79.7202 105.402 79.3845 105.564 79.0474 105.723C78.9916 105.75 78.9356 105.775 78.8798 105.801C78.6004 105.932 78.3195 106.061 78.038 106.187L77.8322 106.279C77.1561 106.579 76.4734 106.865 75.7837 107.139C75.7344 107.158 75.6847 107.177 75.6352 107.197C75.3384 107.313 75.0404 107.427 74.7412 107.539L74.5412 107.613C73.8402 107.871 73.1324 108.116 72.4188 108.346L72.2867 108.388C71.9732 108.488 71.6583 108.585 71.3427 108.68L71.1539 108.737C70.4279 108.952 69.696 109.152 68.9582 109.338L68.8481 109.365C68.5175 109.447 68.1857 109.526 67.8529 109.603L67.6759 109.644C67.3098 109.727 66.9423 109.806 66.5733 109.882H66.5747C62.9937 110.615 59.29 111 55.5006 111C37.7439 111 21.8672 102.547 11.6904 89.4682V35.7326L11.6899 35.7328Z" fill="white"/>
<path fill-rule="evenodd" clip-rule="evenodd" d="M52.564 67.3282C48.4954 67.3282 45.1885 64.0263 45.1885 59.9541C45.1885 55.8812 48.4954 52.5805 52.564 52.5805C56.6326 52.5805 59.9396 55.8812 59.9396 59.9541C59.9396 60.6148 59.8526 61.2543 59.6858 61.8636L52.564 59.9541L54.4713 67.0788C53.862 67.242 53.2238 67.3282 52.564 67.3282Z" fill="url(#paint0_linear_71_815)"/>
<path fill-rule="evenodd" clip-rule="evenodd" d="M79.6659 97.4284L68.3669 86.1262L61.47 93.0239L60.1138 87.9741L66.9817 81.1083L78.281 92.4105L83.3141 87.3817L86.5123 90.5829L79.6661 97.4284H79.6659ZM77.0262 77.465L73.8279 74.2624L76.9537 71.1358L82.0013 72.4891L77.0262 77.465Z" fill="url(#paint1_linear_71_815)"/>
<path fill-rule="evenodd" clip-rule="evenodd" d="M105.56 31.6128H11.6899V15.5147C11.6899 14.4753 12.5313 13.6328 13.5755 13.6328H91.8272C97.5447 18.604 102.245 24.719 105.56 31.6128ZM41.2431 17.0508C39.0673 17.0508 37.3051 18.8168 37.3051 20.9953C37.3051 23.1747 39.0673 24.9405 41.2431 24.9405C43.4259 24.9405 45.1883 23.1744 45.1883 20.9953C45.1883 18.8165 43.4259 17.0508 41.2431 17.0508ZM30.1976 17.0508C28.0148 17.0508 26.2524 18.8168 26.2524 20.9953C26.2524 23.1747 28.0148 24.9405 30.1976 24.9405C32.3734 24.9405 34.1431 23.1744 34.1431 20.9953C34.1431 18.8165 32.3734 17.0508 30.1976 17.0508ZM19.3917 17.0508C17.2159 17.0508 15.4538 18.8168 15.4538 20.9953C15.4538 23.1747 17.2162 24.9405 19.3917 24.9405C21.5746 24.9405 23.3369 23.1744 23.3369 20.9953C23.3369 18.8165 21.5746 17.0508 19.3917 17.0508Z" fill="url(#paint2_linear_71_815)"/>
<path fill-rule="evenodd" clip-rule="evenodd" d="M19.3916 24.9405C17.2158 24.9405 15.4536 23.1744 15.4536 20.9953C15.4536 18.8165 17.216 17.0508 19.3916 17.0508C21.5744 17.0508 23.3368 18.8168 23.3368 20.9953C23.3368 23.1747 21.5744 24.9405 19.3916 24.9405Z" fill="#FF4B55"/>
<path fill-rule="evenodd" clip-rule="evenodd" d="M30.1976 24.9405C28.0148 24.9405 26.2524 23.1744 26.2524 20.9953C26.2524 18.8165 28.0148 17.0508 30.1976 17.0508C32.3735 17.0508 34.1431 18.8168 34.1431 20.9953C34.1431 23.1747 32.3735 24.9405 30.1976 24.9405Z" fill="url(#paint3_linear_71_815)"/>
<path fill-rule="evenodd" clip-rule="evenodd" d="M41.2431 24.9405C39.0673 24.9405 37.3052 23.1744 37.3052 20.9953C37.3052 18.8165 39.0673 17.0508 41.2431 17.0508C43.4259 17.0508 45.1883 18.8168 45.1883 20.9953C45.1883 23.1747 43.4259 24.9405 41.2431 24.9405Z" fill="url(#paint4_linear_71_815)"/>
<path fill-rule="evenodd" clip-rule="evenodd" d="M107.339 35.7328H11.6899V31.6128H105.56C106.206 32.9576 106.8 34.3317 107.339 35.7328H107.339Z" fill="url(#paint5_linear_71_815)"/>
<path fill-rule="evenodd" clip-rule="evenodd" d="M78.2808 92.4104L66.9816 81.1083L60.1136 87.9741L60.0847 88.0059L56.6253 75.094L55.9001 72.4222L55.1892 69.7504L54.4712 67.0788L52.564 59.9541L59.6857 61.8636L62.3619 62.5794L65.0308 63.2951L67.7068 64.0109L80.616 67.4712L76.9536 71.1358L73.8278 74.2621L77.026 77.4647L85.127 85.565L83.3139 87.3817L78.2808 92.4104Z" fill="url(#paint6_linear_71_815)"/>
</g>
<defs>
<linearGradient id="paint0_linear_71_815" x1="-181.674" y1="415.587" x2="-181.674" y2="-53.4922" gradientUnits="userSpaceOnUse">
<stop stop-color="#F3FAFE"/>
<stop offset="0.0588235" stop-color="#F3FAFE"/>
<stop offset="0.901961" stop-color="#FEFEFE"/>
<stop offset="1" stop-color="#FEFEFE"/>
</linearGradient>
<linearGradient id="paint1_linear_71_815" x1="-181.674" y1="415.587" x2="-181.674" y2="-53.4921" gradientUnits="userSpaceOnUse">
<stop stop-color="#88ADDB"/>
<stop offset="0.0588235" stop-color="#88ADDB"/>
<stop offset="0.901961" stop-color="#9EB6DA"/>
<stop offset="1" stop-color="#9EB6DA"/>
</linearGradient>
<linearGradient id="paint2_linear_71_815" x1="-181.674" y1="415.587" x2="-181.674" y2="-53.4921" gradientUnits="userSpaceOnUse">
<stop stop-color="#C3DFF5"/>
<stop offset="0.0588235" stop-color="#C3DFF5"/>
<stop offset="0.901961" stop-color="#CDE4F6"/>
<stop offset="1" stop-color="#CDE4F6"/>
</linearGradient>
<linearGradient id="paint3_linear_71_815" x1="-181.674" y1="415.587" x2="-181.674" y2="-53.4921" gradientUnits="userSpaceOnUse">
<stop stop-color="#5297D1"/>
<stop offset="0.0588235" stop-color="#5297D1"/>
<stop offset="0.901961" stop-color="#559DD4"/>
<stop offset="1" stop-color="#559DD4"/>
</linearGradient>
<linearGradient id="paint4_linear_71_815" x1="-181.674" y1="415.587" x2="-181.674" y2="-53.4921" gradientUnits="userSpaceOnUse">
<stop stop-color="#6BA9DC"/>
<stop offset="0.0588235" stop-color="#6BA9DC"/>
<stop offset="0.901961" stop-color="#72AFDF"/>
<stop offset="1" stop-color="#72AFDF"/>
</linearGradient>
<linearGradient id="paint5_linear_71_815" x1="-181.674" y1="415.587" x2="-181.674" y2="-53.4922" gradientUnits="userSpaceOnUse">
<stop stop-color="#8BBFE7"/>
<stop offset="0.0588235" stop-color="#8BBFE7"/>
<stop offset="0.901961" stop-color="#92C4EA"/>
<stop offset="1" stop-color="#92C4EA"/>
</linearGradient>
<linearGradient id="paint6_linear_71_815" x1="-181.674" y1="415.587" x2="-181.674" y2="-53.4921" gradientUnits="userSpaceOnUse">
<stop stop-color="#486A97"/>
<stop offset="0.0588235" stop-color="#486A97"/>
<stop offset="0.901961" stop-color="#526F97"/>
<stop offset="1" stop-color="#526F97"/>
</linearGradient>
<clipPath id="clip0_71_815">
<rect width="111" height="111" fill="white"/>
</clipPath>
</defs>
</svg>
