<svg width="96" height="90" viewBox="0 0 96 90" fill="none" xmlns="http://www.w3.org/2000/svg">
<rect width="96" height="90" rx="7" fill="#D9D9D9"/>
<rect x="8" y="9" width="79" height="24" rx="4" fill="black" fill-opacity="0.15"/>
<rect x="8" y="36" width="15" height="14" rx="4" fill="black" fill-opacity="0.15"/>
<rect x="8" y="63" width="24" height="19" rx="4" fill="#1F7BB5" fill-opacity="0.57"/>
<rect x="37" y="63" width="22" height="19" rx="4" fill="#1F7BB5" fill-opacity="0.57"/>
<rect x="64" y="63" width="23" height="19" rx="4" fill="#1F7BB5" fill-opacity="0.57"/>
<rect x="8" y="54" width="18" height="6" rx="3" fill="#1F7BB5" fill-opacity="0.57"/>
<rect x="29" y="54" width="17" height="6" rx="3" fill="#1F7BB5" fill-opacity="0.57"/>
<rect x="72" y="42" width="10" height="4" rx="1" fill="black" fill-opacity="0.15"/>
<rect x="50" y="54" width="17" height="6" rx="3" fill="#1F7BB5" fill-opacity="0.57"/>
<rect x="70" y="54" width="17" height="6" rx="3" fill="#1F7BB5" fill-opacity="0.57"/>
<rect x="26" y="39" width="30" height="2" rx="1" fill="black" fill-opacity="0.15"/>
<rect x="26" y="42" width="21" height="2" rx="1" fill="black" fill-opacity="0.15"/>
<rect x="26" y="45" width="13" height="2" rx="1" fill="black" fill-opacity="0.15"/>
</svg>
