<svg width="13" height="11" viewBox="0 0 13 11" fill="none" xmlns="http://www.w3.org/2000/svg">
<path fill-rule="evenodd" clip-rule="evenodd" d="M9.40824 1.94118H11C12.0721 1.94118 12.9412 2.81027 12.9412 3.88235V9.05882C12.9412 10.1309 12.0721 11 11 11H1.94118C0.869094 11 0 10.1309 0 9.05882V3.88235C0 2.81027 0.869094 1.94118 1.94118 1.94118H3.53294L4.25118 0.867058C4.61108 0.325279 5.2184 -0.000244003 5.86882 1.37231e-07H7.07235C7.72278 -0.000244003 8.3301 0.325279 8.69 0.867058L9.40824 1.94118ZM3.8828 6.47059C3.8828 7.90003 5.0416 9.05882 6.47104 9.05882C7.15748 9.05882 7.81581 8.78614 8.3012 8.30075C8.78659 7.81536 9.05927 7.15704 9.05927 6.47059C9.05927 5.04115 7.90048 3.88235 6.47104 3.88235C5.0416 3.88235 3.8828 5.04115 3.8828 6.47059Z" fill="white"/>
</svg>
