<svg width="8" height="9" viewBox="0 0 8 9" fill="none" xmlns="http://www.w3.org/2000/svg">
<g clip-path="url(#clip0_609_7854)">
<path d="M6.28571 3.9375C7.23214 3.9375 8 3.18164 8 2.25C8 1.31836 7.23214 0.5625 6.28571 0.5625C5.33929 0.5625 4.57143 1.31836 4.57143 2.25C4.57143 2.32031 4.575 2.39062 4.58393 2.45918L2.90357 3.28535C2.59643 2.9918 2.17679 2.8125 1.71429 2.8125C0.767857 2.8125 0 3.56836 0 4.5C0 5.43164 0.767857 6.1875 1.71429 6.1875C2.17679 6.1875 2.59643 6.0082 2.90357 5.71465L4.58393 6.54082C4.575 6.60938 4.57143 6.67793 4.57143 6.75C4.57143 7.68164 5.33929 8.4375 6.28571 8.4375C7.23214 8.4375 8 7.68164 8 6.75C8 5.81836 7.23214 5.0625 6.28571 5.0625C5.82321 5.0625 5.40357 5.2418 5.09643 5.53535L3.41607 4.70918C3.425 4.64062 3.42857 4.57207 3.42857 4.5C3.42857 4.42793 3.425 4.35938 3.41607 4.29082L5.09643 3.46465C5.40357 3.7582 5.82321 3.9375 6.28571 3.9375Z" fill="#1F7BB5"/>
</g>
<defs>
<clipPath id="clip0_609_7854">
<rect width="8" height="9" fill="white"/>
</clipPath>
</defs>
</svg>
