<svg width="23" height="23" viewBox="0 0 23 23" fill="none" xmlns="http://www.w3.org/2000/svg">
<path fill-rule="evenodd" clip-rule="evenodd" d="M20.0573 5.38581L19.5494 3.88123C19.1419 2.72869 18.0501 1.95985 16.8277 1.96456H6.17103C4.94858 1.95985 3.85684 2.72869 3.44936 3.88123L2.94144 5.38581C2.2941 5.89811 1.91641 6.67819 1.91603 7.50373V8.14581C1.91247 9.46297 2.68667 10.6581 3.89019 11.1933C3.8519 11.291 3.83239 11.395 3.83269 11.5V18.2083C3.83269 19.7961 5.11988 21.0833 6.70769 21.0833H16.291C17.8788 21.0833 19.166 19.7961 19.166 18.2083V11.5C19.1663 11.395 19.1468 11.291 19.1085 11.1933C20.3121 10.6581 21.0863 9.46297 21.0827 8.14581V7.50373C21.0823 6.67819 20.7046 5.89811 20.0573 5.38581ZM5.26059 4.48494C5.39763 4.07729 5.78944 3.81086 6.21892 3.83327H16.8277C17.2572 3.81086 17.649 4.07729 17.786 4.48494L17.8818 4.79161H5.16476L5.26059 4.48494ZM13.416 8.14577V6.70827H9.58267V8.14577C9.58267 8.93968 10.2263 9.58327 11.0202 9.58327H11.9785C12.7724 9.58327 13.416 8.93968 13.416 8.14577ZM3.83267 8.14577V7.50369C3.83267 7.06439 4.18879 6.70827 4.62809 6.70827H7.66601V8.14577C7.66601 8.93968 7.02242 9.58327 6.22851 9.58327H5.27017C4.47626 9.58327 3.83267 8.93968 3.83267 8.14577ZM10.541 16.2916V19.1666H12.4577V16.2916C12.4577 15.7623 12.0286 15.3333 11.4993 15.3333C10.9701 15.3333 10.541 15.7623 10.541 16.2916ZM17.2493 18.2083C17.2493 18.7375 16.8203 19.1666 16.291 19.1666H14.3743V16.2916C14.3743 14.7038 13.0872 13.4166 11.4993 13.4166C9.91152 13.4166 8.62434 14.7038 8.62434 16.2916V19.1666H6.70767C6.1784 19.1666 5.74934 18.7375 5.74934 18.2083V11.4999H6.22851C7.13263 11.5042 7.99882 11.1369 8.62434 10.4841C9.24986 11.1369 10.1161 11.5042 11.0202 11.4999H11.9785C12.8826 11.5042 13.7488 11.1369 14.3743 10.4841C14.9999 11.1369 15.8661 11.5042 16.7702 11.4999H17.2493V18.2083ZM17.7285 9.58327C18.5224 9.58327 19.166 8.93968 19.166 8.14577V7.50369C19.166 7.06439 18.8099 6.70827 18.3706 6.70827H15.3327V8.14577C15.3327 8.93968 15.9763 9.58327 16.7702 9.58327H17.7285Z" fill="black"/>
<path d="M19.5494 3.88123L20.0231 3.72129L20.0208 3.71457L19.5494 3.88123ZM20.0573 5.38581L19.5835 5.54574L19.6309 5.68601L19.747 5.77789L20.0573 5.38581ZM16.8277 1.96456V2.46457L16.8296 2.46456L16.8277 1.96456ZM6.17103 1.96456L6.1691 2.46456H6.17103V1.96456ZM3.44936 3.88123L2.97791 3.71455L2.97563 3.72131L3.44936 3.88123ZM2.94144 5.38581L3.25173 5.77789L3.36782 5.68601L3.41518 5.54574L2.94144 5.38581ZM1.91603 7.50373L1.41603 7.5035V7.50373H1.91603ZM1.91603 8.14581L2.41603 8.14716V8.14581H1.91603ZM3.89019 11.1933L4.35571 11.3758L4.53017 10.9307L4.09336 10.7364L3.89019 11.1933ZM3.83269 11.5H4.3327L4.33269 11.4985L3.83269 11.5ZM19.166 11.5L18.666 11.4985V11.5H19.166ZM19.1085 11.1933L18.9054 10.7364L18.4686 10.9307L18.643 11.3758L19.1085 11.1933ZM21.0827 8.14581H20.5827L20.5827 8.14716L21.0827 8.14581ZM21.0827 7.50373H21.5827V7.5035L21.0827 7.50373ZM6.21892 3.83327L6.19286 4.33259L6.20588 4.33327H6.21892V3.83327ZM5.26059 4.48494L4.78654 4.32558L4.78335 4.3358L5.26059 4.48494ZM16.8277 3.83327V4.33327H16.8407L16.8537 4.33259L16.8277 3.83327ZM17.786 4.48494L18.2634 4.33577L18.2599 4.32562L17.786 4.48494ZM17.8818 4.79161V5.29161H18.5619L18.3591 4.64247L17.8818 4.79161ZM5.16476 4.79161L4.68752 4.64247L4.48466 5.29161H5.16476V4.79161ZM13.416 6.70827H13.916V6.20827H13.416V6.70827ZM9.58267 6.70827V6.20827H9.08267V6.70827H9.58267ZM7.66601 6.70827H8.16601V6.20827H7.66601V6.70827ZM10.541 19.1666H10.041V19.6666H10.541V19.1666ZM12.4577 19.1666V19.6666H12.9577V19.1666H12.4577ZM14.3743 19.1666H13.8743V19.6666H14.3743V19.1666ZM8.62434 19.1666V19.6666H9.12434V19.1666H8.62434ZM5.74934 11.4999V10.9999H5.24934V11.4999H5.74934ZM6.22851 11.4999L6.23086 10.9999H6.22851V11.4999ZM8.62434 10.4841L8.98536 10.1382L8.62434 9.76141L8.26332 10.1382L8.62434 10.4841ZM11.0202 11.4999V10.9999L11.0178 10.9999L11.0202 11.4999ZM11.9785 11.4999L11.9809 10.9999H11.9785V11.4999ZM14.3743 10.4841L14.7354 10.1382L14.3743 9.76141L14.0133 10.1382L14.3743 10.4841ZM16.7702 11.4999V10.9999L16.7678 10.9999L16.7702 11.4999ZM17.2493 11.4999H17.7493V10.9999H17.2493V11.4999ZM15.3327 6.70827V6.20827H14.8327V6.70827H15.3327ZM19.0756 4.04115L19.5835 5.54574L20.531 5.22589L20.0231 3.72131L19.0756 4.04115ZM16.8296 2.46456C17.8395 2.46067 18.7413 3.09579 19.078 4.04789L20.0208 3.71457C19.5424 2.36158 18.2608 1.45903 16.8258 1.46457L16.8296 2.46456ZM6.17103 2.46456H16.8277V1.46456H6.17103V2.46456ZM3.92077 4.04789C4.25738 3.09579 5.15926 2.46067 6.1691 2.46456L6.17296 1.46457C4.73791 1.45903 3.4563 2.36158 2.97796 3.71457L3.92077 4.04789ZM3.41518 5.54574L3.9231 4.04115L2.97563 3.72131L2.46771 5.22589L3.41518 5.54574ZM2.41603 7.50396C2.41634 6.83116 2.72415 6.19541 3.25173 5.77789L2.63116 4.99374C1.86405 5.60082 1.41648 6.52523 1.41603 7.5035L2.41603 7.50396ZM2.41603 8.14581V7.50373H1.41603V8.14581H2.41603ZM4.09336 10.7364C3.0708 10.2817 2.413 9.26628 2.41603 8.14716L1.41603 8.14446C1.41193 9.65967 2.30254 11.0345 3.68703 11.6502L4.09336 10.7364ZM4.33269 11.4985C4.33257 11.4565 4.34038 11.4149 4.35571 11.3758L3.42468 11.0108C3.36342 11.1671 3.33221 11.3336 3.3327 11.5014L4.33269 11.4985ZM4.33269 18.2083V11.5H3.33269V18.2083H4.33269ZM6.70769 20.5833C5.39602 20.5833 4.33269 19.52 4.33269 18.2083H3.33269C3.33269 20.0723 4.84373 21.5833 6.70769 21.5833V20.5833ZM16.291 20.5833H6.70769V21.5833H16.291V20.5833ZM18.666 18.2083C18.666 19.52 17.6027 20.5833 16.291 20.5833V21.5833C18.155 21.5833 19.666 20.0723 19.666 18.2083H18.666ZM18.666 11.5V18.2083H19.666V11.5H18.666ZM18.643 11.3758C18.6583 11.4149 18.6662 11.4565 18.666 11.4985L19.666 11.5014C19.6665 11.3336 19.6353 11.1671 19.574 11.0108L18.643 11.3758ZM20.5827 8.14716C20.5857 9.26628 19.9279 10.2817 18.9054 10.7364L19.3117 11.6502C20.6962 11.0345 21.5868 9.65967 21.5827 8.14446L20.5827 8.14716ZM20.5827 7.50373V8.14581H21.5827V7.50373H20.5827ZM19.747 5.77789C20.2746 6.19541 20.5824 6.83116 20.5827 7.50396L21.5827 7.5035C21.5822 6.52523 21.1347 5.60082 20.3676 4.99374L19.747 5.77789ZM6.24499 3.33395C5.59143 3.29984 4.99518 3.70529 4.78665 4.32562L5.73453 4.64426C5.80007 4.4493 5.98746 4.32187 6.19286 4.33259L6.24499 3.33395ZM16.8277 3.33327H6.21892V4.33327H16.8277V3.33327ZM18.2599 4.32562C18.0514 3.70529 17.4552 3.29984 16.8016 3.33395L16.8537 4.33259C17.0591 4.32187 17.2465 4.4493 17.3121 4.64426L18.2599 4.32562ZM18.3591 4.64247L18.2632 4.3358L17.3088 4.63408L17.4046 4.94075L18.3591 4.64247ZM5.16476 5.29161H17.8818V4.29161H5.16476V5.29161ZM4.78335 4.3358L4.68752 4.64247L5.642 4.94075L5.73783 4.63408L4.78335 4.3358ZM12.916 6.70827V8.14577H13.916V6.70827H12.916ZM9.58267 7.20827H13.416V6.20827H9.58267V7.20827ZM10.0827 8.14577V6.70827H9.08267V8.14577H10.0827ZM11.0202 9.08327C10.5024 9.08327 10.0827 8.66354 10.0827 8.14577H9.08267C9.08267 9.21583 9.95012 10.0833 11.0202 10.0833V9.08327ZM11.9785 9.08327H11.0202V10.0833H11.9785V9.08327ZM12.916 8.14577C12.916 8.66354 12.4963 9.08327 11.9785 9.08327V10.0833C13.0486 10.0833 13.916 9.21583 13.916 8.14577H12.916ZM3.33267 7.50369V8.14577H4.33267V7.50369H3.33267ZM4.62809 6.20827C3.91265 6.20827 3.33267 6.78825 3.33267 7.50369H4.33267C4.33267 7.34054 4.46494 7.20827 4.62809 7.20827V6.20827ZM7.66601 6.20827H4.62809V7.20827H7.66601V6.20827ZM8.16601 8.14577V6.70827H7.16601V8.14577H8.16601ZM6.22851 10.0833C7.29856 10.0833 8.16601 9.21583 8.16601 8.14577H7.16601C7.16601 8.66354 6.74627 9.08327 6.22851 9.08327V10.0833ZM5.27017 10.0833H6.22851V9.08327H5.27017V10.0833ZM3.33267 8.14577C3.33267 9.21583 4.20012 10.0833 5.27017 10.0833V9.08327C4.75241 9.08327 4.33267 8.66354 4.33267 8.14577H3.33267ZM11.041 19.1666V16.2916H10.041V19.1666H11.041ZM12.4577 18.6666H10.541V19.6666H12.4577V18.6666ZM11.9577 16.2916V19.1666H12.9577V16.2916H11.9577ZM11.4993 15.8333C11.7525 15.8333 11.9577 16.0385 11.9577 16.2916H12.9577C12.9577 15.4862 12.3048 14.8333 11.4993 14.8333V15.8333ZM11.041 16.2916C11.041 16.0385 11.2462 15.8333 11.4993 15.8333V14.8333C10.6939 14.8333 10.041 15.4862 10.041 16.2916H11.041ZM16.291 19.6666C17.0964 19.6666 17.7493 19.0137 17.7493 18.2083H16.7493C16.7493 18.4614 16.5441 18.6666 16.291 18.6666V19.6666ZM14.3743 19.6666H16.291V18.6666H14.3743V19.6666ZM13.8743 16.2916V19.1666H14.8743V16.2916H13.8743ZM11.4993 13.9166C12.811 13.9166 13.8743 14.9799 13.8743 16.2916H14.8743C14.8743 14.4276 13.3633 12.9166 11.4993 12.9166V13.9166ZM9.12434 16.2916C9.12434 14.9799 10.1877 13.9166 11.4993 13.9166V12.9166C9.63538 12.9166 8.12434 14.4276 8.12434 16.2916H9.12434ZM9.12434 19.1666V16.2916H8.12434V19.1666H9.12434ZM6.70767 19.6666H8.62434V18.6666H6.70767V19.6666ZM5.24934 18.2083C5.24934 19.0137 5.90226 19.6666 6.70767 19.6666V18.6666C6.45454 18.6666 6.24934 18.4614 6.24934 18.2083H5.24934ZM5.24934 11.4999V18.2083H6.24934V11.4999H5.24934ZM6.22851 10.9999H5.74934V11.9999H6.22851V10.9999ZM8.26332 10.1382C7.73267 10.692 6.99785 11.0036 6.23086 10.9999L6.22615 11.9999C7.2674 12.0048 8.26497 11.5819 8.98536 10.83L8.26332 10.1382ZM11.0178 10.9999C10.2508 11.0036 9.51601 10.692 8.98536 10.1382L8.26332 10.83C8.98371 11.5819 9.98128 12.0048 11.0225 11.9999L11.0178 10.9999ZM11.9785 10.9999H11.0202V11.9999H11.9785V10.9999ZM14.0133 10.1382C13.4827 10.692 12.7479 11.0036 11.9809 10.9999L11.9762 11.9999C13.0174 12.0048 14.015 11.5819 14.7354 10.83L14.0133 10.1382ZM16.7678 10.9999C16.0008 11.0036 15.266 10.692 14.7354 10.1382L14.0133 10.83C14.7337 11.5819 15.7313 12.0048 16.7725 11.9999L16.7678 10.9999ZM17.2493 10.9999H16.7702V11.9999H17.2493V10.9999ZM17.7493 18.2083V11.4999H16.7493V18.2083H17.7493ZM18.666 8.14577C18.666 8.66354 18.2463 9.08327 17.7285 9.08327V10.0833C18.7986 10.0833 19.666 9.21583 19.666 8.14577H18.666ZM18.666 7.50369V8.14577H19.666V7.50369H18.666ZM18.3706 7.20827C18.5337 7.20827 18.666 7.34054 18.666 7.50369H19.666C19.666 6.78825 19.086 6.20827 18.3706 6.20827V7.20827ZM15.3327 7.20827H18.3706V6.20827H15.3327V7.20827ZM15.8327 8.14577V6.70827H14.8327V8.14577H15.8327ZM16.7702 9.08327C16.2524 9.08327 15.8327 8.66354 15.8327 8.14577H14.8327C14.8327 9.21583 15.7001 10.0833 16.7702 10.0833V9.08327ZM17.7285 9.08327H16.7702V10.0833H17.7285V9.08327Z" fill="white"/>
</svg>
