<svg width="17" height="16" viewBox="0 0 17 16" fill="none" xmlns="http://www.w3.org/2000/svg">
<path fill-rule="evenodd" clip-rule="evenodd" d="M14.8255 3.74665L14.4501 2.69999C14.1489 1.89822 13.342 1.36337 12.4384 1.36665H4.56176C3.65821 1.36337 2.85127 1.89822 2.55009 2.69999L2.17467 3.74665C1.6962 4.10304 1.41704 4.6457 1.41676 5.21999V5.66665C1.41413 6.58294 1.98636 7.41433 2.87592 7.78665C2.84762 7.85461 2.8332 7.92699 2.83342 7.99999V12.6667C2.83342 13.7712 3.78482 14.6667 4.95842 14.6667H12.0418C13.2154 14.6667 14.1668 13.7712 14.1668 12.6667V7.99999C14.167 7.92699 14.1526 7.85461 14.1243 7.78665C15.0138 7.41433 15.5861 6.58294 15.5834 5.66665V5.21999C15.5831 4.6457 15.304 4.10304 14.8255 3.74665ZM3.88882 3.11994C3.9901 2.83636 4.27971 2.65101 4.59715 2.66661H12.4384C12.7558 2.65101 13.0454 2.83636 13.1467 3.11994L13.2176 3.33328H3.81798L3.88882 3.11994ZM9.91673 5.66661V4.66661H7.0834V5.66661C7.0834 6.21889 7.5591 6.66661 8.1459 6.66661H8.85423C9.44104 6.66661 9.91673 6.21889 9.91673 5.66661ZM2.8334 5.66661V5.21994C2.8334 4.91434 3.09662 4.66661 3.42132 4.66661H5.66673V5.66661C5.66673 6.21889 5.19103 6.66661 4.60423 6.66661H3.8959C3.3091 6.66661 2.8334 6.21889 2.8334 5.66661ZM7.79173 11.3333V13.3333H9.2084V11.3333C9.2084 10.9651 8.89127 10.6666 8.50007 10.6666C8.10886 10.6666 7.79173 10.9651 7.79173 11.3333ZM12.7501 12.6666C12.7501 13.0348 12.4329 13.3333 12.0417 13.3333H10.6251V11.3333C10.6251 10.2287 9.67367 9.33327 8.50007 9.33327C7.32646 9.33327 6.37507 10.2287 6.37507 11.3333V13.3333H4.9584C4.5672 13.3333 4.25007 13.0348 4.25007 12.6666V7.99994H4.60423C5.2725 8.0029 5.91272 7.74741 6.37507 7.29327C6.83741 7.74741 7.47763 8.0029 8.1459 7.99994H8.85423C9.5225 8.0029 10.1627 7.74741 10.6251 7.29327C11.0874 7.74741 11.7276 8.0029 12.3959 7.99994H12.7501V12.6666ZM13.1042 6.66661C13.691 6.66661 14.1667 6.21889 14.1667 5.66661V5.21994C14.1667 4.91434 13.9035 4.66661 13.5788 4.66661H11.3334V5.66661C11.3334 6.21889 11.8091 6.66661 12.3959 6.66661H13.1042Z" fill="black"/>
</svg>
