<svg width="301" height="330" viewBox="0 0 301 330" fill="none" xmlns="http://www.w3.org/2000/svg">
<path fill-rule="evenodd" clip-rule="evenodd" d="M0.480567 289.384C0.480567 310.184 -3.67939 329.379 12.4793 329.379C27.6885 329.379 23.5285 305.488 23.4561 288.362C23.273 245.992 59.8994 211.397 105.467 211.397H195.454C229.099 211.397 250.683 227.219 264.597 247.24C291.107 285.382 263.61 329.383 289.442 329.383C304.277 329.383 300.44 308.204 300.44 291.39C300.44 274.145 296.259 258.894 290.447 247.393C287.096 240.759 284.558 236.233 280.441 230.4C269.264 214.565 252.556 202.592 234.469 195.383C221.904 190.376 205.081 188.404 187.457 188.404C156.345 188.404 92.4978 185.211 67.1634 195.093C55.467 199.654 42.4293 207.003 33.7091 215.633C14.3272 234.819 0.484824 259.038 0.484824 289.393L0.480567 289.384Z" fill="black"/>
<path fill-rule="evenodd" clip-rule="evenodd" d="M93.4679 84.9222C93.4679 72.1613 93.1188 66.5579 99.1224 54.5805C100.787 51.2594 101.686 49.1687 103.866 46.3245C126.318 16.9919 166.499 15.1567 190.867 39.5204C210.543 59.1961 213.195 92.2756 197.05 113.51C195.619 115.392 192.651 119.296 191.174 120.633C189.458 122.187 189.632 121.668 187.767 123.226C164.217 142.906 132.717 141.407 110.325 121.055C109.048 119.892 105.594 115.673 104.304 114.08C99.4332 108.068 93.4722 93.7999 93.4722 84.918L93.4679 84.9222ZM70.4711 76.9216C70.4711 124.989 105.169 159.912 151.46 159.912C194.52 159.912 230.448 124.448 230.448 78.9229C230.448 7.24981 142.429 -25.6083 93.6765 23.1403C80.8049 36.0119 70.4668 57.8591 70.4668 76.9216H70.4711Z" fill="black"/>
</svg>
