<svg width="21" height="21" viewBox="0 0 21 21" fill="none" xmlns="http://www.w3.org/2000/svg">
<path fill-rule="evenodd" clip-rule="evenodd" d="M20.0827 17.2083V3.79166C20.0827 2.20384 18.7955 0.916656 17.2077 0.916656H3.79102C2.2032 0.916656 0.916016 2.20384 0.916016 3.79166V17.2083C0.916016 18.7961 2.2032 20.0833 3.79102 20.0833H17.2077C18.7955 20.0833 20.0827 18.7961 20.0827 17.2083ZM14.3327 8.58332C13.2741 8.58332 12.416 9.44144 12.416 10.5C12.416 11.5585 13.2741 12.4167 14.3327 12.4167C15.3912 12.4167 16.2493 11.5585 16.2493 10.5C16.2493 9.44144 15.3912 8.58332 14.3327 8.58332ZM18.166 7.62499H11.4577C10.9284 7.62499 10.4993 8.05405 10.4993 8.58332V12.4167C10.4993 12.9459 10.9284 13.375 11.4577 13.375H18.166V7.62499ZM17.2077 2.83332C17.737 2.83332 18.166 3.26238 18.166 3.79166V5.70832H11.4577C9.86986 5.70832 8.58268 6.9955 8.58268 8.58332V12.4167C8.58268 14.0045 9.86986 15.2917 11.4577 15.2917H18.166V17.2083C18.166 17.7376 17.737 18.1667 17.2077 18.1667H3.79102C3.26174 18.1667 2.83268 17.7376 2.83268 17.2083V3.79166C2.83268 3.26238 3.26174 2.83332 3.79102 2.83332H17.2077Z" fill="#231F20"/>
<path d="M18.166 7.62499H18.566V7.22499H18.166V7.62499ZM18.166 13.375V13.775H18.566V13.375H18.166ZM18.166 5.70832V6.10832H18.566V5.70832H18.166ZM18.166 15.2917H18.566V14.8917H18.166V15.2917ZM19.6827 3.79166V17.2083H20.4827V3.79166H19.6827ZM17.2077 1.31666C18.5746 1.31666 19.6827 2.42475 19.6827 3.79166H20.4827C20.4827 1.98292 19.0164 0.516656 17.2077 0.516656V1.31666ZM3.79102 1.31666H17.2077V0.516656H3.79102V1.31666ZM1.31602 3.79166C1.31602 2.42475 2.42411 1.31666 3.79102 1.31666V0.516656C1.98228 0.516656 0.516016 1.98292 0.516016 3.79166H1.31602ZM1.31602 17.2083V3.79166H0.516016V17.2083H1.31602ZM3.79102 19.6833C2.42411 19.6833 1.31602 18.5752 1.31602 17.2083H0.516016C0.516016 19.0171 1.98228 20.4833 3.79102 20.4833V19.6833ZM17.2077 19.6833H3.79102V20.4833H17.2077V19.6833ZM19.6827 17.2083C19.6827 18.5752 18.5746 19.6833 17.2077 19.6833V20.4833C19.0164 20.4833 20.4827 19.0171 20.4827 17.2083H19.6827ZM12.816 10.5C12.816 9.66236 13.4951 8.98332 14.3327 8.98332V8.18332C13.0532 8.18332 12.016 9.22053 12.016 10.5H12.816ZM14.3327 12.0167C13.4951 12.0167 12.816 11.3376 12.816 10.5H12.016C12.016 11.7794 13.0532 12.8167 14.3327 12.8167V12.0167ZM15.8493 10.5C15.8493 11.3376 15.1703 12.0167 14.3327 12.0167V12.8167C15.6121 12.8167 16.6493 11.7794 16.6493 10.5H15.8493ZM14.3327 8.98332C15.1703 8.98332 15.8493 9.66236 15.8493 10.5H16.6493C16.6493 9.22053 15.6121 8.18332 14.3327 8.18332V8.98332ZM11.4577 8.02499H18.166V7.22499H11.4577V8.02499ZM10.8993 8.58332C10.8993 8.27496 11.1493 8.02499 11.4577 8.02499V7.22499C10.7075 7.22499 10.0993 7.83314 10.0993 8.58332H10.8993ZM10.8993 12.4167V8.58332H10.0993V12.4167H10.8993ZM11.4577 12.975C11.1493 12.975 10.8993 12.725 10.8993 12.4167H10.0993C10.0993 13.1668 10.7075 13.775 11.4577 13.775V12.975ZM18.166 12.975H11.4577V13.775H18.166V12.975ZM17.766 7.62499V13.375H18.566V7.62499H17.766ZM18.566 3.79166C18.566 3.04147 17.9579 2.43332 17.2077 2.43332V3.23332C17.516 3.23332 17.766 3.4833 17.766 3.79166H18.566ZM18.566 5.70832V3.79166H17.766V5.70832H18.566ZM11.4577 6.10832H18.166V5.30832H11.4577V6.10832ZM8.98268 8.58332C8.98268 7.21642 10.0908 6.10832 11.4577 6.10832V5.30832C9.64895 5.30832 8.18268 6.77459 8.18268 8.58332H8.98268ZM8.98268 12.4167V8.58332H8.18268V12.4167H8.98268ZM11.4577 14.8917C10.0908 14.8917 8.98268 13.7836 8.98268 12.4167H8.18268C8.18268 14.2254 9.64895 15.6917 11.4577 15.6917V14.8917ZM18.166 14.8917H11.4577V15.6917H18.166V14.8917ZM18.566 17.2083V15.2917H17.766V17.2083H18.566ZM17.2077 18.5667C17.9579 18.5667 18.566 17.9585 18.566 17.2083H17.766C17.766 17.5167 17.516 17.7667 17.2077 17.7667V18.5667ZM3.79102 18.5667H17.2077V17.7667H3.79102V18.5667ZM2.43268 17.2083C2.43268 17.9585 3.04083 18.5667 3.79102 18.5667V17.7667C3.48266 17.7667 3.23268 17.5167 3.23268 17.2083H2.43268ZM2.43268 3.79166V17.2083H3.23268V3.79166H2.43268ZM3.79102 2.43332C3.04083 2.43332 2.43268 3.04147 2.43268 3.79166H3.23268C3.23268 3.4833 3.48266 3.23332 3.79102 3.23332V2.43332ZM17.2077 2.43332H3.79102V3.23332H17.2077V2.43332Z" fill="white"/>
</svg>
